<svg id="Layer_1" data-name="Layer 1" xmlns="http://www.w3.org/2000/svg" width="2721" height="2394.08" viewBox="0 0 2721 2394.08">
  <defs>
    <style>
      .cls-1 {
        fill: #fff;
      }

      .cls-2 {
        fill: #333;
      }

      .cls-3, .cls-9 {
        fill: #c69696;
      }

      .cls-4, .cls-7 {
        fill: #e9d9cb;
      }

      .cls-5 {
        fill: #f6f0eb;
      }

      .cls-10, .cls-6, .cls-7, .cls-8, .cls-9 {
        stroke: #c69696;
      }

      .cls-10, .cls-6, .cls-7 {
        stroke-width: 3px;
      }

      .cls-10, .cls-8 {
        fill: none;
      }

      .cls-8, .cls-9 {
        stroke-width: 2px;
      }
    </style>
  </defs>
  <rect class="cls-1" width="2721" height="2393.59"/>
  <g>
    <rect class="cls-2" width="2721" height="73.69"/>
    <circle class="cls-3" cx="59.52" cy="36.85" r="14.17"/>
    <circle class="cls-4" cx="111.25" cy="36.85" r="14.17"/>
    <circle class="cls-5" cx="162.98" cy="36.85" r="14.17"/>
  </g>
  <g>
    <path class="cls-6" d="M1050.2,176.23a32.94,32.94,0,1,1,0-.12Z"/>
    <path class="cls-7" d="M911.61,307.73a26.37,26.37,0,0,0-26.34,26.4v79.2a26.39,26.39,0,0,0,26.34,26.4h227.31a26.38,26.38,0,0,0,26.35-26.37V334.13a26.36,26.36,0,0,0-26.32-26.4H911.61Z"/>
    <g id="a">
      <path id="Z" d="M948,344.47c-.92-2.56-3.22-4.12-6.69-4.12-5.41,0-8,3.66-8,9.07s2.65,9.25,8.15,9.25c3.94,0,5.68-2.2,7.15-4.77l2.47,1.29a10.1,10.1,0,0,1-9.8,6c-7.32,0-10.71-4.58-11.08-11.81-.55-9.53,9.07-14,17.13-10.17a7.46,7.46,0,0,1,3.57,4.21"/>
      <path id="aa" d="M965.18,357.57c-1.36,1.92-2.84,3.75-6.21,3.66s-5.32-1.92-5.32-5.22c-.1-5.86,5.77-5.77,11.45-5.77.28-3.2-.82-4.94-3.75-4.94-2.2.09-3.76.64-3.85,2.83l-3-.27c.46-3.39,3-4.76,7-4.76s6.59,1.83,6.33,5.86v7.51c.17,1.83.9,2.93,3,2.47v1.83C967.76,361.6,965,360.59,965.18,357.57ZM956.67,356a2.78,2.78,0,0,0,2.53,3h.4c3.75-.27,5.78-2.65,5.49-6.77-3.94.18-8.42-.46-8.42,3.75"/>
      <path id="ab" d="M981.2,342.87c8.15-.36,4.85,10.38,5.5,17.36h-2.93V349.4c0-2.77-.73-4.38-3.59-4.29-6.59.18-4,9.13-4.48,15.12h-2.93l-.1-17h2.75a15.27,15.27,0,0,0,.18,2.86c1-2,2.66-3.13,5.6-3.22"/>
      <path id="ac" d="M996,343.39a6.19,6.19,0,0,1,5.81,3l-.1-9.2h3.1l.09,24H1002a24.56,24.56,0,0,0-.29-2.85c-1,2.11-2.71,3.22-5.71,3.22-5.13,0-6.67-3.59-6.78-9C989.18,346.52,991.42,343.39,996,343.39Zm1.56,1.91c-3.66,0-4.22,3.11-4.22,6.86s.55,6.78,4.12,6.78c3.85,0,4.67-2.93,4.67-7,0-3.85-.82-6.78-4.58-6.68"/>
      <path id="ad" d="M1009.77,340.23v-3h3v3Zm0,20v-17h3v17h-3"/>
      <path id="ae" d="M1023.61,343.52c5.78,0,7.88,3.85,7.69,9.71h-12.36c0,3.66,1.28,6.14,4.85,6.23a4.27,4.27,0,0,0,4.49-2.66l2.57.73c-1,2.57-3.39,4.13-7.06,4.13-5.31,0-8-3.39-8-9.16C1015.92,346.91,1018.22,343.52,1023.61,343.52Zm4.77,6.71c.55-5.49-7-7.05-8.89-2.56a6.75,6.75,0,0,0-.54,2.56h9.82"/>
      <path id="af" d="M1045.14,347.77c-.28-3.12-7.87-3.48-8,0,1.38,4.85,10.54,1.1,10.9,8.24s-13.73,6.78-14.38.73l2.56-.46c.37,3.3,8.88,4.13,9,0-.91-5.12-10.33-1.37-10.8-8.24-.37-5.22,7.51-5.77,11.17-3.84a4.58,4.58,0,0,1,2.2,3.2"/>
    </g>
    <g id="b">
      <path id="af-2" d="M1070.78,347.77c-.27-3.12-7.87-3.48-8,0,1.37,4.85,10.53,1.1,10.89,8.24s-13.73,6.78-14.37.73l2.56-.46c.37,3.3,8.88,4.13,9,0-.92-5.12-10.35-1.37-10.81-8.24-.37-5.22,7.51-5.77,11.17-3.84a4.59,4.59,0,0,1,2.2,3.2"/>
      <path id="ag" d="M1080.29,356.56c-.19,2.2,1.65,2.66,3.48,2v2.12c-2.83.85-6,.43-6-3.35v-12.1h-2v-2H1078l.83-4h1.94v4h3v2h-3v11"/>
      <path id="aa-2" d="M1097,357.57c-1.38,1.92-2.84,3.75-6.23,3.66s-5.32-1.92-5.32-5.22c-.08-5.86,5.77-5.77,11.44-5.77.28-3.2-.82-4.94-3.75-4.94-2.2.09-3.76.64-3.85,2.83l-3-.27c.46-3.39,3-4.76,7-4.76s6.59,1.83,6.55,5.86v7.51c0,1.83.69,2.93,3,2.47v1.83C1099.54,361.6,1096.79,360.59,1097,357.57Zm-8.53-1.56a2.78,2.78,0,0,0,2.53,3h.41c3.75-.27,5.77-2.65,5.49-6.77-3.94.18-8.43-.46-8.43,3.75"/>
      <path id="ah" d="M1112.77,345.65c-7-1.44-4.76,8.14-5.12,14.58h-2.88l-.09-17h2.7a20.42,20.42,0,0,0,.18,3.49c.54-2.42,2.06-4.38,5.21-3.67v2.18"/>
      <path id="ag-2" d="M1118.29,356.56c-.19,2.2,1.65,2.66,3.48,2v2.12c-2.83.85-6,.43-6-3.35v-12.1h-2v-2H1116l.83-4h1.94v4h3v2h-3v11"/>
    </g>
    <g id="c">
      <path id="ai" d="M991.84,379.23c-2.85-.82-3.85.92-3.48,4h3.41v2h-3v15h-3v-15h-3v-2h2.53c-.65-4.52,1.59-7.13,6.47-5.91v1.91"/>
      <path id="aa-3" d="M1004.66,397.13c-1.37,1.92-2.83,3.75-6.22,3.66s-5.31-1.92-5.31-5.22c-.1-5.86,5.76-5.77,11.44-5.77.28-3.2-.82-4.94-3.75-4.94-2.2.09-3.76.64-3.85,2.84l-3-.28c.46-3.39,3-4.76,7-4.76s6.59,1.83,6.86,5.86V396c-.36,1.83.37,2.93,3,2.47v1.83C1007.23,401.16,1004.48,400.15,1004.66,397.13Zm-8.51-1.56a2.77,2.77,0,0,0,2.52,3h.41c3.75-.27,5.77-2.65,5.49-6.77-3.94.18-8.42-.46-8.42,3.75"/>
      <path id="aj" d="M1011.77,400.23v-24h3v24h-3"/>
      <path id="aj-2" d="M1019.77,400.23v-24h3v24h-3"/>
      <path id="ad-2" d="M1026.77,379.23v-3h3v3Zm0,21v-17h3v17h-3"/>
      <path id="ab-2" d="M1042.2,382.87c8.16-.36,4.86,10.38,5.5,17.36h-2.93V389.4c0-2.77-.73-4.38-3.58-4.29-6.6.18-4,9.13-4.49,15.12h-2.93l-.09-17h2.75a13.75,13.75,0,0,0,.18,2.86c1-2,2.66-3.13,5.59-3.22"/>
      <path id="ak" d="M1066.79,383.23c-.91,11.45,3.76,26.83-10.07,23.9a5.22,5.22,0,0,1-4-3.94l2.93-.45c1.37,4.3,9.16,2.93,8.15-2.57v-2.75a5.81,5.81,0,0,1-5.59,3.3c-4.94,0-6.22-3.75-6.22-8.79s1.46-8.88,6.5-9a5.88,5.88,0,0,1,5.4,3.2c.09-.92,0-2.11.18-2.93Zm-8.09,15.18c3.29,0,4.57-2.93,4.57-6.68s-1.29-6.87-4.57-6.87c-3.58,0-4.22,3.11-4.22,6.87s.55,6.68,4.22,6.68"/>
    </g>
    <path class="cls-6" d="M868.27,548.63a9.89,9.89,0,0,1,9.89-9.9H2259.38a9.92,9.92,0,0,1,9.89,9.89v13.22a9.93,9.93,0,0,1-9.89,9.89H878.16a9.91,9.91,0,0,1-9.89-9.9Zm-412,132a9.91,9.91,0,0,1,9.89-9.89H1567.38a9.89,9.89,0,0,1,9.89,9.89h0v13.2a9.9,9.9,0,0,1-9.88,9.9H466.16a9.92,9.92,0,0,1-9.89-9.89Z"/>
    <path class="cls-7" d="M1985.65,670.73h66L2020,720.23l31.67,49.5h-66l31.69-49.5Z"/>
    <g id="d">
      <path id="al" d="M1945.61,797.6c3,.55,5.32,1.84,5.32,5.41,0,8.06-12.73,8.42-15,2.65a9.56,9.56,0,0,1-.55-2.29l2.93-.27c.55,2.47,1.92,4,4.94,4s4.76-1.38,4.76-4.21c0-3.48-3.29-4.22-7.23-3.94v-2.57c3.57.09,6.59-.36,6.59-3.84,0-2.48-1.55-3.94-4.21-3.94s-4.3,1.37-4.49,3.75l-2.93-.27c.55-3.85,3.21-5.77,7.42-5.86,4.4-.09,7.24,1.92,7.24,6,0,3.3-1.93,4.76-4.77,5.4"/>
      <path id="am" d="M1962,786.23c6.23,0,7.79,5,7.79,11.63s-1.82,11.72-7.88,11.72-7.87-5.13-7.87-11.72S1955.55,786.23,1962,786.23Zm-.09,21c4.32,0,5-4.49,5-9.34s-.37-9.34-4.85-9.34c-4.68,0-5,4.39-5,9.34s.44,9.34,4.93,9.34"/>
    </g>
    <g id="e">
      <path id="af-3" d="M1992.55,796.14c-.27-3.12-7.88-3.48-8,0,1.38,4.85,10.53,1.1,10.9,8.24s-13.74,6.78-14.38.73l2.57-.45c.35,3.29,8.88,4.12,9,0-.92-5.13-10.35-1.38-10.81-8.25-.37-5.22,7.51-5.77,11.18-3.84a4.6,4.6,0,0,1,2.19,3.2"/>
      <path id="ae-2" d="M2005.83,791.52c5.77,0,7.88,3.85,7.69,9.71h-12.36c0,3.66,1.28,6.14,4.85,6.23a4.27,4.27,0,0,0,4.48-2.66l2.57.73c-1,2.57-3.38,4.13-7,4.13-5.32,0-8.07-3.39-8-9.16C1998.14,794.91,2000.43,791.52,2005.83,791.52Zm4.76,7.71c.55-5.49-7-7-8.88-2.56a6.23,6.23,0,0,0-.55,2.56h9.61"/>
      <path id="an" d="M2023.78,793.76c-3.67,0-4.4,3-4.4,6.68s.82,6.87,4.4,6.87a3.66,3.66,0,0,0,3.93-3.35v-.13l2.94.18c-.56,3.39-2.84,5.59-6.79,5.59-5.4,0-7-3.75-7.51-9.07-.91-8.51,9.25-12,13.46-5.86a7,7,0,0,1,.64,2l-2.93.27a3.49,3.49,0,0,0-3.75-3.2"/>
      <path id="ao" d="M2040.63,791.47c5.68-.09,7.77,3.39,7.77,9.06s-2.47,9.07-7.87,9.07-7.6-3.57-7.69-9.07C2032.84,794.49,2035.41,791.47,2040.63,791.47Zm-.09,15.93c4,.09,4.85-2.84,4.85-6.87s-.73-6.86-4.68-6.86-4.85,2.93-4.85,6.86.92,6.78,4.68,6.87"/>
      <path id="ab-3" d="M2060.19,791.87c8.16-.36,4.87,10.38,5.5,17.36h-2.92V798.4c0-2.77-.73-4.38-3.58-4.29-6.6.18-4,9.13-4.5,15.12h-2.92l-.1-17h2.75a15.27,15.27,0,0,0,.18,2.86c1-2,2.66-3.13,5.59-3.22"/>
      <path id="ac-2" d="M2076,791.39a6.19,6.19,0,0,1,5.82,3l-.11-9.2h3.11l.1,24H2082a24.56,24.56,0,0,0-.29-2.85c-1,2.11-2.71,3.22-5.71,3.22-5.13,0-6.67-3.59-6.77-9C2069.18,794.52,2071.41,791.39,2076,791.39Zm.75,2.28c-3.65,0-4.21,3.11-4.21,6.86s.56,6.78,4.13,6.78c3.85,0,4.67-2.93,4.67-7,0-3.85-.83-6.78-4.59-6.68"/>
      <path id="af-4" d="M2098.78,796.14c-.27-3.12-7.88-3.48-8,0,1.37,4.85,10.54,1.1,10.89,8.24s-13.73,6.78-14.37.73l2.57-.45c.37,3.29,8.87,4.12,9,0-.91-5.13-10.34-1.38-10.8-8.25-.38-5.22,7.51-5.77,11.16-3.84a4.58,4.58,0,0,1,2.2,3.2"/>
    </g>
    <path class="cls-7" d="M462.92,810.09c-3.68-4.06-2.19-7.36,3.25-7.36H743.36a9.91,9.91,0,0,1,9.91,9.9h0v112.2a9.91,9.91,0,0,1-9.9,9.9H466.17c-5.44,0-6.93-3.3-3.25-7.36l46.15-51.28a11.26,11.26,0,0,0,0-14.72Z"/>
    <g id="f">
      <path id="Z-2" d="M574.61,825.81c-.92-2.56-3.21-4.12-6.69-4.12-5.4,0-8,3.66-8,9.07s2.65,9.24,8.15,9.24c3.94,0,5.68-2.19,7.14-4.76l2.47,1.28a10.13,10.13,0,0,1-9.8,6.05c-7.32,0-10.71-4.58-11.08-11.81-.55-9.53,9.07-14,17.13-10.17a7.43,7.43,0,0,1,3.57,4.21"/>
      <path id="aj-3" d="M580.77,842.23v-24h3v24h-3"/>
      <path id="ad-3" d="M588.77,821.23v-3h3v3Zm0,21v-17h3v17h-3"/>
      <path id="an-2" d="M602.17,826.73c-3.66,0-4.39,3-4.39,6.68s.82,6.87,4.39,6.87A3.66,3.66,0,0,0,606.1,837a.76.76,0,0,1,0-.15L609,837c-.55,3.39-2.84,5.59-6.77,5.59-5.41,0-7-3.76-7.51-9.07-.92-8.51,9.25-12,13.46-5.86a7.3,7.3,0,0,1,.64,2l-2.93.27a3.51,3.51,0,0,0-3.76-3.2"/>
      <path id="ap" d="M622.73,842.23l-5.85-8L614.77,836v6.26h-3v-24h3v15.23l7.43-8.23h3.31l-6.9,7.34,7.34,9.66h-3.18"/>
    </g>
    <g id="g">
      <path id="ao-2" d="M644.67,824.44c5.68-.1,7.78,3.38,7.78,9.06s-2.47,9.07-7.87,9.07-7.61-3.57-7.7-9.07C636.88,827.46,639.45,824.44,644.67,824.44Zm-.09,15.93c4,.09,4.84-2.84,4.84-6.87s-.72-6.87-4.66-6.87-4.85,2.93-4.85,6.87.91,6.78,4.67,6.87"/>
      <path id="ab-4" d="M664.2,824.87c8.15-.36,4.85,10.38,5.5,17.36h-2.93V831.4c0-2.77-.73-4.38-3.57-4.29-6.6.18-4,9.13-4.5,15.12h-2.93l-.1-17h2.75a15.27,15.27,0,0,0,.18,2.86c1-2,2.66-3.13,5.6-3.22"/>
    </g>
    <g id="h">
      <path id="aa-4" d="M694.21,838.91c-1.37,1.92-2.85,3.75-6.23,3.66s-5.31-1.92-5.31-5.22c-.09-5.86,5.77-5.77,11.45-5.77.27-3.21-.82-5-3.75-5-2.2.1-3.76.65-3.85,2.84l-3-.27c.45-3.39,3-4.76,7-4.76s6.59,1.83,6.31,5.86v7.51c.19,1.83.92,2.93,3,2.47v1.83C696.78,842.94,694,841.93,694.21,838.91Zm-8.53-1.56a2.77,2.77,0,0,0,2.53,3h.42c3.75-.27,5.76-2.65,5.48-6.78-3.94.19-8.43-.45-8.43,3.76"/>
    </g>
    <g id="i">
      <path id="aq" d="M547.58,863.87c5.32.09,6.77,3.71,6.77,8.87s-1.55,8.88-6.77,9.06c-3,0-4.75-1.18-5.81-3.08l.09,9.51h-3.09l-.1-24h3l.2,2.72C542.83,865.05,544.58,863.87,547.58,863.87Zm-1,16.06c3.66,0,4.11-3.11,4.11-6.87s-.54-6.68-4.11-6.77c-3.85,0-4.67,2.93-4.67,7s.92,6.68,4.67,6.68"/>
      <path id="ao-3" d="M564.3,864c5.67-.09,7.79,3.39,7.79,9.06s-2.47,9.07-7.87,9.07-7.61-3.57-7.7-9.07C556.52,867,559.09,864,564.3,864Zm-.09,15.93c4,.09,4.85-2.84,4.85-6.87s-.73-6.86-4.67-6.86-4.86,2.93-4.86,6.86.92,6.78,4.68,6.87"/>
      <path id="aj-4" d="M575.77,882.23v-24h3v24h-3"/>
      <path id="ap-2" d="M593.73,881.76l-5.85-8-2.11,1.74v6.73h-3v-24h3v14.23l7.43-8.23h3.31l-6.9,7.34,7.34,9.66h-3.18"/>
      <path id="aa-5" d="M610.1,878.47c-1.38,1.92-2.84,3.75-6.23,3.66s-5.31-1.92-5.31-5.22c-.09-5.86,5.77-5.77,11.44-5.77.28-3.2-.82-4.94-3.75-4.94-2.2.09-3.75.64-3.85,2.84l-3-.28c.46-3.39,3-4.76,7-4.76s6.6,1.83,6.43,5.86v7.51c.07,1.83.81,2.93,3,2.47v1.83C612.66,882.5,609.91,881.49,610.1,878.47Zm-8.52-1.56a2.77,2.77,0,0,0,2.52,3h.41c3.75-.27,5.77-2.65,5.48-6.77-3.92.18-8.41-.46-8.41,3.75"/>
      <path id="ar" d="M616.77,874.23v-3h8v3h-8"/>
      <path id="ac-3" d="M634,864.39a6.19,6.19,0,0,1,5.81,3l-.1-9.2h3.1l.09,24H640a24.56,24.56,0,0,0-.29-2.85c-1,2.11-2.71,3.22-5.71,3.22-5.13,0-6.67-3.59-6.78-9C627.18,867.52,629.42,864.39,634,864.39Zm1,1.81c-3.67,0-4.22,3.11-4.22,6.86s.55,6.78,4.12,6.78c3.85,0,4.67-2.93,4.67-7,0-3.84-.82-6.78-4.57-6.68"/>
      <path id="ao-4" d="M653.86,864c5.68-.09,7.79,3.39,7.79,9.06s-2.48,9.07-7.88,9.07-7.6-3.57-7.69-9.07C646.09,867,648.65,864,653.86,864Zm-.09,15.93c4,.09,4.85-2.84,4.85-6.87s-.73-6.86-4.67-6.86-4.85,2.93-4.85,6.86.91,6.78,4.67,6.87"/>
      <path id="ag-3" d="M668.29,877.46c-.18,2.2,1.65,2.66,3.48,2v2.11c-2.84.86-6,.43-6-3.34v-12h-2v-2H666l.84-4h1.94v4h3v2h-3v11"/>
      <path id="ag-4" d="M677.29,877.46c-.18,2.2,1.65,2.66,3.48,2v2.11c-2.84.86-6,.43-6-3.34v-12h-2v-2H675l.84-4h1.94v4h3v2h-3v11"/>
      <path id="ae-3" d="M690.49,863.52c5.78,0,7.89,3.85,7.71,9.71H685.83c0,3.66,1.28,6.14,4.85,6.23a4.25,4.25,0,0,0,4.48-2.66l2.57.73c-1,2.57-3.39,4.13-7.05,4.13-5.32,0-8-3.39-8-9.16C682.8,866.91,685.1,863.52,690.49,863.52Zm4.77,7.71c.54-5.49-7-7-8.88-2.56a6.57,6.57,0,0,0-.55,2.56h8.94"/>
      <path id="ac-4" d="M707,864.39a6.19,6.19,0,0,1,5.81,3l-.1-9.2h3.1l.09,24H713a24.56,24.56,0,0,0-.29-2.85c-1,2.11-2.71,3.22-5.71,3.22-5.13,0-6.67-3.59-6.78-9C700.18,867.52,702.42,864.39,707,864.39Zm1.31,1.81c-3.66,0-4.22,3.11-4.22,6.86s.55,6.78,4.12,6.78c3.85,0,4.67-2.93,4.67-7,0-3.84-.83-6.78-4.58-6.68"/>
    </g>
    <g id="j">
      <path id="an-3" d="M592.23,905.85c-3.65,0-4.4,3-4.4,6.69s.83,6.86,4.4,6.86a3.67,3.67,0,0,0,3.94-3.35v-.13l2.93.19c-.55,3.39-2.84,5.58-6.78,5.58-5.4,0-7-3.75-7.51-9.06-.92-8.52,9.25-12,13.46-5.86a6.68,6.68,0,0,1,.64,2l-2.93.28a3.47,3.47,0,0,0-3.74-3.21h0"/>
      <path id="aa-6" d="M612.84,918c-1.37,1.92-2.85,3.75-6.22,3.66s-5.32-1.92-5.32-5.22c-.09-5.86,5.77-5.77,11.45-5.77.28-3.2-.82-4.94-3.75-4.94-2.2.09-3.76.64-3.85,2.84l-3-.28c.46-3.39,3-4.76,7-4.76s6.59,1.83,6.68,5.86v7.51c-.18,1.83.55,2.93,3,2.47v1.83C615.41,922.06,612.66,921.05,612.84,918Zm-8.51-1.56a2.77,2.77,0,0,0,2.52,3h.41c3.75-.28,5.77-2.66,5.48-6.78-3.94.18-8.41-.46-8.41,3.75"/>
      <path id="ab-5" d="M629.2,903.87c8.15-.36,4.85,10.38,5.5,17.36h-2.93V910.4c0-2.77-.73-4.38-3.57-4.29-6.61.18-4,9.13-4.5,15.12h-2.93l-.1-17h2.75a15.27,15.27,0,0,0,.18,2.86c1-2,2.66-3.13,5.6-3.22"/>
      <path id="ac-5" d="M644,903.39a6.19,6.19,0,0,1,5.81,3l-.1-9.2h3.1l.09,24H650a24.56,24.56,0,0,0-.29-2.85c-1,2.11-2.71,3.22-5.71,3.22-5.13,0-6.67-3.59-6.78-9C637.18,906.52,639.42,903.39,644,903.39Zm1.21,2.37c-3.66,0-4.21,3.11-4.21,6.87s.55,6.77,4.12,6.77c3.84,0,4.66-2.93,4.66-7,0-3.84-.82-6.77-4.58-6.68"/>
      <path id="as" d="M671,904.23l-7.87,20.24c-1.29,2.56-3.39,4.67-7.42,3.85v-2.2c3.57.55,4.85-1.83,5.86-4.58l-6.83-17.31h3.12l5.21,14.29L668,904.23h2.72"/>
    </g>
    <path class="cls-7" d="M1286.92,810.09c-3.69-4.06-2.19-7.36,3.25-7.36h277.2a9.9,9.9,0,0,1,9.9,9.9h0v112.2a9.91,9.91,0,0,1-9.9,9.9h-277.2c-5.44,0-6.93-3.3-3.25-7.36l46.15-51.28a11.26,11.26,0,0,0,0-14.72Z"/>
    <g id="f-2">
      <path id="Z-3" d="M1362.28,839c-.93-2.57-3.21-4.12-6.69-4.12-5.4,0-8,3.66-8,9.06s2.65,9.25,8.15,9.25c3.94,0,5.68-2.2,7.14-4.76l2.47,1.28a10.1,10.1,0,0,1-9.8,6c-7.32,0-10.71-4.58-11.08-11.82-.55-9.52,9.07-14,17.13-10.16a7.43,7.43,0,0,1,3.57,4.21"/>
      <path id="aj-5" d="M1368.77,855.23v-24h3v24h-3"/>
      <path id="ad-4" d="M1375.77,834.23v-3h3v3Zm0,21v-17h3v17h-3"/>
      <path id="an-4" d="M1389.84,839.91c-3.67,0-4.4,3-4.4,6.69s.82,6.87,4.4,6.87a3.67,3.67,0,0,0,3.93-3.36.49.49,0,0,1,0-.12l2.93.18c-.55,3.39-2.84,5.59-6.77,5.59-5.41,0-7-3.76-7.51-9.07-.92-8.52,9.25-12,13.46-5.86a7.3,7.3,0,0,1,.64,2l-2.94.28a3.5,3.5,0,0,0-3.75-3.21"/>
      <path id="ap-3" d="M1410.73,855.39l-5.85-8-2.11,1.74v6.1h-3v-24h3v15.23l7.43-8.23h3.31l-6.89,7.34,7.33,9.66h-3.18"/>
    </g>
    <g id="g-2">
      <path id="ao-5" d="M1432.33,837.62c5.69-.09,7.78,3.39,7.78,9.07s-2.46,9.07-7.87,9.07-7.59-3.58-7.69-9.07C1424.55,840.65,1427.11,837.62,1432.33,837.62Zm-.09,15.94c4,.09,4.85-2.84,4.85-6.87s-.73-6.87-4.67-6.87-4.85,2.93-4.85,6.87.91,6.78,4.67,6.87"/>
      <path id="ab-6" d="M1452.2,837.87c8.16-.36,4.86,10.38,5.5,17.36h-2.93V844.4c0-2.77-.73-4.38-3.57-4.29-6.6.18-4,9.13-4.5,15.12h-2.93l-.09-17h2.75a13.75,13.75,0,0,0,.18,2.86c1-2,2.66-3.13,5.59-3.22"/>
    </g>
    <g id="k">
      <path id="aa-7" d="M1481.88,852.09c-1.37,1.93-2.84,3.76-6.23,3.67s-5.32-1.93-5.32-5.22c-.09-5.86,5.77-5.77,11.45-5.77.28-3.21-.82-4.95-3.75-4.95-2.2.09-3.76.64-3.85,2.84l-3-.27c.46-3.39,3-4.77,7-4.77s6.59,1.84,6.64,5.86V851c-.14,1.84.59,2.93,3,2.48v1.83C1484.45,856.12,1481.7,855.12,1481.88,852.09Zm-8.52-1.55a2.77,2.77,0,0,0,2.51,3,3.05,3.05,0,0,0,.43,0c3.75-.28,5.77-2.66,5.49-6.78-3.94.18-8.43-.46-8.43,3.76"/>
    </g>
    <g id="l">
      <path id="ai-2" d="M1505.69,834.23c-2.84-.82-3.84.92-3.48,4h3.56v2h-3v15h-3v-15h-3v-2h2.53c-.65-4.52,1.6-7.13,6.47-5.91v1.91"/>
      <path id="ah-2" d="M1515.77,840.65c-7-1.44-4.76,8.14-5.12,14.58h-2.88l-.09-17h2.7a20.42,20.42,0,0,0,.18,3.49c.54-2.42,2.06-4.38,5.21-3.67v2.18"/>
      <path id="at" d="M1524.43,855.59c-8.16.36-5-10.38-5.59-17.36h2.93V849c0,2.77.64,4.47,3.57,4.38,6.6-.18,4.13-9,4.59-15.12h2.84l.08,17h-2.75a15,15,0,0,0-.18-3,5.73,5.73,0,0,1-5.5,3.31"/>
      <path id="ad-5" d="M1536.77,834.23v-3h3v3Zm0,21v-17h3v17h-3"/>
      <path id="ag-5" d="M1547.29,851.09c-.19,2.19,1.65,2.65,3.48,2v2.14c-2.83.86-6,.43-6-3.34V840.23h-2v-2H1545l.83-4h1.94v4h3v2h-3v11"/>
      <path id="au" d="M1551.26,855.23l6.52-24h2.53l-6.52,24h-3"/>
    </g>
    <g id="m">
      <path id="av" d="M1389.77,895.23h-3.09l-6.17-17h3l4.82,14.76,5-14.76h3.38"/>
      <path id="ae-4" d="M1405.86,877.52c5.78,0,7.88,3.85,7.69,9.71h-12.36c0,3.66,1.28,6.14,4.85,6.23a4.27,4.27,0,0,0,4.49-2.66l2.57.73c-1,2.57-3.39,4.13-7.06,4.13-5.31,0-8-3.39-8-9.16C1398.18,880.91,1400.46,877.52,1405.86,877.52Zm4.77,6.71c.55-5.49-7-7-8.89-2.56a7,7,0,0,0-.55,2.56h9.57"/>
      <path id="ak-2" d="M1430.79,877.23c-.91,11.45,3.76,26.83-10.07,23.9a5.22,5.22,0,0,1-4-3.94l2.93-.45c1.37,4.3,9.16,2.93,8.15-2.57v-2.75a5.81,5.81,0,0,1-5.59,3.3c-4.94,0-6.22-3.75-6.22-8.79s1.46-8.88,6.5-9a5.88,5.88,0,0,1,5.4,3.2c.09-.92,0-2.11.18-2.93Zm-7.15,15.71c3.29,0,4.57-2.93,4.57-6.69s-1.29-6.87-4.57-6.87c-3.57,0-4.21,3.12-4.21,6.87s.54,6.69,4.21,6.69"/>
      <path id="ae-5" d="M1442.49,877.52c5.78,0,7.89,3.85,7.7,9.71h-12.37c0,3.66,1.28,6.14,4.86,6.23a4.25,4.25,0,0,0,4.48-2.66l2.57.73c-1,2.57-3.39,4.13-7,4.13-5.32,0-8.06-3.39-8-9.16C1434.81,880.91,1437.09,877.52,1442.49,877.52Zm4.78,6.71c.54-5.49-7-7-8.89-2.56a6.76,6.76,0,0,0-.56,2.56h8.94"/>
      <path id="ag-6" d="M1457.29,890.65c-.19,2.2,1.65,2.65,3.48,2v2.12c-2.83.85-6,.42-6-3.35V879.23h-3v-2H1454l.83-4h1.94v4h3v2h-3v11"/>
      <path id="aa-8" d="M1473.72,891.66c-1.37,1.92-2.83,3.75-6.23,3.66s-5.31-1.92-5.31-5.22c-.09-5.86,5.77-5.77,11.45-5.77.27-3.21-.82-5-3.75-5-2.2.1-3.76.64-3.85,2.84l-3-.27c.45-3.39,3-4.76,7-4.76s6.59,1.83,6.79,5.86v7.51c-.29,1.83.44,2.93,3,2.47v1.83C1476.3,895.68,1473.55,894.68,1473.72,891.66Zm-8.52-1.56a2.77,2.77,0,0,0,2.53,3h.41c3.75-.27,5.76-2.66,5.49-6.78-3.94.19-8.43-.45-8.43,3.76"/>
      <path id="aw" d="M1489.13,877.39c4.81,0,6.28,3.59,6.36,9,0,6.07-2.08,9.2-6.36,9.2-2.82-.09-4.45-1-5.36-3.13l-.19,2.76h-2.81l.08-24h2.92v9.29C1484.68,878.4,1486.32,877.39,1489.13,877.39Zm-.2,15.73c3.67,0,4.12-3.11,4.12-6.87s-.45-6.87-4.12-6.77c-3.84,0-4.67,2.93-4.67,7s.92,6.68,4.67,6.68"/>
      <path id="aj-6" d="M1499.77,895.23v-24h3v24h-3"/>
      <path id="ae-6" d="M1513.83,877.52c5.77,0,7.88,3.85,7.7,9.71h-12.37c0,3.66,1.28,6.14,4.86,6.23a4.25,4.25,0,0,0,4.48-2.66l2.57.73c-1,2.57-3.39,4.13-7,4.13-5.32,0-8.06-3.39-8-9.16C1506.15,880.91,1508.44,877.52,1513.83,877.52Zm4.77,6.71c.55-5.49-7-7-8.89-2.56a6.76,6.76,0,0,0-.55,2.56h9.6"/>
    </g>
    <path class="cls-7" d="M874.92,810.09c-3.68-4.06-2.19-7.36,3.25-7.36h277.2a9.9,9.9,0,0,1,9.9,9.9h0v112.2a9.91,9.91,0,0,1-9.9,9.9H878.17c-5.44,0-6.93-3.3-3.25-7.36l46.15-51.28a11.26,11.26,0,0,0,0-14.72Z"/>
    <g id="f-3">
      <path id="Z-4" d="M969.3,839c-.9-2.57-3.2-4.12-6.67-4.12-5.41,0-8,3.66-8,9.06s2.65,9.25,8.15,9.25c3.94,0,5.68-2.2,7.15-4.76l2.47,1.28a10.12,10.12,0,0,1-9.8,6c-7.33,0-10.72-4.58-11.08-11.82-.55-9.52,9.06-14,17.12-10.16a7.48,7.48,0,0,1,3.58,4.21"/>
      <path id="aj-7" d="M975.77,855.23v-24h3v24h-3"/>
      <path id="ad-6" d="M982.77,834.23v-3h3v3Zm0,21v-17h3v17h-3"/>
      <path id="an-5" d="M996.88,839.91c-3.66,0-4.41,3-4.41,6.69s.83,6.87,4.41,6.87a3.67,3.67,0,0,0,3.93-3.37.37.37,0,0,1,0-.11l2.92.18c-.54,3.39-2.84,5.59-6.78,5.59-5.4,0-7-3.76-7.51-9.07-.91-8.52,9.25-12,13.46-5.86a7.7,7.7,0,0,1,.66,2l-2.94.28a3.5,3.5,0,0,0-3.75-3.21"/>
      <path id="ap-4" d="M1017.73,855.39l-5.85-8-2.11,1.74v6.1h-3v-24h3v15.23l7.43-8.23h3.31l-6.9,7.34,7.34,9.66h-3.18"/>
    </g>
    <g id="g-3">
      <path id="ao-6" d="M1039.36,837.62c5.69-.09,7.8,3.39,7.8,9.07s-2.48,9.07-7.88,9.07-7.6-3.58-7.69-9.07C1031.58,840.65,1034.15,837.62,1039.36,837.62Zm-.08,15.94c4,.09,4.85-2.84,4.85-6.87s-.73-6.87-4.68-6.87-4.85,2.93-4.85,6.87.93,6.78,4.68,6.87"/>
      <path id="ab-7" d="M1059.2,837.87c8.16-.36,4.86,10.38,5.5,17.36h-2.93V844.4c0-2.77-.73-4.38-3.57-4.29-6.61.18-4,9.13-4.5,15.12h-2.93l-.09-17h2.75a13.75,13.75,0,0,0,.18,2.86c1-2,2.66-3.13,5.59-3.22"/>
    </g>
    <g id="n">
      <path id="aa-9" d="M1088.92,852.09c-1.38,1.93-2.84,3.76-6.23,3.67s-5.31-1.93-5.31-5.22c-.09-5.86,5.77-5.77,11.44-5.77.27-3.21-.83-4.95-3.76-4.95-2.2.09-3.75.64-3.85,2.84l-3-.27c.46-3.39,3-4.77,7-4.77s6.6,1.84,6.61,5.86V851c-.11,1.84.63,2.93,3,2.48v1.83C1091.47,856.12,1088.72,855.12,1088.92,852.09Zm-8.52-1.55a2.77,2.77,0,0,0,2.52,3h.41c3.76-.28,5.77-2.66,5.5-6.78-3.94.18-8.43-.46-8.43,3.76"/>
      <path id="ab-8" d="M1105.2,837.87c8.16-.36,4.86,10.38,5.5,17.36h-2.93V844.4c0-2.77-.73-4.38-3.57-4.29-6.6.18-4,9.13-4.5,15.12h-2.93l-.09-17h2.75a13.75,13.75,0,0,0,.18,2.86c1-2,2.66-3.13,5.59-3.22"/>
      <path id="as-2" d="M1129,838.23l-7.87,20.24c-1.29,2.56-3.39,4.67-7.43,3.85v-2.2c3.57.55,4.85-1.83,5.86-4.58l-6.82-17.31h3.12l5.21,14.29,4.93-14.29h2.72"/>
    </g>
    <g id="o">
      <path id="ao-7" d="M962.63,877.23c5.67-.1,7.78,3.38,7.78,9.06s-2.47,9.07-7.87,9.07-7.6-3.57-7.69-9.07C954.85,880.23,957.41,877.23,962.63,877.23Zm-.1,15.93c4,.09,4.85-2.84,4.85-6.87s-.73-6.87-4.67-6.87-4.85,2.93-4.85,6.87.91,6.78,4.67,6.87"/>
      <path id="ag-7" d="M977.29,890.65c-.18,2.2,1.65,2.65,3.48,2v2.12c-2.84.85-6,.42-6-3.35V879.23h-3v-2h2.66l.84-4h2.5v4h3v2h-3v11"/>
      <path id="ax" d="M990.65,879.75c-6.6,0-4,9.34-4.48,15.48h-3.4v-24h3l-.1,9.47a5.74,5.74,0,0,1,5.54-3.31c8.1,0,4.82,10.67,5.46,17.84h-2.9V883.87c.18-2.93-.73-4.49-3.57-4.39"/>
      <path id="ae-7" d="M1008.42,877.52c5.77,0,7.87,3.85,7.69,9.71h-12.36c0,3.66,1.28,6.14,4.85,6.23a4.29,4.29,0,0,0,4.49-2.66l2.56.73c-1,2.57-3.38,4.13-7,4.13-5.31,0-8.06-3.39-8-9.16C1000.73,880.91,1003,877.52,1008.42,877.52Zm4.76,6.71c.55-5.49-7-7-8.88-2.56a6.23,6.23,0,0,0-.55,2.56h9"/>
      <path id="ah-3" d="M1027.77,880.65c-7-1.44-4.76,8.14-5.12,14.58h-2.88l-.1-17h2.71a21.48,21.48,0,0,0,.17,3.49c.54-2.42,2.06-4.38,5.22-3.67v2.18"/>
    </g>
    <g id="j-2">
      <path id="an-6" d="M1046.42,879.48c-3.66,0-4.39,3-4.39,6.68s.81,6.87,4.39,6.87a3.66,3.66,0,0,0,3.93-3.33v-.15l2.94.18c-.56,3.39-2.84,5.59-6.77,5.59-5.42,0-7-3.76-7.51-9.07-.93-8.51,9.25-12,13.45-5.86a7,7,0,0,1,.64,2l-2.93.27a3.5,3.5,0,0,0-3.76-3.2"/>
      <path id="aa-10" d="M1067,891.66c-1.37,1.92-2.84,3.75-6.23,3.66s-5.32-1.92-5.32-5.22c-.08-5.86,5.77-5.77,11.45-5.77.27-3.21-.83-5-3.76-5-2.19.1-3.75.64-3.84,2.84l-3-.27c.46-3.39,3-4.76,7-4.76s6.6,1.83,6.5,5.86v7.51c0,1.83.74,2.93,3,2.47v1.83C1069.58,895.68,1066.84,894.68,1067,891.66Zm-8.53-1.56a2.78,2.78,0,0,0,2.53,3h.41c3.76-.27,5.77-2.66,5.5-6.78-3.94.19-8.44-.45-8.44,3.76"/>
      <path id="ab-9" d="M1083.2,877.87c8.16-.36,4.86,10.38,5.5,17.36h-2.93V884.4c0-2.77-.73-4.38-3.57-4.29-6.61.18-4,9.13-4.5,15.12h-2.93l-.09-17h2.75a13.75,13.75,0,0,0,.18,2.86c1-2,2.66-3.13,5.59-3.22"/>
      <path id="ac-6" d="M1098,877.39a6.19,6.19,0,0,1,5.82,3l-.1-9.2h3.1l.09,24H1104a20.85,20.85,0,0,0-.29-2.85c-1,2.11-2.71,3.22-5.71,3.22-5.13,0-6.67-3.59-6.77-9C1091.19,880.52,1093.42,877.39,1098,877.39Zm1.4,2c-3.67,0-4.21,3.12-4.21,6.87s.55,6.78,4.13,6.78c3.83,0,4.67-2.93,4.67-7,0-3.85-.83-6.78-4.58-6.69"/>
      <path id="as-3" d="M1125,877.23l-7.87,20.24c-1.29,2.56-3.39,4.67-7.43,3.85v-2.2c3.57.55,4.85-1.83,5.86-4.58l-6.82-17.31h3.12l5.21,14.29,4.93-14.29h2.72"/>
    </g>
    <path class="cls-7" d="M476.07,1033.73a19.79,19.79,0,0,0-19.8,19.8v59.4a19.81,19.81,0,0,0,19.8,19.8H733.46a19.78,19.78,0,0,0,19.8-19.76v-59.44a19.77,19.77,0,0,0-19.76-19.8H476.07Z"/>
    <g id="p">
      <path id="ay" d="M537.77,1069.23v8h13v3h-13v9h-3v-23h16v3h-13"/>
      <path id="aa-11" d="M564.9,1086.17c-1.37,1.92-2.85,3.75-6.23,3.66s-5.31-1.92-5.31-5.22c-.09-5.86,5.77-5.77,11.45-5.77.28-3.2-.82-4.94-3.75-4.94-2.2.09-3.76.64-3.85,2.84l-3-.28c.46-3.39,3-4.76,7-4.76s6.59,1.83,6.62,5.86v7.51c-.12,1.83.61,2.93,3,2.47v1.83C567.47,1090.23,564.72,1089.23,564.9,1086.17Zm-8.51-1.56a2.76,2.76,0,0,0,2.5,3,3.05,3.05,0,0,0,.43,0c3.75-.27,5.77-2.65,5.48-6.77-3.94.18-8.41-.46-8.41,3.75"/>
      <path id="ac-7" d="M578,1071.39a6.19,6.19,0,0,1,5.81,3l-.1-9.2h3.1l.09,24H584a24.56,24.56,0,0,0-.29-2.85c-1,2.11-2.71,3.22-5.71,3.22-5.13,0-6.67-3.59-6.78-9C571.18,1074.52,573.42,1071.39,578,1071.39Zm.95,2.51c-3.66,0-4.21,3.11-4.21,6.87s.54,6.77,4.12,6.77c3.84,0,4.66-2.93,4.66-7,0-3.84-.82-6.77-4.58-6.68"/>
      <path id="ae-8" d="M597.78,1071.52c5.77,0,7.87,3.85,7.69,9.71H593.11c0,3.66,1.28,6.14,4.85,6.23a4.29,4.29,0,0,0,4.49-2.66l2.56.73c-1,2.57-3.38,4.13-7,4.13-5.31,0-8.06-3.39-8-9.16C590.09,1074.91,592.38,1071.52,597.78,1071.52Zm4.76,7.71c.55-5.49-7-7-8.88-2.56a6.23,6.23,0,0,0-.55,2.56h9.66"/>
      <path id="af-5" d="M619.3,1076.37c-.27-3.11-7.88-3.48-8,0,1.38,4.85,10.53,1.1,10.9,8.24s-13.74,6.78-14.38.73l2.57-.45c.36,3.29,8.88,4.12,9,0-.91-5.13-10.35-1.38-10.8-8.25-.37-5.22,7.5-5.76,11.17-3.84a4.64,4.64,0,0,1,2.2,3.2"/>
    </g>
    <g id="q">
      <path id="ao-8" d="M641.73,1071.7c5.67-.09,7.79,3.39,7.79,9.07s-2.47,9.06-7.87,9.06-7.61-3.57-7.7-9.06C634,1074.72,636.52,1071.7,641.73,1071.7Zm-.09,15.93c4,.1,4.85-2.83,4.85-6.86s-.73-6.87-4.67-6.87-4.86,2.93-4.86,6.87.92,6.77,4.68,6.86"/>
      <path id="at-2" d="M658.42,1089.59c-8.15.36-4.95-10.38-5.59-17.36h2.93V1083c0,2.77.64,4.47,3.57,4.38,6.61-.18,4.13-9,4.59-15.12h2.85l.09,17h-2.75a16.68,16.68,0,0,0-.18-3,5.75,5.75,0,0,1-5.5,3.31"/>
      <path id="ag-8" d="M674.29,1085.16c-.18,2.2,1.65,2.66,3.48,2v2.11c-2.84.86-6,.43-6-3.34v-11.7h-2v-2H672l.84-4h1.94v4h3v2h-3v11"/>
    </g>
    <path class="cls-7" d="M868.27,1053.51V1113A19.79,19.79,0,0,0,888,1132.73h257.43a19.79,19.79,0,0,0,19.78-19.78v-59.44a19.77,19.77,0,0,0-19.78-19.78H888A19.78,19.78,0,0,0,868.27,1053.51Z"/>
    <g id="p-2">
      <path id="ay-2" d="M949.77,1069.23v8h13v3h-13v9h-3v-23h16v3h-13"/>
      <path id="aa-12" d="M976.7,1086.17c-1.37,1.92-2.85,3.75-6.22,3.66s-5.32-1.92-5.32-5.22c-.09-5.86,5.77-5.77,11.45-5.77.28-3.2-.82-4.94-3.75-4.94-2.2.09-3.76.64-3.85,2.84l-3-.28c.46-3.39,3-4.76,7-4.76s6.59,1.83,6.82,5.86v7.51c-.32,1.83.41,2.93,3,2.47v1.83C979.27,1090.23,976.52,1089.23,976.7,1086.17Zm-8.52-1.56a2.78,2.78,0,0,0,2.53,3h.4c3.75-.27,5.78-2.65,5.49-6.77-3.94.18-8.42-.46-8.42,3.75"/>
      <path id="ac-8" d="M990,1071.39a6.19,6.19,0,0,1,5.81,3l-.1-9.2h3.1l.09,24H996a24.56,24.56,0,0,0-.29-2.85c-1,2.11-2.71,3.22-5.71,3.22-5.13,0-6.67-3.59-6.78-9C983.18,1074.52,985.42,1071.39,990,1071.39Zm.76,2.51c-3.67,0-4.22,3.11-4.22,6.87s.55,6.77,4.12,6.77c3.85,0,4.67-2.93,4.67-7,0-3.84-.82-6.77-4.57-6.68"/>
      <path id="ae-9" d="M1009.58,1071.52c5.77,0,7.88,3.85,7.69,9.71h-12.36c0,3.66,1.28,6.14,4.85,6.23a4.27,4.27,0,0,0,4.48-2.66l2.58.73c-1,2.57-3.4,4.13-7.06,4.13-5.31,0-8.06-3.39-8-9.16C1001.89,1074.91,1004.17,1071.52,1009.58,1071.52Zm4.76,7.71c.55-5.49-7-7-8.88-2.56a6.23,6.23,0,0,0-.55,2.56h9.86"/>
      <path id="af-6" d="M1031.09,1076.37c-.27-3.11-7.87-3.48-8,0,1.38,4.85,10.55,1.1,10.9,8.24s-13.72,6.78-14.38.73l2.57-.45c.36,3.29,8.88,4.12,9,0-.91-5.13-10.35-1.38-10.8-8.25-.37-5.22,7.51-5.76,11.17-3.84a4.58,4.58,0,0,1,2.2,3.2"/>
    </g>
    <g id="q-2">
      <path id="ao-9" d="M1053.54,1071.7c5.68-.09,7.78,3.39,7.78,9.07s-2.47,9.06-7.87,9.06-7.6-3.57-7.7-9.06C1045.74,1074.72,1048.32,1071.7,1053.54,1071.7Zm-.09,15.93c4,.1,4.85-2.83,4.85-6.86s-.73-6.87-4.67-6.87-4.85,2.93-4.85,6.87.91,6.77,4.67,6.86"/>
      <path id="at-3" d="M1070.43,1089.59c-8.16.36-5-10.38-5.59-17.36h2.93V1083c0,2.77.64,4.47,3.57,4.38,6.61-.18,4.13-9,4.59-15.12h2.84l.08,17h-2.75a15,15,0,0,0-.18-3,5.73,5.73,0,0,1-5.5,3.31"/>
      <path id="ag-9" d="M1086.29,1085.16c-.19,2.2,1.65,2.66,3.48,2v2.11c-2.83.86-6,.43-6-3.34v-11.7h-2v-2H1084l.83-4h1.94v4h3v2h-3v11"/>
    </g>
    <path class="cls-7" d="M1301.07,1033.73a19.79,19.79,0,0,0-19.8,19.8v59.4a19.81,19.81,0,0,0,19.8,19.8h257.4a19.79,19.79,0,0,0,19.8-19.76v-59.44a19.78,19.78,0,0,0-19.76-19.8H1301.07Z"/>
    <g id="r">
      <path id="az" d="M1310.33,1066.48c7.43,0,11.27,4.21,11.27,11.54,0,6.59-3.2,10.71-9.16,11.54.64,2.74,2.75,4.39,6.32,3.66v2.11c-5,1.46-8.7-1.38-9.43-5.59-6.69-.55-10.26-4.67-10.26-11.72C1299.08,1070.69,1302.93,1066.48,1310.33,1066.48Zm.2,20.79c5.77,0,8.15-3.76,8.15-9.25s-2.66-9.07-8.15-9.07-8.15,3.57-8.15,9.07,2.56,9.16,8.15,9.25"/>
      <path id="at-4" d="M1331.43,1089.59c-8.16.36-5-10.38-5.59-17.36h2.93V1083c0,2.77.64,4.47,3.57,4.38,6.6-.18,4.13-9,4.59-15.12h2.84l.08,17h-2.75a15,15,0,0,0-.18-3,5.73,5.73,0,0,1-5.5,3.31"/>
      <path id="ad-7" d="M1343.77,1068.23v-3h3v3Zm0,21v-17h3v17h-3"/>
      <path id="an-7" d="M1357.7,1074c-3.66,0-4.39,3-4.39,6.68s.82,6.87,4.39,6.87a3.66,3.66,0,0,0,3.93-3.33.76.76,0,0,1,0-.15l2.93.19c-.55,3.38-2.84,5.58-6.78,5.58-5.4,0-7-3.75-7.51-9.06-.92-8.52,9.25-12,13.46-5.87a8.08,8.08,0,0,1,.65,2l-2.94.27a3.5,3.5,0,0,0-3.76-3.2"/>
      <path id="ap-5" d="M1378.73,1089.47l-5.85-8-2.11,1.74v6h-3v-24h3v15.23l7.43-8.23h3.31l-6.89,7.34,7.33,9.66h-3.18"/>
      <path id="aj-8" d="M1383.77,1089.23v-24h3v24h-3"/>
      <path id="as-4" d="M1405,1072.23l-7.87,20.24c-1.29,2.56-3.39,4.67-7.43,3.85v-2.2c3.57.55,4.85-1.83,5.86-4.58l-6.87-17.31h3.12l5.22,14.29,5-14.29h2.72"/>
    </g>
    <g id="s">
      <path id="ai-3" d="M1424,1068.23c-2.83-.82-3.84.92-3.48,4h3.25v2h-3v15h-3v-15h-3v-2h2.53c-.66-4.52,1.59-7.13,6.47-5.91v1.91"/>
      <path id="aa-13" d="M1436.83,1086.17c-1.38,1.92-2.84,3.75-6.23,3.66s-5.31-1.92-5.31-5.22c-.1-5.86,5.77-5.77,11.43-5.77.29-3.2-.81-4.94-3.75-4.94-2.19.09-3.76.64-3.84,2.84l-3-.28c.45-3.39,3-4.76,7-4.76s6.58,1.83,6.69,5.86v7.51c-.19,1.83.54,2.93,3,2.47v1.83C1439.39,1090.23,1436.64,1089.23,1436.83,1086.17Zm-8.52-1.56a2.77,2.77,0,0,0,2.52,3h.41c3.75-.27,5.77-2.65,5.49-6.77-3.93.18-8.42-.46-8.42,3.75"/>
      <path id="aj-9" d="M1444.77,1089.23v-24h3v24h-3"/>
      <path id="aj-10" d="M1451.77,1089.23v-24h3v24h-3"/>
      <path id="af-7" d="M1469,1076.37c-.28-3.11-7.87-3.48-8,0,1.38,4.85,10.54,1.1,10.9,8.24s-13.74,6.78-14.38.73l2.56-.45c.36,3.29,8.88,4.12,9,0-.91-5.13-10.34-1.38-10.8-8.25-.37-5.22,7.51-5.76,11.17-3.84a4.58,4.58,0,0,1,2.2,3.2"/>
    </g>
    <g id="t">
      <path id="ac-9" d="M1490,1071.39a6.19,6.19,0,0,1,5.82,3l-.1-9.2h3.1l.09,24H1496a20.85,20.85,0,0,0-.29-2.85c-1,2.11-2.71,3.22-5.71,3.22-5.13,0-6.67-3.59-6.77-9C1483.19,1074.52,1485.42,1071.39,1490,1071.39Zm1,2.51c-3.66,0-4.21,3.11-4.21,6.87s.56,6.77,4.12,6.77c3.84,0,4.68-2.93,4.68-7,0-3.84-.83-6.77-4.58-6.68"/>
      <path id="ao-10" d="M1509.81,1071.7c5.68-.09,7.79,3.39,7.79,9.07s-2.47,9.06-7.88,9.06-7.6-3.57-7.69-9.06C1502,1074.72,1504.58,1071.7,1509.81,1071.7Zm-.09,15.93c4,.1,4.86-2.83,4.86-6.86s-.74-6.87-4.67-6.87-4.86,2.93-4.86,6.87.92,6.77,4.67,6.86"/>
      <path id="aA-14" d="M1537.77,1089.23h-3.32l-3.57-14.67-3.68,14.67H1524l-4.83-17H1522l3.49,14.67,3.84-14.67h3l3.68,14.67,3.75-14.67h3"/>
      <path id="ab-10" d="M1553.2,1071.87c8.16-.36,4.86,10.38,5.5,17.36h-2.93V1078.4c0-2.77-.73-4.38-3.57-4.29-6.6.18-4,9.13-4.5,15.12h-2.93l-.09-17h2.75a13.75,13.75,0,0,0,.18,2.86c1-2,2.66-3.13,5.59-3.22"/>
    </g>
    <path class="cls-7" d="M2011.66,875.57a9.88,9.88,0,0,1,14,0l0,0,19,19a9.89,9.89,0,0,1,0,14v0l-19,19a9.9,9.9,0,0,1-14,0h0l-19-19a9.89,9.89,0,0,1,0-14Zm-322.39,177.94V1113a19.79,19.79,0,0,0,19.75,19.78h257.43a19.79,19.79,0,0,0,19.78-19.78v-59.44a19.77,19.77,0,0,0-19.78-19.78H1709A19.78,19.78,0,0,0,1689.27,1053.51Z"/>
    <g id="u">
      <path id="aB-11" d="M1729.77,1089.23v-22h3v20h11v2h-14"/>
      <path id="ae-10" d="M1754.11,1071.52c5.78,0,7.88,3.85,7.7,9.71h-12.37c0,3.66,1.29,6.14,4.86,6.23a4.28,4.28,0,0,0,4.49-2.66l2.56.73c-1,2.57-3.39,4.13-7,4.13-5.31,0-8.06-3.39-8-9.16C1746.43,1074.91,1748.71,1071.52,1754.11,1071.52Zm4.78,7.71c.55-5.49-7-7-8.9-2.56a7,7,0,0,0-.55,2.56h9.32"/>
      <path id="av-2" d="M1772.77,1089.23h-3l-6.19-17h3l4.84,14.76,5-14.76h3.32"/>
      <path id="ae-11" d="M1788.92,1071.52c5.77,0,7.88,3.85,7.69,9.71h-12.37c0,3.66,1.3,6.14,4.86,6.23a4.28,4.28,0,0,0,4.49-2.66l2.57.73c-1,2.57-3.39,4.13-7.06,4.13-5.31,0-8.06-3.39-8-9.16C1781.22,1074.91,1783.52,1071.52,1788.92,1071.52Zm4.77,7.71c.55-5.49-7-7-8.89-2.56a6.76,6.76,0,0,0-.56,2.56h9.53"/>
      <path id="aj-11" d="M1799.77,1089.23v-24h3v24h-3"/>
    </g>
    <g id="v">
      <path id="an-8" d="M1823.27,1074c-3.68,0-4.41,3-4.41,6.68s.83,6.87,4.41,6.87a3.65,3.65,0,0,0,3.92-3.34.61.61,0,0,1,0-.14l2.94.19c-.56,3.38-2.84,5.58-6.79,5.58-5.4,0-7-3.75-7.51-9.06-.92-8.52,9.25-12,13.46-5.87a7,7,0,0,1,.64,2l-2.93.27a3.49,3.49,0,0,0-3.75-3.2"/>
      <path id="ao-11" d="M1840.11,1071.7c5.69-.09,7.79,3.39,7.79,9.07s-2.47,9.06-7.87,9.06-7.61-3.57-7.7-9.06C1832.33,1074.72,1834.9,1071.7,1840.11,1071.7Zm-.08,15.93c4,.1,4.85-2.83,4.85-6.86s-.73-6.87-4.68-6.87-4.85,2.93-4.85,6.87.92,6.77,4.68,6.86"/>
      <path id="aC-10" d="M1868.51,1073.75c-6.15.28-3.48,9.62-4,15.48h-2.71v-11.08c0-2.66-.46-4.58-3.21-4.4-6,.37-3.48,9.53-4,15.48h-2.77l-.09-17h2.73a13.75,13.75,0,0,0,.18,2.86c.91-3.93,9-4.47,9.73,0a5.55,5.55,0,0,1,5.27-3.22c7.73-.18,4.27,10.65,5,17.36h-2.82v-10.85c0-2.65-.46-4.48-3.21-4.39"/>
      <path id="aq-2" d="M1887.58,1071.87c5.32.09,6.77,3.71,6.77,8.87s-1.55,8.88-6.77,9.06c-3,0-4.75-1.18-5.81-3.08l.09,9.51h-3.09l-.1-24h3l.19,2.72C1882.83,1073.05,1884.58,1071.87,1887.58,1071.87Zm-1.12,15.76c3.66,0,4.12-3.11,4.12-6.86s-.55-6.69-4.12-6.78c-3.85,0-4.67,2.93-4.67,7s.91,6.68,4.67,6.68"/>
      <path id="aj-12" d="M1896.77,1089.23v-24h3v24h-3"/>
      <path id="ae-12" d="M1911.36,1071.52c5.78,0,7.87,3.85,7.69,9.71h-12.36c0,3.66,1.28,6.14,4.85,6.23a4.28,4.28,0,0,0,4.49-2.66l2.56.73c-1,2.57-3.39,4.13-7,4.13-5.31,0-8.06-3.39-8-9.16C1903.67,1074.91,1906,1071.52,1911.36,1071.52Zm4.77,7.71c.55-5.49-7-7-8.9-2.56a7,7,0,0,0-.54,2.56h9.07"/>
      <path id="ag-10" d="M1925.29,1085.16c-.19,2.2,1.65,2.66,3.48,2v2.11c-2.83.86-6,.43-6-3.34v-11.7h-2v-2H1923l.83-4h1.94v4h3v2h-3v11"/>
      <path id="ae-13" d="M1938.83,1071.52c5.77,0,7.88,3.85,7.69,9.71h-12.36c0,3.66,1.28,6.14,4.85,6.23a4.28,4.28,0,0,0,4.49-2.66l2.56.73c-1,2.57-3.38,4.13-7,4.13-5.31,0-8.06-3.39-8-9.16C1931.15,1074.91,1933.44,1071.52,1938.83,1071.52Zm4.76,7.71c.56-5.49-7-7-8.88-2.56a6.57,6.57,0,0,0-.55,2.56h9.6"/>
    </g>
    <path class="cls-7" d="M2051.27,1053.51V1113a19.79,19.79,0,0,0,19.75,19.78h257.43a19.79,19.79,0,0,0,19.78-19.78v-59.44a19.77,19.77,0,0,0-19.78-19.78H2071A19.78,19.78,0,0,0,2051.27,1053.51Z"/>
    <g id="w">
      <path id="aD-8" d="M2131.54,1089.83c-7.51,0-11.1-4.39-11.45-11.81-.46-9.8,9.15-14.1,17.67-10.17a7.56,7.56,0,0,1,3.38,3.94l-2.93.83c-1.18-2.29-3.38-3.67-7-3.67-5.59,0-8.06,3.57-8.06,9.07s2.66,9.16,8.34,9.25a10.46,10.46,0,0,0,7.23-2.47v-3.57h-7v-3h10V1086a13.74,13.74,0,0,1-10.07,3.84"/>
      <path id="aa-15" d="M2157.12,1086.17c-1.38,1.92-2.84,3.75-6.23,3.66s-5.31-1.92-5.31-5.22c-.1-5.86,5.77-5.77,11.45-5.77.27-3.2-.84-4.94-3.76-4.94-2.2.09-3.75.64-3.85,2.84l-3-.28c.46-3.39,3-4.76,7-4.76s6.61,1.83,6.41,5.86v7.51c.1,1.83.83,2.93,3,2.47v1.83C2159.67,1090.23,2156.92,1089.23,2157.12,1086.17Zm-8.52-1.56a2.77,2.77,0,0,0,2.52,3h.41c3.76-.27,5.77-2.65,5.5-6.77-3.94.18-8.43-.46-8.43,3.75"/>
      <path id="aC-11" d="M2181.74,1073.75c-6.12.28-3.47,9.62-4,15.48h-2.94v-11.08c0-2.66-.46-4.58-3.21-4.4-6,.37-3.48,9.53-4,15.48h-2.77l-.1-17h2.73a15.27,15.27,0,0,0,.18,2.86c.91-3.93,9-4.47,9.73,0a5.57,5.57,0,0,1,5.27-3.22c7.73-.18,4.27,10.65,5,17.36h-2.82v-10.85c0-2.65-.46-4.48-3.21-4.39"/>
      <path id="ae-14" d="M2199,1071.52c5.77,0,7.87,3.85,7.68,9.71h-12.36c0,3.66,1.28,6.14,4.85,6.23a4.27,4.27,0,0,0,4.49-2.66l2.58.73c-1,2.57-3.39,4.13-7.07,4.13-5.31,0-8-3.39-8-9.16C2191.37,1074.91,2193.65,1071.52,2199,1071.52Zm4.76,7.71c.55-5.49-7-7-8.88-2.56a6.57,6.57,0,0,0-.55,2.56h9.37"/>
    </g>
    <g id="x">
      <path id="ao-12" d="M2226.53,1071.7c5.67-.09,7.79,3.39,7.79,9.07s-2.47,9.06-7.88,9.06-7.6-3.57-7.69-9.06C2218.74,1074.72,2221.31,1071.7,2226.53,1071.7Zm-.1,15.93c4,.1,4.87-2.83,4.87-6.86s-.74-6.87-4.67-6.87-4.86,2.93-4.86,6.87.91,6.77,4.66,6.86"/>
      <path id="av-3" d="M2245.77,1089.23h-3.63l-6.18-17h3l4.85,14.76,5-14.76h2.9"/>
      <path id="ae-15" d="M2261.33,1071.52c5.77,0,7.87,3.85,7.7,9.71h-12.38c0,3.66,1.29,6.14,4.87,6.23a4.29,4.29,0,0,0,4.49-2.66l2.56.73c-1,2.57-3.39,4.13-7.05,4.13-5.32,0-8.07-3.39-8-9.16C2253.64,1074.91,2255.92,1071.52,2261.33,1071.52Zm4.77,7.71c.55-5.49-7-7-8.89-2.56a6.57,6.57,0,0,0-.55,2.56h9.11"/>
      <path id="ah-4" d="M2280.77,1074.65c-7-1.44-4.76,8.14-5.13,14.58h-2.87l-.1-17h2.7a22.68,22.68,0,0,0,.18,3.49c.54-2.42,2.06-4.38,5.21-3.67v2.18"/>
    </g>
    <path class="cls-7" d="M1422.36,1469a9.89,9.89,0,0,1,14,0v0l19,19a9.89,9.89,0,0,1,0,14l-19,19a9.91,9.91,0,0,1-14,0l-19-19a9.9,9.9,0,0,1,0-14h0Zm-121.3,124.73a19.81,19.81,0,0,0-19.8,19.8v59.4a19.82,19.82,0,0,0,19.8,19.8h257.4a19.79,19.79,0,0,0,19.81-19.76v-59.44a19.78,19.78,0,0,0-19.76-19.8H1301.06Z"/>
    <g id="w-2">
      <path id="aD-9" d="M1361.54,1650.3c-7.51,0-11.09-4.4-11.45-11.82-.46-9.8,9.16-14.1,17.67-10.16a7.64,7.64,0,0,1,3.39,3.93l-2.93.83c-1.19-2.29-3.39-3.66-7-3.66-5.59,0-8.06,3.57-8.06,9.06s2.66,9.16,8.33,9.25a10.46,10.46,0,0,0,7.23-2.47v-4h-7v-3h10v8.22a13.73,13.73,0,0,1-10.06,3.85"/>
      <path id="aa-16" d="M1386.49,1646.63c-1.36,1.93-2.83,3.76-6.21,3.67s-5.32-1.93-5.32-5.22c-.09-5.87,5.77-5.77,11.45-5.77.28-3.21-.82-5-3.75-5-2.2.09-3.76.64-3.85,2.84l-3-.28c.46-3.38,3-4.76,7-4.76s6.59,1.83,6,5.86v7.51c.48,1.83,1.21,2.93,3,2.48v1.83C1389.07,1650.66,1386.32,1649.65,1386.49,1646.63Zm-8.51-1.55a2.77,2.77,0,0,0,2.51,3,3.05,3.05,0,0,0,.43,0c3.75-.28,5.77-2.66,5.49-6.78-3.94.18-8.43-.46-8.43,3.76"/>
      <path id="aC-12" d="M1411.14,1634.75c-6.15.28-3.48,9.62-4,15.48l-2.34-1v-11.08c0-2.66-.46-4.58-3.21-4.4-6,.37-3.48,9.53-4,15.48h-3.76l-.09-17h2.73a13.75,13.75,0,0,0,.18,2.86c.91-3.93,9-4.47,9.73,0a5.55,5.55,0,0,1,5.27-3.22c7.73-.18,4.27,10.65,5,17.36h-2.82v-10.38c0-2.66-.46-4.49-3.21-4.4"/>
      <path id="ae-16" d="M1428.45,1632.52c5.77,0,7.87,3.85,7.69,9.71h-12.36c0,3.66,1.28,6.14,4.85,6.23a4.27,4.27,0,0,0,4.48-2.66l2.57.73c-1,2.57-3.39,4.13-7,4.13-5.32,0-8.07-3.39-8-9.16C1420.74,1635.91,1423,1632.52,1428.45,1632.52Zm4.76,6.71c.55-5.49-7-7-8.89-2.56a6.64,6.64,0,0,0-.54,2.56h9"/>
    </g>
    <g id="x-2">
      <path id="ao-13" d="M1455.92,1632.16c5.68-.09,7.78,3.39,7.78,9.07s-2.47,9.07-7.87,9.07-7.6-3.58-7.69-9.07C1448.14,1635.23,1450.7,1632.16,1455.92,1632.16Zm-.09,15.94c4,.09,4.85-2.84,4.85-6.87s-.73-6.87-4.67-6.87-4.85,2.93-4.85,6.87.91,6.78,4.67,6.87"/>
      <path id="av-4" d="M1474.77,1649.23h-3.24l-6.18-17h3l4.83,14.76,5-14.76h3.53"/>
      <path id="ae-17" d="M1490.71,1632.52c5.77,0,7.88,3.85,7.69,9.71H1486c0,3.66,1.28,6.14,4.84,6.23a4.28,4.28,0,0,0,4.49-2.66l2.57.73c-1,2.57-3.38,4.13-7,4.13-5.32,0-8.07-3.39-8-9.16C1483,1635.91,1485.32,1632.52,1490.71,1632.52Zm4.76,6.71c.56-5.49-7-7-8.88-2.56a6.57,6.57,0,0,0-.55,2.56h9.72"/>
      <path id="ah-5" d="M1509.77,1634.65c-7-1.44-4.76,8.14-5.12,14.58h-2.88l-.09-17h2.7a20.42,20.42,0,0,0,.18,3.49c.54-2.42,2.06-4.38,5.21-3.67v2.18"/>
    </g>
    <path class="cls-8" d="M1016.77,213.23v62"/>
    <path class="cls-3" d="M1017.17,211.53l1.6-.05v1.75h-3v-1.86Z"/>
    <path class="cls-9" d="M1017.23,300.74l-7.58-23.51h15.28Z"/>
    <path class="cls-8" d="M2018.77,774.23v66"/>
    <path class="cls-3" d="M2019.77,774.23h-3v-2h3Z"/>
    <path class="cls-9" d="M2018.65,864.75,2011,841.23h15.28Z"/>
    <path class="cls-3" d="M1838.77,1000.23h-3v-79h3Zm147-97h-31v-3h31Z"/>
    <path class="cls-3" d="M1987.23,902.23l.23,1h-1.69v-3h1.72Zm-149.9,123.51-7.65-23.51H1845Z"/>
    <path class="cls-3" d="M1837.33,1030.73l-9.89-30.5h19.78Zm-5.38-26.5,5.38,16.53,5.37-16.53Z"/>
    <g id="y">
      <path id="aE-18" d="M1742.77,915.23v-31h8v3h-4v25h4v3h-8"/>
      <path id="aF-8" d="M1752.77,906.23V902.6l13.7-5.36-13.7-5.35v-3.76l17,6.48v5.62"/>
      <path id="aG-11" d="M1772.77,895.23v-4h16v4Zm0,8v-4h16v4h-16"/>
    </g>
    <g id="z-5">
      <path id="aH-6" d="M1816.38,890.47c0,7.61-8.2,8.39-10.83,13.76h11.22v4h-17c-.58-9.85,9.66-9.76,11.7-17.56.1-2.15-1.17-3-3.21-3.12-2.24,0-3.12,1.36-3.42,3.31l-4.78-.29c.48-4.39,3.12-6.83,8.19-6.83s8.1,2.15,8.1,6.73"/>
      <path id="aI-4" d="M1830.33,900.7a3.74,3.74,0,0,0-6.68-2.47h-4.41l.84-13h13.69v3h-9.57l-.36,5.77c4-3.48,12.18-.37,11.17,6,1,9.44-15.48,10.72-16.39,1.84l4.48-.37a3.3,3.3,0,0,0,3.57,2.75c2.39,0,3.67-1.65,3.67-4.12"/>
    </g>
    <g id="A-2">
      <path id="aJ-13" d="M1857.72,890.87c4.81,0,6.34,4,6.34,8.87,0,5.07-1.72,8.88-6.61,9.06-2.81.09-4.06-1.54-5.34-3.08.28,3,.19,6.25.19,9.51h-4.53l-.09-24H1852a22.08,22.08,0,0,0,.27,2.81C1853.29,891.86,1854.92,890.87,1857.72,890.87Zm-2.2,14.52c3,0,3.56-2.84,3.66-6,0-3.48-.82-5.86-3.66-5.86-5.13,0-5,11.9,0,11.9"/>
      <path id="aK-3" d="M1875.2,890.37c5.86,0,8.79,3.3,8.79,9.07s-3.19,9.07-8.88,9.07-8.69-3.3-8.69-9.07S1869.53,890.37,1875.2,890.37Zm-.09,15c3.2,0,4.12-2.56,4.12-6,0-3.66-.92-6-3.93-6s-4.12,2.38-4.12,6c0,3.3.92,6,3.93,6"/>
      <path id="aL-2" d="M1887.77,887.23v-3h5v3Zm0,21v-17h5v17h-5"/>
      <path id="aM-2" d="M1906.6,890.87c7.8-.09,5.19,10.11,5.64,17.36h-4.46c-.63-5.1,2-14-3-14-5.29,0-3,8.68-3.49,14h-4.47l-.09-17h4.21c.17,1.07-.09,2.51.26,3.4,1.08-2.33,2.51-3.67,5.46-3.76"/>
      <path id="aN-9" d="M1924.73,907.86c-3.3,1.29-8,.65-8-3.84v-9.79h-2v-4h2.59l1.44-4h3v5h3v3h-3v8.6c-.4,2.1,3,2.29,3,2.29v3.11"/>
      <path id="aO-14" d="M1937.84,895.5c.09-2.65-6.41-3.11-6.5-.36,1.37,4.21,10.82.64,10.9,7.87.09,7.6-15,7-15.75.83l3.94-.65c.37,1.74,1.83,2.29,4,2.29,3,.74,5.22-2.74,2.2-3.75-3.94-1.28-9.34-1-9.53-6-.18-7.32,14.1-6.77,14.74-.64"/>
      <path id="aP-6" d="M1943.77,915.23v-3h4v-25h-4v-3h9v31h-9"/>
    </g>
    <path class="cls-3" d="M2201.77,1000.23h-3v-79h3Zm-150-97v-3h41v3Z"/>
    <path class="cls-3" d="M2051.74,903.23H2050l.27-2-.23-1h1.7ZM2200,1025.74l-7.69-23.51h15.28Z"/>
    <path class="cls-3" d="M2200,1030.73l-9.89-30.5h19.78Zm-5.38-26.5,5.38,16.53,5.37-16.53Z"/>
    <g id="B-2">
      <path id="aE-19" d="M2093.77,915.23v-31h9v3h-4v25h4v3h-9"/>
      <path id="aQ-3" d="M2104.77,900.23v-5.62l17-6.48v3.76L2108,897.23l13.82,5.36v3.64"/>
    </g>
    <g id="z-6">
      <path id="aH-7" d="M2148.38,890.47c0,7.61-8.2,8.39-10.83,13.76h11.22v4h-17c-.59-9.85,9.65-9.76,11.7-17.56.11-2.15-1.16-3-3.21-3.12-2.24,0-3.13,1.36-3.41,3.31l-4.78-.29c.48-4.39,3.12-6.83,8.19-6.83s8.1,2.15,8.1,6.73"/>
      <path id="aI-5" d="M2162.74,900.7a3.74,3.74,0,0,0-6.68-2.47h-4.4l.84-13h13.27v3h-9.16l-.36,5.77c4-3.48,12.18-.37,11.17,6,1,9.44-15.48,10.72-16.39,1.84l4.48-.37a3.3,3.3,0,0,0,3.57,2.75c2.39,0,3.67-1.65,3.67-4.12"/>
    </g>
    <g id="A-3">
      <path id="aJ-14" d="M2189.72,890.87c4.81,0,6.35,4,6.35,8.87,0,5.07-1.72,8.88-6.62,9.06-2.81.09-4.07-1.54-5.34-3.08.27,3,.18,6.25.18,9.51h-4.53l-.09-24H2184a22.08,22.08,0,0,0,.27,2.81C2185.29,891.86,2186.91,890.87,2189.72,890.87Zm-1.8,14.52c3,0,3.57-2.84,3.66-6,0-3.48-.82-5.86-3.66-5.86-5.12,0-5,11.9,0,11.9"/>
      <path id="aK-4" d="M2207.62,890.37c5.86,0,8.79,3.3,8.79,9.07s-3.2,9.07-8.88,9.07-8.7-3.3-8.7-9.07S2201.93,890.37,2207.62,890.37Zm-.09,15c3.19,0,4.12-2.56,4.12-6,0-3.66-.92-6-3.94-6s-4.12,2.38-4.12,6c0,3.3.92,6,3.94,6"/>
      <path id="aL-3" d="M2219.77,887.23v-3h5v3Zm0,21v-17h5v17h-5"/>
      <path id="aM-3" d="M2238.61,890.87c7.79-.09,5.19,10.11,5.63,17.36h-4.46c-.63-5.1,2-14-3.06-14-5.28,0-3,8.68-3.49,14h-4.46l-.1-17h4.21c.17,1.07-.09,2.51.26,3.4,1.08-2.33,2.51-3.67,5.46-3.76"/>
      <path id="aN-10" d="M2257.73,907.86c-3.3,1.29-8,.65-8-3.84v-9.79h-2v-4h1.89l1.37-4h2.74v5h3v3h-3v8.6c0,2.1,3,2.29,3,2.29v3.11"/>
      <path id="aO-15" d="M2270.26,895.5c.09-2.65-6.41-3.11-6.5-.36,1.37,4.21,10.81.64,10.89,7.87.09,7.6-15,7-15.75.83l3.93-.65c.37,1.74,1.83,2.29,4,2.29,3,.74,5.22-2.74,2.2-3.75-3.94-1.28-9.34-1-9.52-6-.19-7.32,14.1-6.77,14.74-.64"/>
      <path id="aP-7" d="M2276.77,915.23v-3h4v-25h-4v-3h9v31h-9"/>
    </g>
    <path class="cls-8" d="M605.77,708.23v45h1v16"/>
    <path class="cls-3" d="M607.77,708.23h-3v-2h3Z"/>
    <path class="cls-9" d="M606.66,794.74,599,771.23H614.3Z"/>
    <path class="cls-8" d="M1016.77,708.23v61"/>
    <path class="cls-3" d="M1018.77,708.23h-3v-2h3Z"/>
    <path class="cls-9" d="M1017.23,794.74l-7.58-23.51h15.28Z"/>
    <path class="cls-8" d="M1441.77,708.23v44.88c.09,0,.09.08,0,.08l1,.08v16"/>
    <path class="cls-3" d="M1443.77,708.23h-3v-2h3Z"/>
    <path class="cls-9" d="M1441.73,794.74l-7.62-23.51h15.28Z"/>
    <path class="cls-8" d="M605.77,938.23v46h1v16"/>
    <path class="cls-3" d="M607.77,939.23h-3v-2h3Z"/>
    <path class="cls-9" d="M606.61,1025.74l-7.69-23.51h15.29Z"/>
    <path class="cls-8" d="M1017.77,938.23v45.6c.88.07.83.14.75.14s-.13.06.25.13v16.13"/>
    <path class="cls-3" d="M1019.77,939.23h-3v-2h3Z"/>
    <path class="cls-9" d="M1018.39,1025.74l-7.63-23.51H1026Z"/>
    <path class="cls-8" d="M1430.77,938.23v46h1v16"/>
    <path class="cls-3" d="M1431.77,939.23h-3v-2h3Z"/>
    <path class="cls-9" d="M1430.83,1025.74l-7.67-23.51h15.28Z"/>
    <path class="cls-3" d="M1430.77,1539.23h-3v-11h3Zm-1-12.6,1-.25v1.85h-3v-1.9Zm-.44,59-2.41-7.45h4.85Z"/>
    <path class="cls-3" d="M1429.33,1591l-4.12-12.79h3.46l.66,2.14.71-2.14h3.46Z"/>
    <g id="C-2">
      <path id="aE-20" d="M1340.77,1572.23v-31h8v3h-4v25h4v3h-8"/>
      <path id="aR-2" d="M1359,1542.45c6.21,0,7.68,5,7.68,11.63s-1.74,11.72-7.88,11.72-7.68-5.13-7.78-11.72C1351,1547.23,1352.63,1542.45,1359,1542.45Zm-.09,19.78c3.38-.46,3.29-4.21,3.29-8.15s.37-8.15-3.29-8.15-3.3,4.12-3.3,8.15-.29,7.78,3.3,8.15"/>
    </g>
    <g id="D-2">
      <path id="aS-5" d="M1379.77,1565.23v-24h5v24h-5"/>
      <path id="aL-4" d="M1388.77,1544.23v-3h5v3Zm0,21v-17h5v17h-5"/>
      <path id="aT-5" d="M1406.77,1565.23H1402l-6.07-17h4.73l4,13.42,4.3-13.42h4.82"/>
      <path id="aU-2" d="M1430.83,1560.71a7.36,7.36,0,0,1-7.51,4.76c-5.5-.18-8.15-3.39-8.15-9.16s2.74-9,8.24-9c5.68,0,7.6,4.12,7.69,9.89h-11.17c0,2.84.73,5,3.57,5.13,1.65,0,2.75-.64,3.11-2Zm-4.13-6.48c.46-4.21-5.22-5.77-6.41-1.92a6.22,6.22,0,0,0-.36,1.92h6.83"/>
      <path id="aO-16" d="M1444.76,1552.8c.08-2.66-6.43-3.12-6.52-.37,1.39,4.21,10.82.64,10.91,7.88.08,7.6-15,7-15.75.82l3.93-.64c.36,1.74,1.83,2.29,4,2.29,3,.73,5.22-2.75,2.19-3.75-3.93-1.29-9.34-1-9.52-6-.18-7.32,14.1-6.78,14.74-.64"/>
    </g>
    <g id="E-2">
      <path id="aS-6" d="M1461.77,1565.23v-24h5v24h-5"/>
      <path id="aU-3" d="M1485.78,1560.71a7.38,7.38,0,0,1-7.51,4.76c-5.49-.18-8.16-3.39-8.16-9.16s2.75-9,8.24-9c5.69,0,7.61,4.12,7.7,9.89h-11.18c0,2.84.74,5,3.58,5.13,1.64,0,2.74-.64,3.11-2Zm-4.12-6.48c.45-4.21-5.22-5.77-6.42-1.92a5.94,5.94,0,0,0-.36,1.92h6.89"/>
      <path id="aV-5" d="M1498.23,1544.93c-2.47-.64-3.93.46-3.47,3.3h3v3h-3v14h-4v-14h-3v-3h2.68c-.86-5.36,3.06-7.36,8.32-6.18v3.18"/>
      <path id="aN-11" d="M1508.73,1565.16c-3.3,1.28-8,.64-8-3.84v-10.09h-3v-3h2.59l1.44-4h3v4h3v3h-2v8.89c-.76,2.11,3,2.29,3,2.29v2.82"/>
      <path id="aP-8" d="M1509.77,1572.3l-1-3.07h5v-25h-5v-3h9v31h-8"/>
    </g>
    <path class="cls-7" d="M1870.29,1264.23a33,33,0,1,1-33-33h0A33,33,0,0,1,1870.29,1264.23Z"/>
    <path class="cls-6" d="M1857.1,1264.23a19.79,19.79,0,1,1-19.79-19.78h0a19.77,19.77,0,0,1,19.78,19.78Z"/>
    <path class="cls-7" d="M2232.94,1264.23a33,33,0,1,1-33-33h0A33,33,0,0,1,2232.94,1264.23Z"/>
    <path class="cls-6" d="M2219.76,1264.23a19.79,19.79,0,1,1-19.79-19.78,19.79,19.79,0,0,1,19.79,19.78Z"/>
    <path class="cls-8" d="M1837.77,1136.23v62"/>
    <path class="cls-3" d="M1838.77,1136.23h-3v-2h3Z"/>
    <path class="cls-9" d="M1837.33,1223.74l-7.65-23.51H1845Z"/>
    <path class="cls-8" d="M2199.77,1136.23v62"/>
    <path class="cls-3" d="M2201.77,1136.23h-3v-2h3Z"/>
    <path class="cls-9" d="M2200,1223.74l-7.65-23.51h15.28Z"/>
    <path class="cls-8" d="M1429.77,1727.23v62m0-62v-1"/>
    <path class="cls-9" d="M1429.33,1814.74l-7.61-23.51H1437Z"/>
    <path class="cls-7" d="M1462.31,1855.16a33,33,0,1,1-33-33,33,33,0,0,1,33,33Z"/>
    <path class="cls-6" d="M1449.11,1855.16a19.78,19.78,0,1,1-19.78-19.78,19.78,19.78,0,0,1,19.78,19.78Zm-991.84-366.6a9.85,9.85,0,0,1,9.89-9.83h720.22a9.87,9.87,0,0,1,9.89,9.83v14.34a9.91,9.91,0,0,1-9.89,9.83H467.16a9.89,9.89,0,0,1-9.89-9.83Z"/>
    <path class="cls-3" d="M1396.77,1493.23v3h-27v-3Z"/>
    <path class="cls-3" d="M1398.23,1495.23l.23,1h-1.69v-3h1.74Zm-170.46,7.26-23.11-7.51,23.11-7.52Z"/>
    <path class="cls-3" d="M1227.77,1504.23l-28.45-9.23,28.45-9.23Zm-17.56-9.23,16.56,5.37v-10.75Z"/>
    <g id="F-4">
      <path id="aE-21" d="M1229.77,1508.23v-31h8v3h-4v25h4v3h-8"/>
      <path id="aF-9" d="M1239.77,1500.23V1496l13.7-5.36-13.7-5.35v-3.76l17,6.48v5.19"/>
      <path id="aR-3" d="M1267.22,1478.58c6.23,0,7.69,5,7.69,11.64s-1.74,11.72-7.87,11.72-7.7-5.13-7.79-11.72C1259.17,1483.35,1260.82,1478.58,1267.22,1478.58Zm-.08,19.79c3.39-.46,3.3-4.22,3.3-8.15s.36-8.16-3.3-8.16-3.31,4.13-3.31,8.16-.27,7.78,3.31,8.15"/>
    </g>
    <g id="G-4">
      <path id="aS-7" d="M1287.77,1501.23v-24h5v24h-5"/>
      <path id="aL-5" d="M1296.77,1481.23v-3h5v3Zm0,20v-17h5v17h-5"/>
      <path id="aT-6" d="M1315.77,1501.23h-5.62l-6.08-17h4.74l4,13.42,4.29-13.42h4.64"/>
      <path id="aU-4" d="M1339,1496.71a7.38,7.38,0,0,1-7.51,4.76c-5.5-.18-8.16-3.39-8.16-9.16s2.75-9,8.24-9c5.69,0,7.6,4.12,7.69,9.89h-11.17c0,2.84.73,5,3.57,5.13,1.65,0,2.75-.64,3.12-2Zm-4.12-5.48c.44-4.21-5.22-5.77-6.42-1.92a6,6,0,0,0-.37,1.92h6.65"/>
      <path id="aO-17" d="M1353,1488.93c.09-2.65-6.41-3.11-6.5-.36,1.37,4.21,10.8.64,10.89,7.87.1,7.6-15,7-15.75.83l3.94-.64c.37,1.74,1.82,2.29,4,2.29,3,.73,5.21-2.75,2.19-3.76-3.93-1.28-9.33-1-9.53-6-.18-7.33,14.11-6.78,14.75-.64"/>
      <path id="aP-9" d="M1359.77,1508.23v-3h4v-25h-4v-3h8v31h-9"/>
    </g>
    <path class="cls-8" d="M501.77,1517.23v54.11a9.93,9.93,0,0,1-9.89,9.89H382.66a9.92,9.92,0,0,1-9.89-9.89V612.12a9.91,9.91,0,0,1,9.89-9.89H493.88a9.92,9.92,0,0,1,9.89,9.89v26.11"/>
    <path class="cls-3" d="M502.77,1517.23h-3v-2h3Z"/>
    <path class="cls-9" d="M503.26,662.74l-7.65-23.51H510.9Z"/>
    <path class="cls-7" d="M1689.27,1451.51V1511a19.79,19.79,0,0,0,19.75,19.78h257.43a19.79,19.79,0,0,0,19.78-19.78v-59.44a19.77,19.77,0,0,0-19.78-19.78H1709A19.78,19.78,0,0,0,1689.27,1451.51Z"/>
    <g id="H-2">
      <path id="aW-2" d="M1780.77,1487.23v-10h-12v10h-3v-23h3v10h12v-10h4v23h-3"/>
      <path id="ae-22" d="M1796.2,1469.52c5.76,0,7.87,3.85,7.69,9.71h-12.37c0,3.66,1.29,6.14,4.86,6.23a4.28,4.28,0,0,0,4.49-2.66l2.56.73c-1,2.57-3.39,4.13-7,4.13-5.31,0-8.06-3.39-8-9.16C1788.51,1472.91,1790.8,1469.52,1796.2,1469.52Zm4.82,7.71c.55-5.49-7-7-8.89-2.56a6.76,6.76,0,0,0-.56,2.56h9.24"/>
      <path id="aa-17" d="M1818.28,1484.23c-1.38,1.93-2.84,3.76-6.23,3.67s-5.32-1.93-5.32-5.22c-.08-5.87,5.78-5.77,11.44-5.77.28-3.21-.82-5-3.75-5-2.2.09-3.76.64-3.85,2.84l-3-.27c.46-3.39,3-4.77,7-4.77s6.59,1.83,6.25,5.86v7.51c.25,1.84,1,2.93,3,2.48v1.83C1820.83,1488.29,1818.08,1487.28,1818.28,1484.23Zm-8.52-1.55a2.77,2.77,0,0,0,2.52,3h.41c3.75-.28,5.77-2.66,5.49-6.78-3.94.18-8.42-.46-8.42,3.76"/>
      <path id="ah-8" d="M1833.77,1472.65c-7-1.44-4.76,8.14-5.12,14.58h-2.88l-.09-17h2.7a20.42,20.42,0,0,0,.18,3.49c.54-2.42,2.06-4.38,5.21-3.67v2.18"/>
      <path id="ag-12" d="M1839.29,1483.23c-.19,2.19,1.65,2.65,3.48,2v2.11c-2.83.86-6,.43-6-3.34v-11.77h-2v-2H1837l.83-4h1.94v4h3v2h-3v11"/>
    </g>
    <g id="I-2">
      <path id="ai-6" d="M1862.14,1466.23c-2.84-.82-3.84.92-3.48,4h3.11v2h-3v15h-3v-15h-3v-2h2.53c-.65-4.52,1.6-7.13,6.47-5.91v1.91"/>
      <path id="aa-18" d="M1875,1484.23c-1.37,1.93-2.84,3.76-6.22,3.67s-5.31-1.93-5.31-5.22c-.09-5.87,5.77-5.77,11.44-5.77.29-3.21-.81-5-3.75-5-2.19.09-3.76.64-3.84,2.84l-3-.27c.45-3.39,3-4.77,7-4.77s6.58,1.83,6.56,5.86v7.51c-.06,1.84.67,2.93,3,2.48v1.83C1877.53,1488.29,1874.78,1487.28,1875,1484.23Zm-8.51-1.55a2.78,2.78,0,0,0,2.53,3h.41c3.75-.28,5.77-2.66,5.48-6.78-3.93.18-8.42-.46-8.42,3.76"/>
      <path id="aj-15" d="M1882.77,1487.23v-24h3v24h-3"/>
      <path id="aj-16" d="M1889.77,1487.23v-24h3v24h-3"/>
      <path id="af-10" d="M1907.2,1474.46c-.28-3.11-7.88-3.48-8,0,1.38,4.86,10.53,1.1,10.9,8.25s-13.74,6.77-14.38.73l2.57-.46c.36,3.3,8.88,4.12,9,0-.93-5.13-10.35-1.37-10.82-8.24-.36-5.22,7.51-5.77,11.19-3.85a4.53,4.53,0,0,1,2.18,3.21"/>
    </g>
    <path class="cls-7" d="M1694.86,1634.09c-3.63-4.06-2.15-7.36,3.31-7.36h277.21a9.92,9.92,0,0,1,9.89,9.89v112.22a9.93,9.93,0,0,1-9.89,9.89H1698.17c-5.45,0-6.94-3.3-3.31-7.36l46.2-51.28a11.31,11.31,0,0,0,0-14.72Z"/>
    <g id="f-5">
      <path id="Z-7" d="M1806.78,1663.23c-.92-2.57-3.2-4.12-6.69-4.12-5.41,0-8,3.66-8,9.06s2.67,9.25,8.15,9.25c3.94,0,5.69-2.2,7.15-4.76l2.47,1.28a10.1,10.1,0,0,1-9.8,6c-7.33,0-10.72-4.58-11.08-11.82-.55-9.52,9.07-14,17.12-10.16a7.36,7.36,0,0,1,3.57,4.21"/>
      <path id="aj-17" d="M1812.77,1679.23v-24h3v24h-3"/>
      <path id="ad-10" d="M1820.77,1658.23v-3h3v3Zm0,21v-17h3v17h-3"/>
      <path id="an-12" d="M1834.34,1664.12c-3.67,0-4.4,3-4.4,6.69s.83,6.87,4.4,6.87a3.67,3.67,0,0,0,3.94-3.35v-.13l2.93.18c-.55,3.39-2.83,5.59-6.78,5.59-5.4,0-7-3.76-7.51-9.07-.92-8.52,9.25-12,13.46-5.86a6.68,6.68,0,0,1,.64,2l-2.93.28a3.49,3.49,0,0,0-3.75-3.21"/>
      <path id="ap-10" d="M1854.73,1679.6l-5.85-8-2.11,1.74v5.89h-3v-24h3v15.23l7.43-8.23h3.31l-6.89,7.34,7.33,9.66h-3.18"/>
    </g>
    <g id="g-5">
      <path id="ao-18" d="M1876.83,1661.83c5.69-.09,7.78,3.39,7.78,9.07s-2.46,9.07-7.87,9.07-7.59-3.57-7.68-9.07Q1869,1661.84,1876.83,1661.83Zm-.09,15.94c4,.09,4.85-2.84,4.85-6.87s-.73-6.87-4.67-6.87-4.85,2.93-4.85,6.87.91,6.78,4.67,6.87"/>
      <path id="ab-12" d="M1897.2,1661.87c8.16-.36,4.86,10.38,5.5,17.36h-2.93V1668.4c0-2.77-.73-4.38-3.57-4.29-6.61.18-4,9.13-4.5,15.12h-2.93l-.09-17h2.75a13.75,13.75,0,0,0,.18,2.86c1-2,2.66-3.13,5.59-3.22"/>
    </g>
    <g id="h-3">
      <path id="aa-19" d="M1926.38,1676.3c-1.37,1.93-2.83,3.76-6.22,3.67s-5.32-1.93-5.32-5.22c-.1-5.86,5.77-5.77,11.44-5.77.28-3.21-.82-5-3.75-5-2.2.09-3.76.64-3.85,2.84l-3-.27c.46-3.39,3-4.77,7-4.77s6.59,1.84,6.14,5.87v7.5c.36,1.84,1.09,2.94,3,2.48v1.83C1929,1680.33,1926.2,1679.33,1926.38,1676.3Zm-8.52-1.55a2.78,2.78,0,0,0,2.53,3h.41c3.75-.28,5.77-2.66,5.49-6.78-3.94.19-8.43-.46-8.43,3.76"/>
    </g>
    <g id="J-3">
      <path id="ax-2" d="M1831.78,1703.75c-6.59,0-4,9.34-4.48,15.48h-2.53v-24h3l-.09,9.47a5.72,5.72,0,0,1,5.54-3.31c8.1,0,4.82,10.67,5.46,17.84h-2.91v-11.15c.18-2.93-.73-4.49-3.57-4.39"/>
      <path id="ae-23" d="M1849.55,1701.52c5.77,0,7.88,3.85,7.68,9.71h-12.35c0,3.66,1.28,6.14,4.84,6.23a4.28,4.28,0,0,0,4.49-2.66l2.57.73c-1,2.57-3.38,4.13-7,4.13-5.32,0-8.07-3.39-8-9.16C1841.85,1704.91,1844.15,1701.52,1849.55,1701.52Zm4.76,7.71c.55-5.49-7-7-8.88-2.56a6.23,6.23,0,0,0-.55,2.56h9.89"/>
      <path id="aa-20" d="M1871.61,1715.87c-1.37,1.92-2.83,3.75-6.22,3.66s-5.32-1.92-5.32-5.22c-.09-5.86,5.77-5.77,11.45-5.77.27-3.21-.83-5-3.76-5-2.19.1-3.75.65-3.84,2.84l-3-.27c.45-3.39,3-4.76,7-4.76s6.59,1.83,5.9,5.86v7.51c.6,1.83,1.33,2.93,3,2.47V1719C1874.18,1719.9,1871.44,1718.89,1871.61,1715.87Zm-8.52-1.56a2.78,2.78,0,0,0,2.53,3h.41c3.76-.27,5.77-2.65,5.5-6.78-3.94.19-8.44-.45-8.44,3.76"/>
      <path id="ah-9" d="M1887.77,1704.65c-7-1.44-4.76,8.14-5.12,14.58h-2.88l-.09-17h2.7a20.42,20.42,0,0,0,.18,3.49c.54-2.42,2.06-4.38,5.21-3.67v2.18"/>
      <path id="ag-13" d="M1893.29,1714.86c-.19,2.2,1.65,2.65,3.48,2V1719c-2.83.85-6,.42-6-3.35v-11.4h-2v-2H1891l.83-4h1.94v4h3v2h-3v11"/>
    </g>
    <path class="cls-7" d="M1689.27,1876v60.44a20.27,20.27,0,0,0,20.28,20.28H1966a20.28,20.28,0,0,0,20.28-20.28h0V1876a20.28,20.28,0,0,0-20.28-20.28H1709.55a20.27,20.27,0,0,0-20.28,20.28Z"/>
    <g id="H-4">
      <path id="aW-3" d="M1733.77,1894.23v-10h-12v11h-3v-23h3v10h12v-10h3v23h-3"/>
      <path id="ae-24" d="M1748.58,1876.52c5.77,0,7.88,3.85,7.7,9.71h-12.37c0,3.66,1.29,6.14,4.86,6.23a4.24,4.24,0,0,0,4.47-2.66l2.57.73c-1,2.57-3.39,4.13-7,4.13-5.31,0-8.06-3.39-8-9.16C1740.89,1879.91,1743.18,1876.52,1748.58,1876.52Zm4.77,7.71c.55-5.49-7-7-8.89-2.56a6.57,6.57,0,0,0-.55,2.56h9.86"/>
      <path id="aa-21" d="M1770.65,1891.42c-1.37,1.93-2.83,3.76-6.22,3.67s-5.32-1.93-5.32-5.22c-.09-5.87,5.78-5.77,11.44-5.77.28-3.21-.82-4.95-3.75-4.95-2.2.09-3.76.64-3.85,2.84l-3-.27c.46-3.39,3-4.77,7-4.77s6.59,1.83,6.87,5.86v7.51c-.37,1.84.36,2.93,3,2.48v1.83C1773.21,1895.45,1770.46,1894.44,1770.65,1891.42Zm-8.51-1.55a2.77,2.77,0,0,0,2.52,3h.41c3.75-.28,5.77-2.66,5.49-6.78-3.93.18-8.42-.46-8.42,3.76"/>
      <path id="ah-10" d="M1786.77,1879.65c-7-1.44-4.76,8.14-5.12,14.58h-2.88l-.09-17h2.7a20.42,20.42,0,0,0,.18,3.49c.54-2.42,2.06-4.38,5.21-3.67v2.18"/>
      <path id="ag-14" d="M1792.29,1890.42c-.19,2.19,1.65,2.65,3.48,2v2.11c-2.83.86-6,.43-6-3.34v-12h-2v-2H1790l.83-4h1.94v4h3v2h-3v11"/>
    </g>
    <g id="K-2">
      <path id="aa-22" d="M1818.18,1891.42c-1.37,1.93-2.83,3.76-6.22,3.67s-5.31-1.93-5.31-5.22c-.1-5.87,5.76-5.77,11.43-5.77.28-3.21-.81-4.95-3.75-4.95-2.19.09-3.76.64-3.85,2.84l-3-.27c.46-3.39,3-4.77,7-4.77s6.59,1.83,6.34,5.86v7.51c.16,1.84.89,2.93,3,2.48v1.83C1820.74,1895.45,1818,1894.44,1818.18,1891.42Zm-8.51-1.55a2.77,2.77,0,0,0,2.52,3h.41c3.75-.28,5.77-2.66,5.49-6.78-3.94.18-8.42-.46-8.42,3.76"/>
      <path id="aq-4" d="M1834.58,1876.87c5.32.09,6.77,3.71,6.77,8.87s-1.55,8.88-6.77,9.06c-3,0-4.75-1.18-5.81-3.08l.09,9.51h-3.09l-.1-24h3l.19,2.72C1829.83,1878.05,1831.58,1876.87,1834.58,1876.87Zm-1.19,16c3.66,0,4.12-3.12,4.12-6.87s-.55-6.69-4.12-6.78c-3.85,0-4.67,2.93-4.67,7s.91,6.69,4.67,6.69"/>
      <path id="aq-5" d="M1852.58,1876.87c5.32.09,6.77,3.71,6.77,8.87s-1.55,8.88-6.77,9.06c-3,0-4.75-1.18-5.81-3.08l.09,9.51h-3.09l-.1-24h3l.19,2.72C1847.83,1878.05,1849.58,1876.87,1852.58,1876.87Zm-.88,16c3.67,0,4.12-3.12,4.12-6.87s-.55-6.69-4.12-6.78c-3.84,0-4.67,2.93-4.67,7s.92,6.69,4.67,6.69"/>
      <path id="ae-25" d="M1869.38,1876.52c5.77,0,7.86,3.85,7.68,9.71H1864.7c0,3.66,1.28,6.14,4.85,6.23a4.28,4.28,0,0,0,4.49-2.66l2.56.73c-1,2.57-3.39,4.13-7,4.13-5.31,0-8.06-3.39-8-9.16C1861.68,1879.91,1864,1876.52,1869.38,1876.52Zm4.76,7.71c.55-5.49-7-7-8.88-2.56a6.41,6.41,0,0,0-.56,2.56h9.07"/>
      <path id="aa-23" d="M1891.45,1891.42c-1.38,1.93-2.84,3.76-6.23,3.67s-5.31-1.93-5.31-5.22c-.09-5.87,5.77-5.77,11.44-5.77.28-3.21-.82-4.95-3.76-4.95-2.19.09-3.75.64-3.85,2.84l-3-.27c.46-3.39,3-4.77,7-4.77s6.6,1.83,6.08,5.86v7.51c.42,1.84,1.16,2.93,3,2.48v1.83C1894,1895.45,1891.26,1894.44,1891.45,1891.42Zm-8.52-1.55a2.77,2.77,0,0,0,2.52,3h.41c3.76-.28,5.77-2.66,5.5-6.78-3.94.18-8.43-.46-8.43,3.76"/>
      <path id="ah-11" d="M1906.77,1879.65c-7-1.44-4.76,8.14-5.12,14.58h-2.88l-.09-17h2.7a20.42,20.42,0,0,0,.18,3.49c.54-2.42,2.06-4.38,5.21-3.67v2.18"/>
      <path id="af-11" d="M1920.1,1881.62c-.27-3.11-7.87-3.48-8,0,1.38,4.86,10.55,1.1,10.91,8.25s-13.73,6.77-14.38.73l2.56-.46c.36,3.3,8.88,4.12,9,0-.91-5.13-10.35-1.37-10.8-8.24-.37-5.22,7.51-5.77,11.17-3.85a4.55,4.55,0,0,1,2.2,3.21"/>
    </g>
    <g id="L-2">
      <path id="ad-11" d="M1935.77,1873.23v-3h3v3Zm0,21v-17h3v17h-3"/>
      <path id="ab-13" d="M1951.2,1876.87c8.16-.36,4.86,10.38,5.5,17.36h-2.93V1883.4c0-2.77-.73-4.38-3.57-4.29-6.61.18-4,9.13-4.5,15.12h-2.93l-.09-17h2.75a13.75,13.75,0,0,0,.18,2.86c1-2,2.66-3.13,5.59-3.22"/>
    </g>
    <g id="k-3">
      <path id="aa-24" d="M1763.33,1931c-1.38,1.93-2.84,3.76-6.23,3.67s-5.31-1.93-5.31-5.22c-.09-5.86,5.77-5.77,11.44-5.77.28-3.21-.82-5-3.76-5-2.19.09-3.75.64-3.83,2.84l-3-.27c.45-3.39,3-4.76,7-4.76s6.59,1.83,6.19,5.86v7.51c.32,1.83,1,2.93,3,2.47v1.92C1765.89,1935,1763.15,1934,1763.33,1931Zm-8.52-1.55a2.77,2.77,0,0,0,2.52,3h.41c3.76-.27,5.77-2.66,5.5-6.78-3.94.19-8.43-.45-8.43,3.76"/>
    </g>
    <g id="M-2">
      <path id="ax-3" d="M1787.59,1918.75c-6.6,0-4,9.34-4.49,15.48h-3.33v-24h3l-.09,9.47a5.72,5.72,0,0,1,5.54-3.31c8.1,0,4.82,10.67,5.46,17.84h-2.91v-11c.18-2.93-.73-4.49-3.57-4.4"/>
      <path id="ae-26" d="M1805.35,1916.52c5.78,0,7.88,3.85,7.7,9.71h-12.37c0,3.66,1.28,6.14,4.86,6.23a4.25,4.25,0,0,0,4.48-2.66l2.57.73c-1,2.57-3.39,4.13-7,4.13-5.32,0-8.06-3.39-8-9.16C1797.67,1919.91,1800,1916.52,1805.35,1916.52Zm4.78,7.71c.54-5.49-7-7-8.9-2.56a7,7,0,0,0-.55,2.56h9.08"/>
      <path id="aa-25" d="M1827.43,1931c-1.37,1.93-2.84,3.76-6.22,3.67s-5.32-1.93-5.32-5.22c-.09-5.86,5.77-5.77,11.45-5.77.28-3.21-.82-5-3.75-5-2.2.09-3.76.64-3.85,2.84l-3-.27c.46-3.39,3-4.76,7-4.76s6.59,1.83,6.09,5.86v7.51c.41,1.83,1.14,2.93,3,2.47v1.92C1830,1935,1827.24,1934,1827.43,1931Zm-8.51-1.55a2.77,2.77,0,0,0,2.52,3h.41c3.75-.27,5.77-2.66,5.49-6.78-3.94.19-8.42-.45-8.42,3.76"/>
      <path id="aj-18" d="M1834.77,1934.23v-24h3v24h-3"/>
      <path id="ag-15" d="M1845.29,1930c-.19,2.2,1.65,2.65,3.48,2v2.12c-2.83.85-6,.42-6-3.35v-11.52h-2v-2H1843l.83-4h1.94v4h3v2h-3v11"/>
      <path id="ax-4" d="M1858.94,1918.75c-6.6,0-4,9.34-4.49,15.48h-2.68v-24h3l-.09,9.47a5.72,5.72,0,0,1,5.54-3.31c8.1,0,4.82,10.67,5.46,17.84h-2.91v-11c.18-2.93-.73-4.49-3.57-4.4"/>
    </g>
    <g id="N-2">
      <path id="aw-4" d="M1887.13,1916.39c4.81,0,6.28,3.59,6.36,9,0,6.07-2.08,9.2-6.36,9.2-2.82-.09-4.45-1-5.36-3.13l-.19,2.76h-2.81l.08-24h2.92v9.29C1882.68,1917.4,1884.32,1916.39,1887.13,1916.39Zm-.64,16.06c3.68,0,4.12-3.11,4.12-6.87s-.44-6.87-4.12-6.78-4.67,2.94-4.67,7,.92,6.69,4.67,6.69"/>
      <path id="aa-26" d="M1907.93,1931c-1.37,1.93-2.84,3.76-6.23,3.67s-5.31-1.93-5.31-5.22c-.09-5.86,5.77-5.77,11.44-5.77.27-3.21-.81-5-3.75-5-2.19.09-3.76.64-3.85,2.84l-3-.27c.45-3.39,3-4.76,7-4.76s6.59,1.83,6.59,5.86v7.51c-.09,1.83.64,2.93,3,2.47v1.92C1910.49,1935,1907.74,1934,1907.93,1931Zm-8.52-1.55a2.75,2.75,0,0,0,2.52,3h.41c3.75-.27,5.76-2.66,5.49-6.78-3.93.19-8.43-.45-8.43,3.76"/>
      <path id="ah-12" d="M1923.77,1919.65c-7-1.44-4.76,8.14-5.12,14.58h-2.88l-.09-17h2.7a20.42,20.42,0,0,0,.18,3.49c.54-2.42,2.06-4.38,5.21-3.67v2.18"/>
    </g>
    <path class="cls-7" d="M1689.27,2073.5V2136a20.77,20.77,0,0,0,20.75,20.77h255.45a20.76,20.76,0,0,0,20.77-20.77h0V2073.5a20.76,20.76,0,0,0-20.77-20.77H1710A20.76,20.76,0,0,0,1689.27,2073.5Z"/>
    <g id="O-2">
      <path id="aX-5" d="M1798.77,2101.23v7h-2v-7h-7v-2h7v-7h2v7h7v2h-7"/>
    </g>
    <g id="P-3">
      <path id="aY-3" d="M1819.77,2111.23v-2h5v-17.4l-5,3.57V2093l5.32-3.75h2.68v20h6v2h-14"/>
    </g>
    <g id="Q-3">
      <path id="aj-19" d="M1846.77,2111.23v-24h3v24h-3"/>
      <path id="ad-12" d="M1853.77,2090.23v-3h3v3Zm0,21v-17h3v17h-3"/>
      <path id="ai-7" d="M1868,2090.23c-2.84-.82-3.84.92-3.48,4h3.25v2h-3v15h-3v-15h-3v-2h2.53c-.66-4.52,1.59-7.13,6.47-5.91v1.91"/>
      <path id="ae-27" d="M1877.07,2093.52c5.77,0,7.88,3.85,7.69,9.71H1872.4c0,3.66,1.28,6.14,4.84,6.23a4.28,4.28,0,0,0,4.49-2.66l2.57.73c-1,2.57-3.38,4.13-7,4.13-5.32,0-8.07-3.39-8-9.16C1869.38,2096.91,1871.67,2093.52,1877.07,2093.52Zm4.76,7.71c.55-5.49-7-7-8.88-2.56a6.23,6.23,0,0,0-.55,2.56h9.37"/>
    </g>
    <path class="cls-7" d="M1830.33,2293.23a9.89,9.89,0,0,1,14,0v0l19,19a9.88,9.88,0,0,1,0,14l0,0-19,19a9.91,9.91,0,0,1-14,0l-19-19a9.9,9.9,0,0,1,0-14h0Zm-237.8,26a33,33,0,1,1-33-33,33,33,0,0,1,33,33h0Z"/>
    <path class="cls-10" d="M1536.26,2295.88l46.62,46.62m0-46.62-46.62,46.62"/>
    <path class="cls-3" d="M1639.77,2320.23h-14v-3h14Zm165,0h-43v-3h43Z"/>
    <path class="cls-3" d="M1806.23,2319.23l.23,1h-1.69v-3h1.72Zm-182.46,7.62-23.51-7.65,23.51-7.65Z"/>
    <path class="cls-3" d="M1625.77,2329.08l-30.5-9.89,30.5-9.89Zm-20.54-9.89,16.54,5.37v-10.75Z"/>
    <g id="R-2">
      <path id="aE-28" d="M1640.77,2332.23v-30h9v3h-4v24h4v3h-9"/>
      <path id="aZ-2" d="M1661.9,2314.15c3.11.37,5.13,1.92,5.4,5.31.64,8.34-13.56,8.61-15.75,2.57a7.38,7.38,0,0,1-.64-2.38l4.67-.46c.09,2.2,1.46,3.2,3.66,3.29s3.57-1.09,3.48-3.29c-.09-2.84-2.84-3.3-6-3.12v-3.66c2.93.18,5.4-.27,5.4-3a2.86,2.86,0,0,0-2.71-3,1.79,1.79,0,0,0-.4,0,3,3,0,0,0-3.21,2.78v.15l-4.57-.28c.54-4,3.38-6.22,7.87-6.22s7.6,1.83,7.6,6c0,3.2-2,4.76-4.85,5.31"/>
    </g>
    <g id="G-6">
      <path id="aS-8" d="M1679.77,2326.23v-24h5v24h-5"/>
      <path id="aL-6" d="M1688.77,2305.23v-3h5v3Zm0,20v-17h5v17h-5"/>
      <path id="aT-7" d="M1707.77,2325.23h-5.44l-6.08-17H1701l4,13.42,4.29-13.42h4.46"/>
      <path id="aU-5" d="M1731.2,2321.71a7.36,7.36,0,0,1-7.51,4.76c-5.5-.18-8.15-3.39-8.15-9.16s2.74-9,8.24-9c5.68,0,7.6,4.12,7.69,9.89H1720.3c0,2.84.73,5,3.57,5.13,1.65,0,2.75-.64,3.11-2Zm-4.13-6.48c.46-4.21-5.22-5.77-6.41-1.92a6.22,6.22,0,0,0-.36,1.92h6.46"/>
      <path id="aO-19" d="M1745.13,2313.14c.08-2.65-6.43-3.11-6.52-.36,1.38,4.21,10.82.64,10.91,7.87.08,7.6-15,7-15.75.83l3.93-.64c.36,1.74,1.83,2.29,4,2.29,3,.73,5.22-2.75,2.19-3.76-3.93-1.28-9.34-1-9.52-6-.18-7.33,14.1-6.78,14.74-.64"/>
      <path id="aP-11" d="M1751.77,2332.23v-2h4v-25h-4v-3h8v31h-9"/>
    </g>
    <path class="cls-8" d="M1837.77,1534.23v60"/>
    <path class="cls-3" d="M1838.77,1535.23h-3v-2h3Z"/>
    <path class="cls-9" d="M1837.33,1618.74l-7.65-23.51H1845Z"/>
    <path class="cls-8" d="M1837.77,1763.23v43.69h1v15.31"/>
    <path class="cls-3" d="M1839.77,1763.23h-3v-2h3Z"/>
    <path class="cls-9" d="M1838.76,1847.74l-7.63-23.51h15.28Z"/>
    <path class="cls-8" d="M1837.77,1960.23v60"/>
    <path class="cls-3" d="M1838.77,1961.23h-3v-2h3Z"/>
    <path class="cls-9" d="M1837.33,2044.74l-7.65-23.51H1845Z"/>
    <path class="cls-8" d="M1837.77,2161.23v96"/>
    <path class="cls-3" d="M1838.77,2161.23h-3v-2h3Z"/>
    <path class="cls-9" d="M1837.33,2282.75l-7.65-23.52H1845Z"/>
    <path class="cls-3" d="M2085.74,2308.92l-1.37,5.63-3.79,4.16-5.13,1.52H1869.77v-3h204.51l4.36-1.05,2.94-2.7,1.19-3.95v-497.3h3Zm-4.67-946.16,4.17,4.14,1.53,5.63v400.7h-4V1372.75l-1.19-4.37-2.92-3-4.33-1.16h-227.1l-4.34,1.16-3,3-1.16,4.36v25.49h-3v-25.7l1.53-5.63,4.18-4.16,5.64-1.51H2075.4Z"/>
    <path class="cls-3" d="M1870.74,2320.23H1869l.27-2-.23-1h1.7Zm-33.42-896.49-7.65-23.51H1845Z"/>
    <path class="cls-3" d="M1837.33,1428.73l-9.89-30.5h19.78Zm-5.38-26.5,5.38,16.53,5.37-16.53Z"/>
    <g id="S-2">
      <path id="aE-29" d="M1987.77,1806.23v-31h8v3h-4v25h4v3h-8"/>
      <path id="aF-12" d="M1997.77,1797.23v-3.65l13.7-5.36-13.7-5.35v-3.76l17,6.48v5.64"/>
      <path id="aR-4" d="M2025.16,1776.14c6.23,0,7.68,4.94,7.68,11.63s-1.74,11.72-7.87,11.72-7.68-5.13-7.79-11.72C2017.09,1780.9,2018.74,1776.14,2025.16,1776.14Zm-.09,19.78c3.39-.46,3.3-4.22,3.3-8.15s.36-8.15-3.3-8.15-3.3,4.12-3.3,8.15-.28,7.78,3.3,8.15"/>
      <path id="ba" d="M2041.19,1794.16c-.09,3.84.18,7.87-1.74,10.07h-3a8.72,8.72,0,0,0,2.15-5h-1.83v-5h4"/>
    </g>
    <g id="T-2">
      <path id="aQ-6" d="M2053.77,1791.23v-5.64l17-6.48v3.76l-13.82,5.35,13.82,5.36v3.65"/>
      <path id="aZ-3" d="M2083.89,1787.49c3.12.37,5.13,1.92,5.4,5.31.64,8.34-13.55,8.61-15.75,2.57a7.93,7.93,0,0,1-.64-2.38l4.67-.46c.09,2.2,1.46,3.2,3.66,3.3s3.57-1.1,3.48-3.3c-.09-2.84-2.84-3.3-5.95-3.12v-3.66c2.93.18,5.4-.27,5.4-3a2.85,2.85,0,0,0-2.7-3,1.88,1.88,0,0,0-.41,0,3,3,0,0,0-3.2,2.78.76.76,0,0,1,0,.15l-4.57-.28c.54-4,3.38-6.22,7.87-6.22s7.6,1.83,7.6,6c0,3.21-2,4.76-4.85,5.31"/>
    </g>
    <g id="U-2">
      <path id="aS-9" d="M2101.77,1799.23v-24h5v24h-5"/>
      <path id="aL-7" d="M2110.77,1778.23v-3h5v3Zm0,21v-17h5v17h-5"/>
      <path id="aT-8" d="M2128.77,1799.23h-4.83l-6.09-17h4.75l4,13.42,4.3-13.42h4.84"/>
      <path id="aU-6" d="M2152.82,1794.71a7.38,7.38,0,0,1-7.51,4.76c-5.49-.18-8.15-3.39-8.15-9.16s2.75-9,8.24-9c5.68,0,7.61,4.12,7.7,9.89h-11.19c0,2.84.74,5,3.58,5.13,1.64,0,2.74-.64,3.12-2Zm-4.13-6.48c.46-4.21-5.22-5.77-6.4-1.92a6,6,0,0,0-.38,1.92h6.86"/>
      <path id="aO-20" d="M2166.73,1786.48c.1-2.65-6.4-3.11-6.5-.36,1.38,4.21,10.82.64,10.9,7.87.09,7.6-15,7-15.75.83l3.93-.64c.37,1.74,1.84,2.29,4,2.29,3,.73,5.22-2.75,2.2-3.76-3.94-1.28-9.34-1-9.52-6-.19-7.33,14.1-6.78,14.74-.64"/>
      <path id="aP-12" d="M2172.77,1806.23v-3h4v-25h-4v-3h9v31h-9"/>
    </g>
    <path class="cls-3" d="M1481.77,1496.23h-19v-3h19Z"/>
    <path class="cls-3" d="M1462.79,1496.23H1461l.28-2-.23-1h1.68ZM1681.53,1481l-1.76.57v-1.15Zm-18-5.74h-5.77v-1.88Z"/>
    <path class="cls-3" d="M1686.85,1481l-7.08,2.3v-4.61Zm-18.34-5.74h-12.74v-4.12Z"/>
    <g>
      <g id="S-3">
        <path id="aE-30" d="M1483.77,1508.23v-31h8v3h-4v25h4v3h-8"/>
        <path id="aF-13" d="M1493.77,1500.23V1496l13.7-5.36-13.7-5.35v-3.76l17,6.48v5.19"/>
        <path id="aR-5" d="M1521.16,1478.58c6.22,0,7.68,5,7.68,11.64s-1.74,11.72-7.88,11.72-7.68-5.13-7.78-11.72C1513.09,1483.35,1514.74,1478.58,1521.16,1478.58Zm-.1,19.79c3.39-.46,3.3-4.22,3.3-8.15s.37-8.16-3.3-8.16-3.29,4.13-3.29,8.16-.29,7.78,3.29,8.15"/>
        <path id="ba-2" d="M1537.18,1496.16c-.09,3.84.18,7.87-1.74,10.07h-3a8.71,8.71,0,0,0,2.14-5h-1.82v-5h4"/>
      </g>
      <g id="T-3">
        <path id="aQ-7" d="M1549.77,1493.23V1488l17-6.48v3.76l-13.82,5.35,13.82,5.36v4.2"/>
        <path id="aZ-4" d="M1579.9,1489.94c3.11.37,5.13,1.92,5.4,5.31.64,8.34-13.56,8.61-15.75,2.57a7.38,7.38,0,0,1-.64-2.38l4.67-.46c.09,2.2,1.46,3.2,3.66,3.29s3.57-1.09,3.48-3.29c-.09-2.84-2.84-3.3-6-3.12v-3.63c2.93.18,5.4-.27,5.4-3a2.86,2.86,0,0,0-2.71-3,1.79,1.79,0,0,0-.4,0,3,3,0,0,0-3.21,2.78v.15l-4.57-.28c.54-4,3.38-6.23,7.87-6.23s7.6,1.84,7.6,6c0,3.2-2,4.76-4.85,5.31"/>
      </g>
      <g id="U-3">
        <path id="aS-10" d="M1597.77,1501.23v-24h5v24h-5"/>
        <path id="aL-8" d="M1606.77,1481.23v-3h5v3Zm0,20v-17h5v17h-5"/>
        <path id="aT-9" d="M1624.77,1501.23h-4.83l-6.08-17h4.74l4,13.42,4.29-13.42h4.85"/>
        <path id="aU-7" d="M1648.82,1496.71a7.38,7.38,0,0,1-7.51,4.76c-5.5-.18-8.15-3.39-8.15-9.16s2.74-9,8.24-9c5.68,0,7.59,4.12,7.68,9.89h-11.16c0,2.84.73,5,3.56,5.13,1.66,0,2.75-.64,3.11-2Zm-4.12-5.48c.45-4.21-5.22-5.77-6.41-1.92a5.46,5.46,0,0,0-.37,1.92h6.85"/>
        <path id="aO-21" d="M1662.73,1488.93c.09-2.65-6.41-3.11-6.5-.36,1.37,4.21,10.81.64,10.9,7.87.08,7.6-15,7-15.75.83l3.93-.64c.37,1.74,1.83,2.29,4,2.29,3,.73,5.22-2.75,2.2-3.76-3.94-1.28-9.34-1-9.53-6-.18-7.33,14.11-6.78,14.75-.64"/>
        <path id="aP-13" d="M1668.77,1508.23v-3h4v-25h-4v-3h9v31h-9"/>
      </g>
    </g>
    <path class="cls-7" d="M476.07,1230.73a19.79,19.79,0,0,0-19.8,19.8v59.4a19.81,19.81,0,0,0,19.8,19.8H733.46a19.78,19.78,0,0,0,19.8-19.76v-59.44a19.76,19.76,0,0,0-19.75-19.8H476.07Z"/>
    <g>
      <g id="O-3">
        <path id="aX-6" d="M543.77,1278.23v7h-2v-7h-7v-2h7v-7h2v7h7v2h-7"/>
      </g>
      <g id="V-2">
        <path id="bb" d="M571,1265.11c7.51-.64,8.51,8,3.93,12.09l-5.67,5a8.33,8.33,0,0,0-2.66,4h12.22v2H563.35c.18-9.2,11.72-8.74,11.72-16.8,0-2.56-1.47-3.93-4.12-3.93s-4.22,1.37-4.49,3.75l-2.93-.27c.55-3.76,3.11-5.5,7.42-5.87"/>
      </g>
      <g id="W-3">
        <path id="aq-8" d="M600.58,1270.87c5.32.09,6.77,3.71,6.77,8.87s-1.55,8.88-6.77,9.06c-3,0-4.75-1.18-5.81-3.08l.09,9.51h-3.09l-.1-24h3l.2,2.72C595.83,1272.05,597.58,1270.87,600.58,1270.87ZM599,1286.23c3.65,0,4.12-3.11,4.12-6.87s-.55-6.68-4.12-6.78c-3.85,0-4.67,2.93-4.67,7s.91,6.69,4.67,6.69"/>
        <path id="ao-22" d="M616.64,1270.33c5.68-.09,7.78,3.39,7.78,9.07s-2.46,9.07-7.88,9.07-7.59-3.57-7.69-9.07C608.86,1273.36,611.42,1270.33,616.64,1270.33Zm-.1,15.94c4,.09,4.86-2.84,4.86-6.87s-.74-6.87-4.67-6.87-4.85,2.93-4.85,6.87.91,6.78,4.66,6.87"/>
        <path id="ad-13" d="M627.77,1267.23v-3h3v3Zm0,21v-17h3v17h-3"/>
        <path id="ab-14" d="M644.2,1270.87c8.15-.36,4.85,10.38,5.5,17.36h-2.93V1277.4c0-2.77-.73-4.38-3.57-4.29-6.61.18-4,9.13-4.5,15.12h-2.93l-.1-17h2.75a15.27,15.27,0,0,0,.18,2.86c1-2,2.66-3.13,5.6-3.22"/>
        <path id="ag-16" d="M656.29,1283.8c-.18,2.19,1.65,2.65,3.48,2v2.11c-2.84.86-6,.43-6-3.34v-11.34h-2v-2H654l.84-4h1.94v4h3v2h-3v11"/>
        <path id="af-14" d="M672.86,1275c-.27-3.11-7.87-3.48-8,0,1.37,4.86,10.54,1.1,10.9,8.25S662,1290,661.39,1284l2.56-.46c.37,3.3,8.88,4.12,9,0-.92-5.13-10.35-1.37-10.81-8.24-.37-5.22,7.51-5.77,11.16-3.85a4.59,4.59,0,0,1,2.21,3.21"/>
      </g>
    </g>
    <path class="cls-7" d="M888.07,1230.73a19.79,19.79,0,0,0-19.8,19.8v59.4a19.81,19.81,0,0,0,19.8,19.8h257.39a19.79,19.79,0,0,0,19.81-19.76v-59.44a19.78,19.78,0,0,0-19.76-19.8H888.07Z"/>
    <g>
      <g id="O-4">
        <path id="aX-7" d="M964.77,1278.23v7h-2v-7h-7v-2h7v-7h2v7h7v2h-7"/>
      </g>
      <g id="P-4">
        <path id="aY-4" d="M984.77,1288.23v-3h6v-17.4l-5,3.57v-2.26l4.78-3.91h2.22v21h6v2h-14"/>
      </g>
      <g id="X-3">
        <path id="aq-9" d="M1020.58,1270.87c5.32.09,6.76,3.71,6.76,8.87s-1.55,8.88-6.77,9.06c-3,0-4.75-1.18-5.81-3.08l.1,9.51h-3.1l-.1-24h3l.2,2.72C1015.83,1272.05,1017.58,1270.87,1020.58,1270.87Zm-1.26,15.4c3.65,0,4.11-3.11,4.11-6.87s-.54-6.68-4.11-6.78c-3.85,0-4.67,2.93-4.67,7s.9,6.69,4.67,6.69"/>
        <path id="ao-23" d="M1037,1270.33c5.68-.09,7.79,3.39,7.79,9.07s-2.48,9.07-7.88,9.07-7.6-3.57-7.69-9.07C1029.2,1273.36,1031.77,1270.33,1037,1270.33Zm-.09,15.94c4,.09,4.85-2.84,4.85-6.87s-.73-6.87-4.68-6.87-4.84,2.93-4.84,6.87.92,6.78,4.67,6.87"/>
        <path id="ad-14" d="M1048.77,1267.23v-3h3v3Zm0,21v-17h3v17h-3"/>
        <path id="ab-15" d="M1064.2,1270.87c8.16-.36,4.86,10.38,5.5,17.36h-2.93V1277.4c0-2.77-.73-4.38-3.57-4.29-6.61.18-4,9.13-4.5,15.12h-2.93l-.09-17h2.75a13.75,13.75,0,0,0,.18,2.86c1-2,2.66-3.13,5.59-3.22"/>
        <path id="ag-17" d="M1077.29,1283.8c-.19,2.19,1.65,2.65,3.48,2v2.11c-2.83.86-6,.43-6-3.34v-11.34h-3v-2H1074l.83-4h1.94v4h3v2h-3v11"/>
      </g>
    </g>
    <path class="cls-7" d="M1301.07,1230.73a19.79,19.79,0,0,0-19.8,19.8v59.4a19.81,19.81,0,0,0,19.8,19.8h257.4a19.79,19.79,0,0,0,19.8-19.76v-59.44a19.78,19.78,0,0,0-19.76-19.8H1301.07Z"/>
    <g>
      <g id="Y-2">
        <path id="ar-6" d="M1385.77,1280.23v-2h8v3h-8"/>
      </g>
      <g id="P-5">
        <path id="aY-5" d="M1406.77,1288.23v-3h6v-17.4l-5,3.57V1269l5.32-3.75h2.68v21h6v2h-15"/>
      </g>
      <g id="Q-4">
        <path id="aj-20" d="M1434.77,1288.23v-24h3v24h-3"/>
        <path id="ad-15" d="M1441.77,1267.23v-3h3v3Zm0,21v-17h3v17h-3"/>
        <path id="ai-8" d="M1455.86,1267.23c-2.83-.82-3.83.92-3.47,4h3.38v2h-3v15h-3v-15h-3v-2h2.53c-.65-4.52,1.6-7.13,6.47-5.91v.91"/>
        <path id="ae-31" d="M1464.94,1270.52c5.77,0,7.88,3.85,7.69,9.71h-12.36c0,3.66,1.28,6.14,4.84,6.23a4.28,4.28,0,0,0,4.49-2.66l2.57.73c-1,2.57-3.38,4.13-7.06,4.13-5.31,0-8.06-3.39-8-9.16C1457.24,1273.91,1459.54,1270.52,1464.94,1270.52Zm4.76,7.71c.55-5.49-7-7-8.88-2.56a6.23,6.23,0,0,0-.55,2.56h9.5"/>
      </g>
    </g>
    <path class="cls-8" d="M604.77,1136.23v62"/>
    <path class="cls-3" d="M606.77,1136.23h-3v-2h3Z"/>
    <path class="cls-9" d="M605.13,1223.74l-7.58-23.51h15.28Z"/>
    <path class="cls-8" d="M1016.77,1136.23v45.38c.19.1.25.17.34.17s.13.06.66.16v16.29"/>
    <path class="cls-3" d="M1018.77,1136.23h-3v-2h3Z"/>
    <path class="cls-9" d="M1017.23,1223.74l-7.59-23.51h15.28Z"/>
    <path class="cls-8" d="M1429.77,1136.23v62"/>
    <path class="cls-3" d="M1430.77,1136.23h-3v-2h3Z"/>
    <path class="cls-9" d="M1429.33,1223.74l-7.57-23.51H1437Z"/>
    <path class="cls-8" d="M1429.77,1334.23v99"/>
    <path class="cls-3" d="M1430.77,1334.23h-3v-2h3Z"/>
    <path class="cls-9" d="M1429.33,1458.75l-7.61-23.52H1437Z"/>
    <path class="cls-8" d="M1016.77,1334.23v112"/>
    <path class="cls-3" d="M1018.77,1334.23h-3v-2h3Z"/>
    <path class="cls-9" d="M1017.23,1470.75l-7.62-23.52h15.29Z"/>
    <path class="cls-8" d="M604.77,1334.23v112"/>
    <path class="cls-3" d="M606.77,1334.23h-3v-2h3Z"/>
    <path class="cls-9" d="M605.13,1470.75l-7.61-23.52H612.8Z"/>
    <path class="cls-8" d="M1025.77,444.23v62"/>
    <path class="cls-3" d="M1026.77,444.23h-3v-2h3Z"/>
    <path class="cls-9" d="M1025.47,530.74l-7.57-23.51h15.28Z"/>
    <path class="cls-8" d="M1021.77,576.23v62"/>
    <path class="cls-3" d="M1023.77,576.23h-3v-2h3Z"/>
    <path class="cls-9" d="M1021.85,662.74l-7.65-23.51h15.29Z"/>
    <path class="cls-8" d="M2020.77,576.23v62"/>
    <path class="cls-3" d="M2021.77,576.23h-3v-2h3Z"/>
    <path class="cls-9" d="M2020.46,662.74l-7.64-23.51h15.29Z"/>
    <path class="cls-7" d="M1074.1,166.73a56.86,56.86,0,1,1-56.84-56.87h0A56.87,56.87,0,0,1,1074.1,166.73Zm-194.95,372H2260.38a9.92,9.92,0,0,1,9.89,9.89v13.22a9.93,9.93,0,0,1-9.89,9.89H879.16a9.92,9.92,0,0,1-9.89-9.89V548.62a9.91,9.91,0,0,1,9.89-9.89ZM456.27,680.62a9.91,9.91,0,0,1,9.89-9.89H1567.38a9.89,9.89,0,0,1,9.89,9.89h0v13.2a9.9,9.9,0,0,1-9.88,9.9H466.16a9.92,9.92,0,0,1-9.89-9.89Zm0,807.94a9.84,9.84,0,0,1,9.86-9.83h720.26a9.88,9.88,0,0,1,9.88,9.83v14.34a9.89,9.89,0,0,1-9.88,9.83H466.15a9.87,9.87,0,0,1-9.88-9.83Zm1760.18-224.33a16.49,16.49,0,1,1-16.49-16.49h0a16.47,16.47,0,0,1,16.48,16.48Zm-362.65,0a16.49,16.49,0,1,1-16.49-16.49h0a16.48,16.48,0,0,1,16.49,16.48h0Zm-408,591a16.49,16.49,0,1,1-16.49-16.49h0a16.47,16.47,0,0,1,16.52,16.42Z"/>
  </g>
</svg>
