<svg id="Layer_1" data-name="Layer 1" xmlns="http://www.w3.org/2000/svg" width="758.2" height="760" viewBox="0 0 758.2 760">
  <defs>
    <style>
      .cls-1 {
        fill: #c69696;
      }
    </style>
  </defs>
  <g>
    <path class="cls-1" d="M358,1.83C230.55,11.86,128.82,114,119.2,241.42a260.08,260.08,0,0,0,74.53,203.51,258,258,0,0,1,73.33,154v.71a1.58,1.58,0,0,0,1.58,1.58H488.42a1.58,1.58,0,0,0,1.58-1.58v-.71A252.16,252.16,0,0,1,513.77,516a260.34,260.34,0,0,1,50-70.42,259.79,259.79,0,0,0,76-183.92C639.77,110.73,511.48-10.25,358,1.83Zm-129.09,184a21.68,21.68,0,1,1-42.54-8.43A133.93,133.93,0,0,1,291.48,72.32a21.68,21.68,0,1,1,8.42,42.53A90.56,90.56,0,0,0,228.89,185.88Z"/>
    <path class="cls-1" d="M485.4,620.66H272.8c-3.17,0-5.74,4.21-5.74,9.4v55.66a12.84,12.84,0,0,0,1.84,6.9l42.24,63.88A4.83,4.83,0,0,0,315,759H443.16a4.83,4.83,0,0,0,3.9-2.5l42.24-63.88a12.84,12.84,0,0,0,1.84-6.9V630.06C491.14,624.87,488.57,620.66,485.4,620.66Z"/>
  </g>
</svg>
