<svg id="Layer_2" data-name="Layer 2" xmlns="http://www.w3.org/2000/svg" width="320.29mm" height="185.55mm" viewBox="0 0 907.91 525.96">
  <defs>
    <style>
      .cls-1 {
        fill: #C69696;
      }
    </style>
  </defs>
  <path class="cls-1" d="M46.9,216.93c-2.54-25.87.44-51.9-2-77.76-1.13-11.95-3.36-23.16-7.81-34.32-3.78-9.48-8.69-19.2-9.9-29.47L4.82,81.44c12,18.59,29.57,35.09,50.54,42.88,22.37,8.32,44.05-1.33,61.29-15.78C131.17,96.36,149.09,77.78,143,56.87a22,22,0,0,0-25.21-15.66c-10.54,1.88-16.87,11.49-19.91,21-3.13,9.81-2.44,20.33-2.13,30.47.34,10.93,1,21.84,1.78,32.74,1.74,23.17,4.38,46.26,7.43,69.28,6.32,47.78,14.35,95.3,21.14,143,3.05,21.4,5.87,42.85,7.75,64.38.92,10.64,1.43,21.29,1.32,32-.1,10.09.13,20.24-2.67,29.79a56.16,56.16,0,0,1-14.25,23.74c-2.94,2.94-6.47,6.1-10,7.67A22.25,22.25,0,0,1,97.55,497c-9.7-1.1-18.46-7.3-25.35-13.94a82.1,82.1,0,0,1-6.12-6.67c1.9,2.29-1-1.37-1.41-2-1-1.5-2-3.05-2.86-4.63-.73-1.31-1.38-2.66-2.06-4-.27-.53-.5-1.09-.75-1.63,1.19,2.54.27.67,0,0a82.49,82.49,0,0,1-2.81-9c-.36-1.46-.67-2.93-.94-4.41-.11-.59-.18-1.2-.31-1.79-.61-3,.19,2.66-.06-.43s-.54-6.16-.58-9.26.07-6.36.3-9.53c.13-1.62.32-3.23.47-4.85.2-2.29,0-.17-.06.26.16-1.16.34-2.3.53-3.45a165.85,165.85,0,0,1,4.8-20.51c2-6.88,4.48-13.65,7.17-20.3.34-.85.69-1.7,1-2.54.82-2-1.13,2.55.3-.69.75-1.69,1.49-3.38,2.25-5.06q2.31-5.07,4.8-10.06A415.68,415.68,0,0,1,98.54,323q11.19-17.4,23.72-33.88c.84-1.11,1.69-2.22,2.54-3.32-1.89,2.46,1-1.21,1.43-1.82q2.88-3.68,5.83-7.28,4.68-5.75,9.55-11.33c5.56-6.36,11.62-12.09,17.42-18.21a157.08,157.08,0,0,0,34.84-59A150.33,150.33,0,0,0,200.53,155L177,158.18c.14.51.2,1.06.36,1.56.64,2.1-.08-3.16-.1-.84,0,1.22.18,2.47.22,3.69.09,3.21,0,6.43-.17,9.64-.33,7.53-.84,15.05-.88,22.59-.11,17.25,1.83,36.35,12,50.89a54.27,54.27,0,0,0,21.94,18.68c13.16,6,26.46,2.21,37.35-6.53,15.36-12.34,20.85-31.12,24.79-49.58,4.21-19.74,9.21-44.72.09-63.8-5.84-12.22-26.21-3.63-21.93,9.25,6.4,19.29,9.66,39.51,16.47,58.65,6.22,17.52,16.25,33.76,34.9,39.65,16.54,5.23,36.56,1.81,48-11.85,11.18-13.31,14.8-30.72,17.05-47.51,2.76-20.64,3-41.51,5.71-62.15.76-5.83-5.15-11.16-10.41-11.78a12,12,0,0,0-13.16,8.59c-5.06,16.66,3.85,32.12,15.57,43.44a168.9,168.9,0,0,0,18,14.57c4.11,3,10.13,7.37,12.86,9.51a171.25,171.25,0,0,1,14.61,12.7c4.9,4.84,7.52,7.65,10.69,13.27.39.69,1.69,3.34,1.41,2.65s.68,2.07.84,2.69.32,1.37.47,2.06c0-.17-.17-2-.1-.6,0,.93-.46,4.93.1,2.49a16.21,16.21,0,0,1-6.83,9.76c-.26.15-2.43,1.2-1.12.65s-.49.13-.61.16a20.8,20.8,0,0,1-2,.48c.55-.1,2.33-.1.19-.16-2.3-.07,1.51.68-.63,0-.59-.19-1.21-.35-1.8-.53,1.44.43,1.17.61,0-.16-2.34-1.48.94.58-.75-.65-.34-.24-1.74-1.84.18.32-.2-.23-.44-1.05-.69-1.17-1.08-.55.61,1.58.15.33a5.07,5.07,0,0,1-.36-1.36c-.05,3.42.39-2.68-.08.42.09-.58,1.26-4.07.58-2.56a21.84,21.84,0,0,1,1.92-3.3c2-2.71,5.33-5.79,7.93-8.36,6-5.93,12.25-11.53,18.53-17.13,11.71-10.46,23.51-21,32.53-33.94,9.6-13.79,14-31.3,16.24-47.73,2.65-19.19,2-38.37-.29-57.56-1.9-16-4.68-28.81-5.26-44.36-.58-15.38-24.39-15.5-24,0,.92,36.26,2.55,72.5,7.51,108.46a425,425,0,0,0,10.06,51c3.37,12.63,6.65,25.51,12.41,37.31,6,12.35,16.28,22.22,30.42,23.52,11,1,20.68-6.54,27.94-13.92a104.92,104.92,0,0,0,23-36.83c6-16.07,6.3-34.14,7.13-51.09C578,99,574.63,56.23,567.55,14.06l-23.14,6.38c.37,1.5.67,3,1,4.54.17,1,.33,2,.49,3s1,5.09.12.74c1,5.16,1.24,10.6,1.75,15.83,1.32,13.52,2.44,27.05,3.74,40.57,3,31.34,6.38,63.07,14.2,93.63,5.66,22.12,15,52.59,39.31,60.62a29.16,29.16,0,0,0,32.21-9.29c9-11,12.72-25.64,15-39.43a264.62,264.62,0,0,0,3-54.52c-.6-13.18-1.19-27.95-7.09-40-5.09-10.43-23.46-5.71-22.36,6.06,2.86,30.65,3.77,62.38,16.23,91,6.45,14.84,17.4,27.25,33.33,32,25.1,7.47,40-22.57,46.28-41.64,8.74-26.33,5.71-54.67,8.72-81.85.65-5.85-5.06-11.15-10.4-11.79-5.6-.66-11.91,2.67-13.17,8.6-4.28,20.11-3.66,41.35-2.87,61.77.79,20.64,2.43,41.25,4.51,61.79,1.7,16.79,4.53,33.32,6.92,50,5.16,36,8.39,72.34,10,108.69q1.2,27.84,1,55.7c-.06,9-.19,18-.5,27-.24,6.91-.57,13.69-2.9,20.25-3.91,11.09-13,14.11-23.48,13.38a30.76,30.76,0,0,1-14.62-5.56,42.7,42.7,0,0,1-11.64-13.29c-15.33-26-12.13-60.6-3.28-88.41,9.82-30.85,28.6-58.11,49.18-82.75,21.34-25.55,44-50.76,69.32-72.51,23.95-20.63,51.78-37.62,82.88-44.63A126.36,126.36,0,0,1,893.36,187c6.47-.29,12-5.3,12-12,0-6.27-5.5-12.29-12-12-73.88,3.36-129.18,56.94-175.6,109s-93.83,119.88-75.31,193.71c7.69,30.61,32.09,59.49,66.46,55,17-2.2,30.08-12.48,36.27-28.43,6.31-16.26,4.88-35.74,5-52.87a1131.82,1131.82,0,0,0-4.92-116.16q-2.82-29.82-7.16-59.48-1-6.76-2-13.53-.54-3.37-1.09-6.76c-.21-1.27-.32-2.6-.64-3.85-.56-2.26-.1,0-.06.24-.19-1.15-.28-2.32-.41-3.48q-3-25.92-4.75-51.95c-1.55-22.83-2.85-46.05-.83-68.9.11-1.26.25-2.53.37-3.79.05-.46.12-.91.17-1.37.18-1.75-.35,2.23-.08.54.33-2,.65-4,1.08-6l-23.57-3.19c-2.28,20.56-.6,41.63-4.43,62a100.93,100.93,0,0,1-9.34,27c-1.87,3.71-3.3,6.2-5.66,8.51-1.14,1.11-2.5,1.79-3.66,2.79.59-.51-.43.22-.82.34,1.75-.55-1.06-.6.52,0a90.76,90.76,0,0,1-8.37-3.91c-.5-.25-1.82-1.42.26.28-.46-.37-.95-.75-1.38-1.17-1.11-1.08-2.2-2.15-3.24-3.31,0,0-1.93-2.46-.85-1,.92,1.25-.3-.46-.5-.76-.82-1.27-1.64-2.53-2.39-3.84s-1.34-2.43-1.95-3.68c-.32-.63-.6-1.29-.92-1.92-1.22-2.48.43,1.25-.5-1.14A141.6,141.6,0,0,1,657,162c-.8-3.53-1.49-7.08-2.12-10.64-.27-1.58-.53-3.17-.78-4.75l-.36-2.38c-.06-.43-.51-3.64-.23-1.53-1.8-13.46-2.55-27-3.81-40.53l-22.36,6.06c1.08,2.22-1-3.33-.17-.34.24.9.57,1.79.82,2.7.6,2.25,1,4.54,1.44,6.83.2,1.22.36,2.44.56,3.66-.62-3.82.06.69.15,1.58.35,3.23.61,6.47.81,9.71a266.31,266.31,0,0,1-.91,43.93c-.18,1.72-.39,3.43-.61,5.14.37-2.84-.32,2.1-.45,2.85-.57,3.52-1.25,7-2.07,10.5-.7,2.92-1.49,5.83-2.44,8.68-.48,1.46-1,2.89-1.58,4.33-.62,1.64,1.34-2.65.12-.3-.35.68-.65,1.4-1,2.08-.61,1.18-1.25,2.35-2,3.47-.3.48-.67.94-1,1.44-1.18,2,2-1.83.27-.35a14.15,14.15,0,0,0-2.15,2.23c-.9,1.3.71-.56,1.06-.75a22.38,22.38,0,0,0-1.92,1.23c-2.31,1.64,2.54-.59-.22,0-2.92.68,2.91.16-.12.07-.86,0-1.87-.12-2.73-.05-2.06.18,3,.83,1.09.15-.49-.17-1-.22-1.55-.35a13.72,13.72,0,0,1-2.49-.83c.08-.61,3.12,1.72.94.33-.3-.19-.64-.34-.94-.51a17.94,17.94,0,0,0-2.52-1.66c-1.21-.4,2.28,2.13.88.66-.45-.49-1-.9-1.5-1.37-.8-.76-1.53-1.59-2.28-2.39-.28-.3-.51-.66-.81-.95-1.65-1.64,1.56,2.42.31.41s-2.82-4.13-4.05-6.32-2.34-4.39-3.37-6.65c-.33-.72-.64-1.44-1-2.16.12.27,1,2.62.28.65-.58-1.54-1.22-3.07-1.78-4.63-2.21-6-4-12.21-5.64-18.44a405.13,405.13,0,0,1-8.17-42.18c-.25-1.74-.5-3.48-.74-5.22-.06-.38-.53-3.88-.14-1-.12-.87-.23-1.74-.35-2.62-.5-3.84-1-7.68-1.41-11.53q-1.29-11.06-2.35-22.14c-1.43-14.52-2.62-29.06-4-43.58-1-10.13-1.7-20.58-4.17-30.48C566,7.77,558.93,4,552.79,5.68,546,7.54,543.33,14,544.41,20.44a573.19,573.19,0,0,1,8.1,100.8c-.17,16.52-.79,33.69-2.82,49.84-1.53,12.1-7,23.55-14.14,33.63a69.65,69.65,0,0,1-9.67,10.75c-.79.72-1.6,1.42-2.44,2.09,1.72-1.39-.4.23-1.09.67s-1.49.87-2.23,1.31c-2.35,1.39,1.43-.44-.22.11-2.34.8.45.07.49.07a5.34,5.34,0,0,1-1.44,0c.2,0,1.78.36.41,0-.51-.11-3.18-.92-2.15-.51,1.23.5-.33-.18-.48-.28-.59-.38-1.21-.72-1.8-1.1,1.82,1.18-.75-.74-1.25-1.24s-2.06-2.37-1.59-1.75-1.06-1.64-1.36-2.13c-.85-1.37-1.62-2.79-2.34-4.23a33.11,33.11,0,0,1-2.28-5.28c-1.06-2.85-2-5.75-2.88-8.65-1.66-5.46-3.15-11-4.65-16.49A412.23,412.23,0,0,1,489,131.63c-5.4-35.82-6.64-72.2-7.56-108.36h-24c.53,14.1,3.34,28.78,5,42.06,2.18,17.63,3.29,35.44,1.42,53.16-1.61,15.3-6.19,32.7-15.34,44.43-10.24,13.14-23.74,23.63-36,34.81-11.82,10.8-27.88,23.63-27,41.34.71,15,13.91,26.44,28.77,25.9,15.5-.56,29.76-14,32.65-29,2.94-15.31-4.95-29-14.7-40.16-10.35-11.8-23.39-21.1-36-30.28-6.61-4.8-13.08-9.82-18.59-16.1a32.27,32.27,0,0,1-5.13-7.95c.12.33-.89-4.69-.77-3-.2-2.76-.12-2.13.68-4.78l-23.57-3.19c-2.13,16.42-2.67,33-4.25,49.48q-.27,2.79-.58,5.59c-.07.65-.67,5.47-.4,3.5-.56,4.08-1.24,8.16-2.11,12.18a102.71,102.71,0,0,1-2.66,10.1q-.8,2.46-1.76,4.86c1-2.41-.84,1.69-1.27,2.49-.74,1.39-1.57,2.7-2.41,4-.32.51-.69,1-1.05,1.49,1.81-2.43,0-.08-.41.31-.95.92-1.86,1.84-2.86,2.71-1.25,1.08,2.43-1.23,0-.06-.76.36-1.53.92-2.26,1.33-.15.09-2.77,1.21-1,.51s-1,.29-1.13.32l-1.81.48c-.08,0-3.16.59-1.27.31s-1.39.08-1.43.09c-.71,0-1.42.05-2.13.05-1.27,0-2.54-.1-3.81-.14-2.52-.07,1,.39-1.52-.18-1.62-.36-3.21-.79-4.81-1.24-.61-.17-2.72-1.15-.55-.13-.62-.29-1.23-.59-1.83-.92s-4.55-3.09-2.56-1.46a51.16,51.16,0,0,1-4-3.81c-.42-.42-1.84-2.21-.39-.33-.43-.55-.82-1.12-1.21-1.69-1-1.47-1.93-3-2.79-4.56a49.81,49.81,0,0,1-3.91-8.68c-7.13-19.45-10.35-40.13-16.88-59.79l-21.93,9.25c1.08,2.27-.45-2.63,0,0,.08.51.34,1.1.47,1.62.21.79.92,5.33.58,2.32a83.87,83.87,0,0,1,.39,12.07c-.14,4.12-.5,8.23-1,12.32,0,.22-.29,2.34-.06.63-.17,1.27-.37,2.55-.57,3.82q-.49,3.16-1.08,6.33a210.38,210.38,0,0,1-5.7,23.62c-.83,2.67-1.78,5.3-2.78,7.91,1.47-3.83-.89,1.53-1.56,2.67a33,33,0,0,1-3.84,5.35c-2.89,3.23-5.64,5.84-9.59,7.52,1.46-.62-2.51.69-2.24.63-.26.06-2.29.22-.71.11a7.3,7.3,0,0,1-3.88-.91,25.25,25.25,0,0,1-7.6-5.15,41.72,41.72,0,0,1-3.56-3.84c.32.39,1.21,1.82,0,0-.65-1-1.33-2-1.93-3-.78-1.34-1.45-2.72-2.14-4.1-1.46-3,.66,2.22-.36-.95-.22-.65-.47-1.3-.69-2a84.9,84.9,0,0,1-2.68-11.23c-.62-3.36.16,1.57-.08-.5-.11-.89-.2-1.77-.29-2.66-.16-1.77-.29-3.55-.37-5.33-.19-3.71-.22-7.42-.16-11.12.21-13.29,3.06-27.85-.3-40.93a12,12,0,0,0-13.17-8.59c-6.23.94-9.84,5.67-10.4,11.78-1.91,20.53-9.63,40.57-20.85,57.85-7,10.8-16.15,19.29-24.84,28.62-15.13,16.25-28.77,34.06-41.51,52.23-17.08,24.39-32.21,50.16-43.69,77.67-10.75,25.77-18.14,54-14.08,82.08A79,79,0,0,0,45,487.93c11.17,15.63,28.17,29.51,47.62,32.38,24,3.53,43.86-12.48,55.41-32.3,11.06-19,11.5-40.54,11.16-61.91s-3-42.85-5.75-64.1c-2.91-22.79-6.27-45.52-9.73-68.23-6.92-45.32-14.31-90.6-19.19-136.2-2.36-22.08-4.16-44.25-4.77-66.46-.13-4.61-.34-9.26-.21-13.87,0-1.24.1-2.48.25-3.7-.07.58-.34,1.82.16-.59.22-1,.46-2.09.75-3.12.13-.45,1.48-4,.71-2.38.33-.72.77-1.38,1.11-2.08,1.49-3.08.08-.09.07-.29l.73-.77c-1.14.74-1.14.74,0,0-.35.44-2.35.46-.1.17-.16,0-3.11-.07-1.61.25s-1.23-.83-1.46-1c1.57,1.08.15.34-.15-.27.61,1.18.58,1.1-.1-.24l.25,1L120,63.05a19,19,0,0,1,.07,2.14c0,.39-.16,2.38.13.14a24.85,24.85,0,0,1-1.49,5.61c.66-1.73,0,0-.21.35a33.82,33.82,0,0,1-1.75,3c.34-.52,1.57-1.84-.42.48-1,1.16-2,2.32-3,3.45C106.6,85.73,99.2,92.9,90.43,98c-7.69,4.5-16,6.62-23.22,4.84-8.5-2.07-16.27-6.91-23.1-12.73A96.35,96.35,0,0,1,25.55,69.32,12.33,12.33,0,0,0,12,63.81c-4.67,1.28-9.42,6.42-8.81,11.57C5.83,97.71,18.78,116.7,20.9,139.17c2.44,25.86-.54,51.89,2,77.76.64,6.45,5.06,12,12,12,6,0,12.64-5.51,12-12Z"/>
  <path class="cls-1" d="M382.49,115c41.75,17.8,86.89,1.07,128.17-10.08,43.72-11.8,87.75-23.5,132.72-29.52A435.26,435.26,0,0,1,718,71.65c6.48.25,12-5.7,12-12a12.19,12.19,0,0,0-12-12c-44.62-1.74-89.17,4.46-132.71,13.86-43.07,9.29-85.07,22.63-127.93,32.66-20.08,4.7-43.09,8.49-62.78.1-6-2.54-12.86-1.78-16.42,4.31-2.95,5-1.69,13.86,4.31,16.41Z"/>
</svg>
