<?xml version="1.0" encoding="utf-8"?>
<!-- Generator: Adobe Illustrator 24.3.0, SVG Export Plug-In . SVG Version: 6.00 Build 0)  -->
<svg version="1.1" id="Layer_1" xmlns="http://www.w3.org/2000/svg" xmlns:xlink="http://www.w3.org/1999/xlink" x="0px" y="0px"
	 viewBox="0 0 506 528" style="enable-background:new 0 0 506 528;" xml:space="preserve">
<style type="text/css">
	.st0{fill:none;stroke:#000000;stroke-miterlimit:10;}
	.st1{fill:none;stroke:#000000;stroke-width:2;stroke-miterlimit:10;}
	.st2{fill:none;stroke:#000000;stroke-width:3;stroke-miterlimit:10;}
	.st3{fill:none;stroke:#000000;stroke-width:5;stroke-miterlimit:10;}
	.st4{fill:none;stroke:#000000;stroke-width:0.8;stroke-miterlimit:10;}
	.st5{fill:none;stroke:#000000;stroke-width:0.5;stroke-miterlimit:10;}
	.st6{display:none;}
	.st7{display:inline;fill:none;stroke:#000000;stroke-miterlimit:10;}
	.st8{display:inline;fill:none;stroke:#000000;stroke-width:2;stroke-miterlimit:10;}
	.st9{display:inline;fill:none;stroke:#000000;stroke-width:3;stroke-miterlimit:10;}
	.st10{display:inline;fill:none;stroke:#000000;stroke-width:0.5;stroke-miterlimit:10;}
	.st11{display:inline;fill:none;stroke:#000000;stroke-width:5;stroke-miterlimit:10;}
	.st12{fill:none;stroke:#000000;stroke-width:0.3;stroke-miterlimit:10;}
	.st13{fill:none;stroke:#000000;stroke-width:0.7;stroke-miterlimit:10;}
	.st14{fill:none;stroke:#000000;stroke-width:0.4;stroke-miterlimit:10;}
	.st15{fill:none;stroke:#000000;stroke-width:0.2;stroke-miterlimit:10;}
</style>
<g id="Layer_2_1_">
	<path class="st0" d="M270.4,26.4c84,9.6,142.6,66.6,170.4,117c17.8,32.3,22.8,61.5,25.6,78.9c3.2,19.9,13.3,87.8-22.1,160.9
		c-10.5,21.7-35.3,73-92.4,104.9c-75.4,42.2-170.8,30-237.5-15.3c-59.8-40.6-83.2-98.9-91.6-125.6C-2,268.1,13,172.3,75.6,104.2
		C90.2,88.4,162.6,14,270.4,26.4z"/>
	<path class="st1" d="M46.8,173.4C86.5,81.6,190.3,17.7,289.7,37.8c128.8,26,210.3,184.9,158,311.6C404.5,454,275.9,521.8,162.3,477
		C42.8,430-0.2,282.2,46.8,173.4z"/>
	<path class="st2" d="M21.9,236.4C54.2,97.9,191.8,16.5,315.5,49c113.1,29.8,185.2,147.3,170.1,252.3
		C463.7,453.8,262,547.8,133.7,476.6C58.3,434.7,15.2,339.6,21.9,236.4z"/>
</g>
<g id="Layer_3">
	<path class="st3" d="M23.1,241C35.6,112.1,157.1,6.3,288.4,26.6c123.8,19.2,206.9,142.9,191.3,264.7
		c-15.6,122.1-127.7,223.1-255.9,208C96.4,484.3,11.5,361.2,23.1,241z"/>
	<path class="st4" d="M107.1,477.3C-7.6,391.6-27.2,167.6,101,69.9C218.9-20,423.2,26.2,483.3,166.3
		c58.8,137.1-48.2,299.6-178.7,339.5C295.5,508.7,190,539.2,107.1,477.3z"/>
	<path class="st1" d="M39.4,230.6C67.4,96.1,236.8,0.9,358.7,62c88.8,44.5,131.9,161.8,102.6,257.6
		C421.6,449.6,254.4,522.8,139.9,460C60.3,416.3,21.7,315.4,39.4,230.6z"/>
	<path class="st1" d="M26.5,213.6C54.5,79.2,223.9-16,345.8,45.1c88.8,44.5,131.9,161.8,102.6,257.6
		c-39.7,130-206.9,203.1-321.4,140.3C47.4,399.4,8.8,298.5,26.5,213.6z"/>
</g>
<g id="Layer_4">
	<path class="st4" d="M32.8,238.1C50.4,104.3,195.2,3.2,322.9,42.5c102.9,31.7,165.9,145.6,150.2,250.9
		c-18.6,124.8-146,225.5-273.1,195.8C88.3,463,18.7,345.8,32.8,238.1z"/>
	<path class="st5" d="M18.8,230.6C43.2,89.1,202.8-14.6,337.1,33c103.7,36.8,164.7,153.9,149.6,258.9
		c-20.7,143.6-182.2,253.6-318.8,205.6C62.4,460.4,0.2,339,18.8,230.6z"/>
	<path class="st4" d="M8.5,249C19.6,96.8,181.4-27.3,325.5,13.1c111.9,31.4,183.8,153.7,172,268.4
		C483,421.9,344.2,542.4,201.8,513.8C80.4,489.5,0.1,365.3,8.5,249z"/>
</g>
<g id="Layer_5" class="st6">
	<path class="st7" d="M473.5,157.8c52.9-11.7,89.3-2.1,106.9,4.3c13.7,5,22.2,10.3,27.8,18.9c14.7,22.9,4.2,61.8-15.9,71.1
		c-13.3,6.1-22.5-4.5-53.6-7.7c-20.1-2-37,0.3-48.3,2.7"/>
	<path class="st7" d="M487,308.8c11.9,0.4,41-0.4,70.6-18.8c21.5-13.4,33.9-30.3,40.1-40.1"/>
	<path class="st8" d="M475.8,168c52.9-11.7,89.3-2.1,106.9,4.3c13.7,5,22.2,10.3,27.8,18.9c14.7,22.9,4.2,61.8-15.9,71.1
		c-13.3,6.1-22.5-4.5-53.6-7.7c-20.1-2-37,0.3-48.3,2.7"/>
	<path class="st8" d="M489.3,319c11.9,0.4,41-0.4,70.6-18.8c21.5-13.4,33.9-30.3,40.1-40.1"/>
	<path class="st9" d="M475.7,139.9c52.9-11.7,89.3-2.1,106.9,4.3c13.7,5,22.2,10.3,27.8,18.9c14.7,22.9,4.2,61.8-15.9,71.1
		c-13.3,6.1-22.5-4.5-53.6-7.7c-20.1-2-37,0.3-48.3,2.7"/>
	<path class="st9" d="M489.2,290.9c11.9,0.4,41-0.4,70.6-18.8c21.5-13.4,33.9-30.3,40.1-40.1"/>
	<path class="st8" d="M493.6,156.2c52.9-11.7,89.3-2.1,107,4.3c13.7,5,22.2,10.3,27.8,18.9c14.7,22.9,4.2,61.8-15.9,71.1
		c-13.3,6.1-22.5-4.5-53.6-7.7c-20.1-2-37,0.3-48.3,2.7"/>
	<path class="st8" d="M507.1,307.1c11.9,0.4,41-0.4,70.6-18.8c21.5-13.4,33.9-30.3,40.1-40.1"/>
	<path class="st10" d="M479.3,160.2c52.9-11.7,89.3-2.1,106.9,4.3c13.7,5,22.2,10.3,27.8,18.9c14.7,22.9,4.2,61.8-15.9,71.1
		c-13.3,6.1-22.5-4.5-53.6-7.7c-20.1-2-37,0.3-48.3,2.7"/>
	<path class="st10" d="M492.8,311.2c11.9,0.4,41-0.4,70.6-18.8c21.5-13.4,33.9-30.3,40.1-40.1"/>
	<path class="st11" d="M480.1,149.2c52.9-11.7,89.3-2.1,106.9,4.3c13.7,5,22.2,10.3,27.8,18.9c14.7,22.9,4.2,61.8-15.9,71.1
		c-13.3,6.1-22.5-4.5-53.6-7.7c-20.1-2-37,0.3-48.3,2.7"/>
	<path class="st11" d="M493.6,300.2c11.9,0.4,41-0.4,70.6-18.8c21.5-13.4,33.9-30.3,40.1-40.1"/>
</g>
<g id="Layer_6">
	<path class="st0" d="M228.9,126.4c10.4-13.6,31.9-22.1,40.7-16c9.9,6.9,6.4,34.3-6.6,51.6c-9,11.9-17.2,12-28.3,27.4
		c-9.3,12.9-13.7,27.1-11.3,28.6c4,2.4,20.5-33.6,49.9-38c12.9-1.9,30.6,0.1,38.8,11c14,18.6-7,52.4-12.8,61.7
		c-23.4,37.6-58.1,50.9-55.8,55c2,3.6,32.2-2.4,58.2-23.1c35.5-28.3,41-66.2,47.1-64.6c6.3,1.6,9.1,43.8-12.4,79.1
		c-25.5,41.8-84.4,44.6-82.2,56.2c1.1,5.7,15.3,8.5,25.8,8.6c41.3,0.1,82.4-43.7,93.1-89.3c6.9-29.4,0.2-56.1,2.3-56.4
		c2.5-0.3,9.7,22,10.8,46.7c0.6,13.1,1.9,44.1-15.1,73.6c-24.4,42.2-71.2,54.8-88.7,59.5c-9.4,2.5-84.9,21.7-138.4-18.5
		c-62.4-47-57.7-146.9-56.6-147.1c0.7-0.1,0.6,41.6,31.1,79c33.9,41.7,88.3,56.7,91.1,52.2c1.1-1.8-13.6-14.3-43.1-39.1
		c-29.5-24.9-43.4-35.1-52.8-55.6c-6.1-13.3-9.3-28.7-5.7-30.5c5.9-3,22.1,34.1,63.6,56.4c21.2,11.4,41.3,14.8,42.6,12
		c2.4-5-57.6-23.2-74.4-69.2c-2-5.4-14.6-33.1-2.3-46.1c12.1-12.8,43.3-6.6,60.8,7.2c10.3,8.1,15.6,18.6,15.8,18.4
		c0.3-0.2-9.1-15.6-26.1-38.7c-19.9-27.2-26.6-32.8-25-42.4c2-11.8,15.3-23.1,25.5-21.6c15.4,2.2,20,31.9,28.9,30.6
		C222.3,143.8,221.9,135.5,228.9,126.4z"/>
	<path class="st5" d="M227.4,120.6c10.4-13.6,31.9-22.1,40.7-16.1c9.9,6.9,6.4,34.3-6.6,51.6c-9,11.9-17.2,12-28.3,27.4
		c-9.3,12.9-13.7,27.1-11.3,28.6c4,2.4,20.5-33.6,49.9-38c12.9-1.9,30.6,0.1,38.8,11c14,18.6-7,52.4-12.8,61.7
		c-23.4,37.6-58.1,50.9-55.8,55c2,3.6,32.2-2.4,58.2-23.1c35.5-28.3,41-66.2,47.1-64.6c6.3,1.6,9.1,43.8-12.4,79
		c-25.5,41.8-84.4,44.6-82.2,56.2c1.1,5.7,15.3,8.5,25.8,8.6c41.3,0.1,82.4-43.7,93.1-89.3c6.9-29.4,0.2-56.1,2.3-56.4
		c2.5-0.3,9.7,22,10.8,46.7c0.6,13.1,1.9,44.1-15.1,73.6c-24.4,42.2-71.2,54.8-88.7,59.5c-9.4,2.5-84.9,21.7-138.4-18.5
		c-62.4-47-57.7-146.9-56.6-147.1c0.7-0.1,0.6,41.6,31.1,79c33.9,41.7,88.3,56.7,91.1,52.2c1.1-1.8-13.6-14.3-43.1-39.1
		c-29.5-24.9-43.4-35.1-52.8-55.6c-6.1-13.3-9.3-28.7-5.7-30.5c5.9-3,22.1,34.1,63.6,56.4c21.2,11.4,41.3,14.8,42.6,12
		c2.4-5-57.6-23.2-74.4-69.2c-2-5.4-14.6-33.1-2.3-46.1c12.1-12.8,43.3-6.6,60.8,7.2c10.3,8.1,15.6,18.6,15.8,18.4
		c0.3-0.2-9.1-15.6-26.1-38.7c-19.9-27.2-26.6-32.8-25-42.4c2-11.8,15.3-23.1,25.5-21.6c15.4,2.2,20,31.9,28.9,30.6
		C220.8,138.1,220.4,129.8,227.4,120.6z"/>
	<path class="st12" d="M236.7,138.2c10.4-13.6,31.9-22.1,40.7-16.1c9.9,6.9,6.4,34.3-6.6,51.6c-9,11.9-17.2,12-28.3,27.4
		c-9.3,12.9-13.7,27.1-11.3,28.6c4,2.4,20.5-33.6,49.9-38c12.9-1.9,30.6,0.1,38.8,11c14,18.6-7,52.4-12.8,61.7
		c-23.4,37.6-58.1,50.9-55.8,55c2,3.6,32.2-2.4,58.2-23.1c35.5-28.3,41-66.2,47.1-64.6c6.3,1.6,9.1,43.8-12.4,79.1
		c-25.5,41.8-84.4,44.6-82.2,56.2c1.1,5.7,15.3,8.5,25.8,8.6c41.3,0.1,82.4-43.7,93.1-89.3c6.9-29.4,0.2-56.1,2.3-56.4
		c2.5-0.3,9.7,22,10.8,46.7c0.6,13.1,1.9,44.1-15.1,73.6c-24.4,42.2-71.2,54.8-88.7,59.5c-9.4,2.5-84.9,21.7-138.4-18.5
		c-62.4-47-57.7-146.9-56.6-147.1c0.7-0.1,0.6,41.6,31,79c33.9,41.7,88.3,56.7,91.1,52.2c1.1-1.8-13.6-14.3-43.1-39.1
		c-29.5-24.9-43.4-35.1-52.8-55.6c-6.1-13.3-9.3-28.7-5.7-30.5c5.9-3,22.1,34.1,63.6,56.4c21.2,11.4,41.3,14.8,42.6,12
		c2.4-5-57.6-23.2-74.4-69.2c-2-5.4-14.6-33.1-2.3-46.1c12.1-12.8,43.3-6.6,60.8,7.2c10.3,8.1,15.6,18.6,15.8,18.4
		c0.3-0.2-9.1-15.6-26.1-38.7c-19.9-27.2-26.6-32.8-25-42.4c2-11.9,15.3-23.1,25.5-21.6c15.4,2.2,20,31.9,28.9,30.6
		C230,155.6,229.6,147.3,236.7,138.2z"/>
	<path class="st13" d="M233.6,113.6c10.4-13.6,31.9-22.1,40.7-16.1c9.9,6.9,6.4,34.3-6.6,51.6c-9,11.9-17.2,12-28.3,27.4
		c-9.3,12.9-13.7,27.1-11.3,28.6c4,2.4,20.5-33.6,49.9-38c12.9-1.9,30.6,0.1,38.8,11c14,18.6-7,52.4-12.8,61.7
		c-23.4,37.6-58.1,50.9-55.8,55c2,3.6,32.2-2.4,58.2-23.1c35.5-28.3,41-66.2,47.1-64.6c6.3,1.6,9.1,43.8-12.4,79.1
		c-25.5,41.8-84.4,44.6-82.2,56.2c1.1,5.7,15.3,8.5,25.8,8.6c41.3,0.1,82.4-43.7,93.1-89.3c6.9-29.4,0.2-56.1,2.3-56.4
		c2.5-0.3,9.7,22,10.8,46.7c0.6,13.1,1.9,44.1-15.1,73.6c-24.4,42.2-71.2,54.8-88.7,59.5c-9.4,2.5-84.9,21.7-138.4-18.5
		c-62.4-47-57.7-146.9-56.6-147.1c0.7-0.1,0.6,41.6,31.1,79c33.9,41.7,88.3,56.7,91.1,52.2c1.1-1.8-13.6-14.3-43.1-39.1
		c-29.5-24.9-43.4-35.1-52.8-55.6c-6.1-13.3-9.3-28.7-5.7-30.5c5.9-3,22.1,34.1,63.6,56.4c21.2,11.4,41.3,14.8,42.6,12
		c2.4-5-57.6-23.2-74.4-69.2c-2-5.4-14.6-33.1-2.3-46.1c12.1-12.8,43.3-6.6,60.8,7.2c10.3,8.1,15.6,18.6,15.8,18.4
		c0.3-0.2-9.1-15.6-26.1-38.7c-19.9-27.2-26.6-32.8-25-42.4c2-11.8,15.3-23.1,25.5-21.6c15.4,2.2,20,31.9,28.9,30.6
		C227,131,226.6,122.7,233.6,113.6z"/>
	<path class="st1" d="M238.8,121.4c10.4-13.6,31.9-22.1,40.7-16.1c9.9,6.9,6.4,34.3-6.6,51.6c-9,11.9-17.2,12-28.3,27.4
		c-9.3,12.9-13.7,27.1-11.3,28.6c4,2.4,20.5-33.6,49.9-38c12.9-1.9,30.6,0.1,38.8,11c14,18.6-7,52.4-12.8,61.7
		c-23.4,37.6-58.1,50.9-55.8,55c2,3.6,32.2-2.4,58.2-23.1c35.5-28.3,41-66.2,47.1-64.6c6.3,1.6,9.1,43.8-12.4,79.1
		c-25.5,41.8-84.4,44.6-82.2,56.2c1.1,5.7,15.3,8.5,25.8,8.6c41.3,0.1,82.4-43.7,93.1-89.3c6.9-29.4,0.2-56.1,2.3-56.4
		c2.5-0.3,9.7,22,10.8,46.7c0.6,13.1,1.9,44.1-15.1,73.6c-24.4,42.2-71.2,54.8-88.7,59.5c-9.4,2.5-84.9,21.7-138.4-18.5
		c-62.4-47-57.7-146.9-56.6-147.1c0.7-0.1,0.6,41.6,31.1,79c33.9,41.7,88.3,56.7,91.1,52.2c1.1-1.8-13.6-14.3-43.1-39.1
		c-29.5-24.9-43.4-35.1-52.8-55.6c-6.1-13.3-9.3-28.7-5.7-30.5c5.9-3,22.1,34.1,63.6,56.4c21.2,11.4,41.3,14.8,42.6,12
		c2.4-5-57.6-23.2-74.4-69.2c-2-5.4-14.6-33.1-2.3-46.1c12.1-12.8,43.3-6.6,60.8,7.2c10.3,8.1,15.6,18.6,15.8,18.4
		c0.3-0.2-9.1-15.6-26.1-38.7c-19.9-27.2-26.6-32.8-25-42.4c2-11.8,15.3-23.1,25.5-21.6c15.4,2.2,20,31.9,28.9,30.6
		C232.1,138.8,231.7,130.6,238.8,121.4z"/>
	<path class="st14" d="M236.5,140c10.4-13.6,31.9-22.1,40.7-16.1c9.9,6.9,6.4,34.3-6.6,51.6c-9,11.9-17.2,12-28.3,27.4
		c-9.3,12.9-13.7,27.1-11.3,28.6c4,2.4,20.5-33.6,49.9-38c12.9-1.9,30.6,0.1,38.8,11c14,18.6-7,52.5-12.8,61.7
		c-23.4,37.6-58.1,50.9-55.8,55c2,3.6,32.2-2.4,58.2-23.1c35.5-28.3,41-66.2,47.1-64.6c6.3,1.6,9.1,43.8-12.4,79.1
		c-25.5,41.8-84.4,44.6-82.2,56.2c1.1,5.7,15.3,8.5,25.8,8.6c41.3,0.1,82.4-43.7,93.1-89.3c6.9-29.4,0.2-56.1,2.3-56.4
		c2.5-0.3,9.7,22,10.8,46.7c0.6,13.1,1.9,44.1-15.1,73.6c-24.4,42.2-71.2,54.8-88.7,59.5c-9.4,2.5-84.9,21.7-138.4-18.5
		C89.2,345.8,94,245.9,95,245.6c0.7-0.1,0.6,41.6,31.1,79c33.9,41.7,88.3,56.7,91.1,52.2c1.1-1.8-13.6-14.3-43.1-39.1
		c-29.5-24.9-43.4-35.1-52.8-55.6c-6.1-13.3-9.3-28.7-5.7-30.5c5.9-3,22.1,34.1,63.6,56.4c21.2,11.4,41.3,14.8,42.6,12
		c2.4-5-57.6-23.2-74.4-69.2c-2-5.4-14.6-33.1-2.3-46.1c12.1-12.8,43.3-6.6,60.8,7.2c10.3,8.1,15.6,18.6,15.8,18.4
		c0.3-0.2-9.1-15.6-26.1-38.7c-19.9-27.2-26.6-32.8-25-42.4c2-11.9,15.3-23.1,25.5-21.6c15.4,2.1,20,31.9,28.9,30.6
		C229.9,157.5,229.5,149.2,236.5,140z"/>
	<path class="st15" d="M226.4,136.5c10.4-13.6,31.9-22.1,40.7-16.1c9.9,6.9,6.4,34.3-6.6,51.6c-9,11.9-17.2,12-28.3,27.4
		c-9.3,12.9-13.7,27.1-11.3,28.6c4,2.4,20.5-33.6,49.9-38c12.9-1.9,30.6,0.1,38.8,11c14,18.6-7,52.4-12.8,61.7
		c-23.4,37.6-58.1,50.9-55.8,55c2,3.6,32.2-2.4,58.2-23.1c35.5-28.3,41-66.2,47.1-64.6c6.3,1.6,9.1,43.8-12.4,79.1
		c-25.5,41.8-84.4,44.6-82.2,56.2c1.1,5.7,15.3,8.5,25.8,8.6c41.3,0.1,82.4-43.7,93.1-89.3c6.9-29.4,0.2-56.1,2.3-56.4
		c2.5-0.3,9.7,22,10.8,46.7c0.6,13.1,1.9,44.1-15.1,73.6c-24.4,42.2-71.2,54.8-88.7,59.5c-9.4,2.5-84.9,21.7-138.4-18.5
		c-62.4-47-57.7-146.9-56.6-147.1c0.7-0.1,0.6,41.6,31.1,79c33.9,41.7,88.3,56.7,91.1,52.2c1.1-1.8-13.6-14.3-43.1-39.1
		c-29.5-24.9-43.4-35.1-52.8-55.6c-6.1-13.3-9.3-28.7-5.7-30.5c5.9-3,22.1,34.1,63.6,56.4c21.2,11.4,41.3,14.8,42.6,12
		c2.4-5-57.6-23.2-74.4-69.2c-2-5.4-14.6-33.1-2.3-46.1c12.1-12.8,43.3-6.6,60.8,7.2c10.3,8.1,15.6,18.6,15.8,18.4
		c0.3-0.2-9.1-15.6-26.1-38.7c-19.9-27.2-26.6-32.8-25-42.4c2-11.9,15.3-23.1,25.5-21.6c15.4,2.2,20,31.9,28.9,30.6
		C219.7,153.9,219.3,145.7,226.4,136.5z"/>
	<path class="st15" d="M245.1,117c10.4-13.6,31.9-22.1,40.7-16.1c9.9,6.9,6.4,34.3-6.6,51.6c-9,11.9-17.2,12-28.3,27.4
		c-9.3,12.9-13.7,27.1-11.3,28.6c4,2.4,20.5-33.6,49.9-38c12.9-1.9,30.6,0.1,38.8,11c14,18.6-7,52.4-12.8,61.7
		c-23.4,37.6-58,50.9-55.8,55c2,3.6,32.2-2.4,58.2-23.1c35.5-28.3,41-66.2,47.1-64.6c6.3,1.6,9.1,43.8-12.4,79
		c-25.5,41.8-84.4,44.6-82.2,56.2c1.1,5.7,15.3,8.5,25.8,8.6c41.3,0.1,82.4-43.7,93.1-89.3c6.9-29.4,0.2-56.1,2.3-56.4
		c2.5-0.3,9.7,22,10.8,46.7c0.6,13.1,1.9,44.1-15.1,73.6c-24.4,42.2-71.2,54.8-88.7,59.5c-9.4,2.5-84.9,21.7-138.4-18.5
		c-62.4-47-57.7-146.9-56.6-147.1c0.7-0.1,0.6,41.6,31.1,79c33.9,41.7,88.3,56.7,91.1,52.2c1.1-1.8-13.6-14.3-43.1-39.1
		c-29.5-24.9-43.4-35.1-52.8-55.6c-6.1-13.3-9.3-28.7-5.7-30.5c5.9-3,22.1,34.1,63.6,56.4c21.2,11.4,41.3,14.8,42.6,12
		c2.4-5-57.6-23.2-74.4-69.2c-2-5.4-14.6-33.1-2.3-46.1c12.1-12.8,43.3-6.6,60.8,7.2c10.3,8.1,15.6,18.6,15.8,18.4
		c0.3-0.2-9.1-15.6-26.1-38.7c-19.9-27.2-26.6-32.8-25-42.4c2-11.8,15.3-23.1,25.5-21.6c15.4,2.2,20,31.9,28.9,30.6
		C238.5,134.4,238,126.2,245.1,117z"/>
	<path class="st15" d="M246.6,119.2c10.4-13.6,31.9-22.1,40.7-16c9.9,6.9,6.4,34.3-6.6,51.6c-9,11.9-17.2,12-28.3,27.4
		c-9.3,12.9-13.7,27.1-11.3,28.6c4,2.4,20.5-33.6,49.9-38c12.9-1.9,30.6,0.1,38.8,11c14,18.6-7,52.4-12.8,61.7
		c-23.4,37.6-58,50.9-55.8,55c2,3.6,32.2-2.4,58.2-23.1c35.5-28.3,41-66.2,47.1-64.6c6.3,1.6,9.1,43.8-12.4,79.1
		c-25.5,41.8-84.4,44.6-82.2,56.2c1.1,5.7,15.3,8.5,25.8,8.6c41.3,0.1,82.4-43.7,93.1-89.3c6.9-29.4,0.2-56.1,2.3-56.4
		c2.5-0.3,9.7,22,10.8,46.7c0.6,13.1,1.9,44.1-15.1,73.6c-24.4,42.2-71.2,54.8-88.7,59.5c-9.4,2.5-84.9,21.7-138.4-18.5
		c-62.4-47-57.7-146.9-56.6-147.1c0.7-0.1,0.6,41.6,31.1,79c33.9,41.7,88.3,56.7,91.1,52.2c1.1-1.8-13.6-14.3-43.1-39.1
		c-29.5-24.9-43.4-35.1-52.8-55.6c-6.1-13.3-9.3-28.7-5.7-30.5c5.9-3,22.1,34.1,63.6,56.4c21.2,11.4,41.3,14.8,42.6,12
		c2.4-5-57.6-23.2-74.4-69.2c-2-5.4-14.6-33.1-2.3-46.1c12.1-12.8,43.3-6.6,60.8,7.2c10.3,8.1,15.6,18.6,15.8,18.4
		c0.3-0.2-9.1-15.6-26.1-38.7c-19.9-27.2-26.6-32.8-25-42.4c2-11.8,15.3-23.1,25.5-21.6c15.4,2.2,20,31.9,28.9,30.6
		C240,136.7,239.6,128.4,246.6,119.2z"/>
	<path class="st15" d="M236,131c10.4-13.6,31.9-22.1,40.7-16.1c9.9,6.9,6.4,34.3-6.6,51.6c-9,11.9-17.2,12-28.3,27.4
		c-9.3,12.9-13.7,27.1-11.3,28.6c4,2.4,20.5-33.6,49.9-38c12.9-1.9,30.6,0.1,38.8,11c14,18.6-7,52.4-12.8,61.7
		c-23.4,37.6-58.1,50.9-55.8,55c2,3.6,32.2-2.4,58.2-23.1c35.5-28.3,41-66.2,47.1-64.6c6.3,1.6,9.1,43.8-12.4,79.1
		c-25.5,41.8-84.4,44.6-82.2,56.2c1.1,5.7,15.3,8.5,25.8,8.6c41.3,0.1,82.4-43.7,93.1-89.3c6.9-29.4,0.2-56.1,2.3-56.4
		c2.5-0.3,9.7,22,10.8,46.7c0.6,13.1,1.9,44.1-15.1,73.6c-24.4,42.2-71.2,54.8-88.7,59.5c-9.4,2.5-84.9,21.7-138.4-18.5
		c-62.4-47-57.7-146.9-56.6-147.1c0.7-0.1,0.6,41.6,31.1,79c33.9,41.7,88.3,56.7,91.1,52.2c1.1-1.8-13.6-14.3-43.1-39.1
		c-29.5-24.9-43.4-35.1-52.8-55.6c-6.1-13.3-9.3-28.7-5.7-30.5c5.9-3,22.1,34.1,63.6,56.4c21.2,11.4,41.3,14.8,42.6,12
		c2.4-5-57.6-23.2-74.4-69.2c-2-5.4-14.6-33.1-2.3-46.1c12.1-12.8,43.3-6.6,60.8,7.2c10.3,8.1,15.6,18.6,15.8,18.4
		c0.3-0.2-9.1-15.6-26.1-38.7c-19.9-27.2-26.6-32.8-25-42.4c2-11.9,15.3-23.1,25.5-21.6c15.4,2.2,20,31.9,28.9,30.6
		C229.4,148.5,229,140.2,236,131z"/>
	<path class="st1" d="M235.5,127.8c10.4-13.6,31.9-22.1,40.7-16c9.9,6.9,6.4,34.3-6.6,51.6c-9,11.9-17.2,12-28.3,27.4
		c-9.3,12.9-13.7,27.1-11.3,28.6c4,2.4,20.5-33.6,49.9-38c12.9-1.9,30.6,0.1,38.8,11c14,18.6-7,52.4-12.8,61.7
		c-23.4,37.6-58.1,50.9-55.8,55c2,3.6,32.2-2.4,58.2-23.1c35.5-28.3,41-66.2,47.1-64.6c6.3,1.6,9.1,43.8-12.4,79
		c-25.5,41.8-84.4,44.6-82.2,56.2c1.1,5.7,15.3,8.5,25.8,8.6c41.3,0.1,82.4-43.7,93.1-89.3c6.9-29.4,0.2-56.1,2.3-56.4
		c2.5-0.3,9.7,22,10.8,46.7c0.6,13.1,1.9,44.1-15.1,73.6c-24.4,42.2-71.2,54.8-88.7,59.5c-9.4,2.5-84.9,21.7-138.4-18.5
		c-62.4-47-57.7-146.9-56.6-147.1c0.7-0.1,0.6,41.6,31.1,79c33.9,41.7,88.3,56.7,91.1,52.2c1.1-1.8-13.6-14.3-43.1-39.1
		c-29.5-24.9-43.4-35.1-52.8-55.6c-6.1-13.3-9.3-28.7-5.7-30.5c5.9-3,22.1,34.1,63.6,56.4c21.2,11.4,41.3,14.8,42.6,12
		c2.4-5-57.6-23.2-74.4-69.2c-2-5.4-14.6-33.1-2.3-46.1c12.1-12.8,43.3-6.6,60.8,7.2c10.3,8.1,15.6,18.6,15.8,18.4
		c0.3-0.2-9.1-15.6-26.1-38.7c-19.9-27.2-26.6-32.8-25-42.4c2-11.8,15.3-23.1,25.5-21.6c15.4,2.2,20,31.9,28.9,30.6
		C228.9,145.2,228.4,136.9,235.5,127.8z"/>
</g>
<g id="Layer_7">
	<g>
		<g>
			<path d="M223.4,158.4c5.6-7.4,12-14.2,19.1-20.2c3.6-3,7.4-5.8,11.3-8.4c3.8-2.5,7.9-5.3,12.3-6.8c2.4-0.8,5.1-1,7.2,0.6
				c1.6,1.2,2.5,3.1,2.7,5.1c0.6,4.7-2.4,8.6-5.6,11.6c-5.9,5.7-12.5,10.7-18.9,15.9c-12,9.9-24.4,20.9-30.1,35.9
				c-2.9,7.8-4.3,17.5,1.5,24.3c2.4,2.9,5.9,4.7,9.7,4.8c4.1,0,7.9-2,11.1-4.3c3.7-2.7,7.1-5.9,10.7-8.7c3.8-2.9,7.9-5.6,12-8
				c4.2-2.4,8.6-4.6,13.1-6.3c4.6-1.8,9.8-3.2,14.6-1.6c7.6,2.4,10.6,11.3,9.4,18.6c-1.5,9-8.5,16.1-14.6,22.3
				c-7.6,7.8-15.2,15.5-22.9,23.3c-6.4,6.5-13,13-18.4,20.4c-4.9,6.8-8.9,14.7-9.5,23.1c-0.3,3.9,0.4,8.1,2.9,11.2
				c2.5,3,6.4,4.5,10.1,5.2c9.5,1.7,19.4-0.5,28.3-3.8c8.4-3.1,16.5-7.2,24.1-11.9c14.9-9.2,28.1-21,38.9-34.7
				c2.5-3.3,5-6.6,7.2-10.1c-0.3,0-0.6-0.1-0.9-0.1c2.7,10.6-1.4,21.3-8,29.6c-7.1,9-16.8,14.9-27,19.8
				c-10.7,5.1-21.9,9.1-32.1,15.2c-8.8,5.2-16.8,12.4-21.7,21.4c-2.3,4.2-4,8.9-4.4,13.7c-0.5,4.8-0.1,10.7,2.9,14.7
				c2.9,4,8.4,5.8,13,7.1c4.8,1.4,9.8,2.1,14.8,2.1c20.5,0.2,40.4-9.7,54.9-23.9c16.3-16,26.9-36.6,36.5-57.1c1.2-2.5,2.4-5,3.5-7.6
				c-0.3-0.1-0.6-0.2-0.9-0.3c1,12-2.8,23.9-9,34.1c-6.4,10.4-15.3,19-24.7,26.7c-9.6,7.8-19.6,15.1-30,21.7
				c-10.6,6.8-21.9,12.5-34,16.1c-12.3,3.6-25,5.2-37.8,6.1c-6.4,0.5-12.7,0.7-19.1,1c-6.6,0.3-13.2,0.6-19.8,0.4
				c-11.9-0.3-23.3-2.8-34-8c-9.7-4.7-18.4-11.3-26.3-18.7c-8-7.5-15-16-21.3-25c-6.9-9.8-13-20.4-16-32c-0.7-2.9-1.3-5.9-1.5-8.9
				c-0.2,0.2-0.4,0.3-0.6,0.5c17.7,6.8,29.6,22.3,42.6,35.4c12.5,12.7,28.4,25,47.2,23.8c5-0.3,9.9-1.5,14.6-3.2
				c4.4-1.6,9.1-3.4,12.9-6.1c2.9-2,5.5-4.9,5.1-8.7c-0.5-4.1-4.2-6.8-7.3-9.1c-15.4-11.3-33.5-17.8-50-27
				c-8.3-4.6-16.1-10-22.9-16.7c-6.8-6.7-12.4-14.5-16.6-23.1c-1.1-2.2-2.1-4.4-2.9-6.7c-0.2,0.2-0.4,0.4-0.6,0.6
				c16.6,4.3,30.6,14.7,44.6,24c13.8,9.1,29.2,17.6,46.1,18.1c4,0.1,7.9-0.2,11.8-1.2c1.9-0.5,3.9-1,5.7-1.9
				c1.2-0.6,2.6-1.5,2.9-2.9c0.3-1.6-0.9-2.9-2-4c-1.3-1.3-2.7-2.4-4.2-3.5c-3.2-2.2-6.6-4-10.2-5.5c-7.3-3.2-14.9-5.6-21.9-9.7
				c-7.1-4.2-13.5-9.5-19.2-15.4c-5.8-6-11.1-12.5-16.1-19.1c-5.1-6.8-10.9-13.8-13.1-22.1c-1.8-6.9-0.5-15.6,5.7-20
				c7-4.9,16.9-2.4,24.2,0.3c4,1.5,7.8,3.4,11.4,5.7c3.6,2.4,6.8,5.2,10,8.1c4.9,4.4,11.3,8.8,18.3,6.1c7.2-2.8,6.2-11.7,4.3-17.8
				c-2.2-7.5-6.9-13.9-12.1-19.6c-10.6-11.7-25.2-20.9-31.3-36.1c-1.5-3.8-3.4-9.2,0.2-12.3c3.3-2.9,8-2.5,11.7-0.8
				c4,1.8,7.8,4.5,11.4,7c3.9,2.7,7.7,5.5,11.4,8.5c3.4,2.8,6.8,5.7,10,8.7c0.5,0.4,1.2-0.3,0.7-0.7c-6.6-6.1-13.6-11.8-21-16.9
				c-3.7-2.6-7.5-5.3-11.6-7.2c-3.2-1.5-6.9-2.3-10.3-1c-3.1,1.1-5.2,3.6-5.4,7c-0.1,3.8,1.6,7.9,3.2,11.2c3.5,7,8.8,12.9,14.4,18.3
				c11.2,10.9,25.8,21.8,28.6,38.2c0.7,3.9,1.1,8.8-2.4,11.6c-2.7,2.2-6.7,2.4-9.9,1.5c-4-1.1-7.2-4-10.2-6.8
				c-3-2.8-6.1-5.4-9.5-7.6c-6.7-4.4-14.6-7.6-22.6-8.6c-7.2-0.9-14.8,0.8-18.6,7.5c-3.6,6.3-2.9,13.9-0.2,20.4
				c3.3,7.7,8.8,14.4,13.9,20.9c9.9,12.8,21,25.2,35.3,33.1c7,3.9,14.6,6.2,21.9,9.5c3.6,1.7,7.2,3.6,10.3,6.1
				c1.4,1.2,4.8,3.5,3.5,5.6c-1,1.6-3.8,2.2-5.5,2.8c-16.8,5-34.7-1.7-49.2-10.1c-14.7-8.5-27.8-19.7-43.5-26.5
				c-3.6-1.6-7.4-2.9-11.2-3.9c-0.3-0.1-0.8,0.2-0.6,0.6c6.6,16.9,18.4,31.2,33.4,41.3c15.4,10.3,32.9,16.6,48.9,25.9
				c4,2.3,7.9,4.8,11.6,7.6c3.5,2.6,7.7,6.6,5.1,11.4c-2.1,3.9-6.9,5.9-10.7,7.6c-4.7,2.1-9.6,3.9-14.7,4.9
				c-9.5,1.8-18.9,0.3-27.6-4c-8.3-4.1-15.4-10-22-16.4c-12.7-12.4-23.6-27.2-39.7-35.5c-1.9-1-3.8-1.8-5.7-2.6
				c-0.3-0.1-0.7,0.2-0.6,0.5c1.2,12,6.1,23.3,12.4,33.5c5.9,9.6,12.9,18.7,20.6,27c15.1,16.1,34.1,29.3,56.4,32.3
				c13.2,1.8,26.8,0.7,40.1,0c13-0.7,26-1.7,38.7-4.5c12.5-2.7,24.4-7.5,35.5-13.8c11-6.3,21.3-13.8,31.4-21.5
				c18.8-14.3,37.8-32.7,40.3-57.6c0.3-3,0.3-5.9,0.1-8.9c0-0.4-0.7-0.8-0.9-0.3c-9.3,20.2-18.9,40.8-33.6,57.7
				c-13.6,15.8-32.4,27.8-53.5,30c-9.9,1-20.8-0.2-29.7-5c-2.7-1.5-4.8-3.6-5.8-6.5c-0.9-2.5-1.3-5.3-1.3-7.9c0-5.1,1.3-10,3.5-14.6
				c4.6-9.3,12.5-16.9,21.3-22.2c9.9-6.1,20.9-10.1,31.4-15c9.9-4.6,19.4-10,26.7-18.1c6.4-7.2,11.4-16.4,11.3-26.2
				c0-2.4-0.3-4.8-0.9-7.1c-0.1-0.4-0.7-0.5-0.9-0.1c-9.7,14.9-22.2,27.9-36.5,38.4c-7.1,5.2-14.8,9.7-22.7,13.5
				c-9,4.3-18.6,8-28.6,8.7c-4.6,0.3-9.5,0.1-13.8-1.7c-4.5-1.8-7.4-5.5-7.9-10.4c-1-8.7,3.2-17.7,8-24.7
				c5.2-7.6,11.7-14.1,18.1-20.6c7.7-7.8,15.4-15.6,23-23.5c6.1-6.3,12.9-12.8,15.5-21.5c1.9-6.3,0.7-14.1-4.1-18.9
				c-6.4-6.4-15.9-3.8-23.2-0.6c-8.8,3.8-17,8.7-24.4,14.6c-6.3,5-14.3,14.2-23.4,10.9c-4.1-1.5-7.1-5.3-8.3-9.4
				c-1.5-5-0.7-10.3,0.9-15.2c4.9-15.7,17.5-27.1,29.8-37.3c6.3-5.2,12.8-10.2,18.8-15.8c3-2.7,6.1-6,6.8-10.1
				c0.6-3.1-0.3-6.7-2.8-8.8c-3.2-2.6-7.5-1.4-10.8,0.2c-4.1,2-8.1,4.5-11.9,7.1c-7.5,5.1-14.4,11.1-20.6,17.7
				c-2.9,3.2-5.7,6.5-8.3,9.9C222.1,158.4,223,158.9,223.4,158.4L223.4,158.4z"/>
		</g>
	</g>
	<g>
		<g>
			<path d="M182.5,136.9c-0.6-3,2.5-4.7,5.1-4.7c2.5,0,5.1,1,7.4,1.9c4.5,1.8,8.6,4.6,12.1,7.9c5.1,5,9.9,13,17.8,13.5
				c8.6,0.6,13.6-8.5,18.2-14.3c3.2-3.9,6.7-7.8,10.5-11c3.5-3,8.4-5.9,13.2-4.3c4,1.3,6.1,5.5,6.3,9.5c0.3,4.7-2.2,9.1-5.1,12.7
				c-6.3,7.9-14.3,14.2-21.6,21.1c-6.8,6.5-13.2,13.8-17.1,22.4c-1.8,3.9-3,8.1-3.4,12.4c-0.4,3.9,0,8,3.8,9.9
				c3.4,1.8,7.3,1.1,10.7-0.5c4.4-2.1,8.3-5.2,12.6-7.6c4.5-2.5,9.2-4.7,14.1-6.6c4.6-1.8,9.4-3.4,14.3-4.3s10.2-0.9,14.6,1.8
				c3.7,2.2,6.4,6,7.8,10.1c3.1,9.5-1.1,19.5-6.8,27c-5.4,7.1-12.5,12.8-19.4,18.5c-7,5.8-13.6,11.8-18.9,19.2
				c-5.4,7.5-9.4,15.9-11.9,24.7c-0.6,2.2-1.2,4.5-1.6,6.8c-0.4,2-0.7,3.9-0.5,5.9c0.2,1.7,0.8,3.3,2.1,4.4c1.4,1.2,3.4,1.5,5.2,1.4
				c4.8-0.1,9.7-0.7,14.4-1.4c4.7-0.6,9.4-1.5,13.9-2.9c8-2.5,15-6.7,21.1-12.5c10.9-10.4,18.6-24.2,31.2-32.8c3-2,6.2-3.7,9.7-4.9
				c-0.2-0.1-0.4-0.2-0.6-0.4c3.1,9-0.8,18.6-7,25.2c-6.3,6.7-14.6,11.1-22.6,15.4c-15.7,8.4-33,16.3-44.4,30.5
				c-5.3,6.6-9.1,14.7-8.4,23.4c0.7,7.9,5,14.9,12.4,18c7.4,3.2,16,2.3,23.3-0.8c8.6-3.6,15.8-9.9,23-15.8
				c16.9-13.8,33.7-27.7,50.6-41.5c2.1-1.7,4.2-3.5,6.3-5.2c-0.3-0.2-0.6-0.3-0.8-0.5c-3.5,18.9-20.3,31.8-35.6,41.6
				c-17.1,10.9-35.9,19.1-55.3,25.2c-19.7,6.2-40.1,10.4-60.5,12.9c-10.7,1.3-21.8,1.9-32.4-0.8c-10.1-2.5-19.1-8.2-27.2-14.5
				c-14.9-11.6-29.8-25.3-37.6-42.8c-1-2.2-1.8-4.5-2.6-6.8c-0.3,0.2-0.6,0.3-0.8,0.5c13.1,13.5,26.6,27.3,43.5,36.2
				c15.5,8.2,35.1,12.4,51.9,5.6c3.2-1.3,6.6-3.3,8-6.7c1.6-3.8,0.1-8-2.2-11.1c-4.8-6.8-12.7-11-20.1-14.5
				c-7.8-3.6-15.7-6.7-23-11.1c-7.1-4.3-13.6-9.4-19.5-15.2c-11.8-11.6-21-25.9-26.5-41.5c-0.6-1.9-1.2-3.8-1.8-5.7
				c-0.2,0.2-0.4,0.4-0.6,0.6c16.5,5.6,28.7,18.7,40.8,30.7c6.1,6.1,12.3,12.2,19.4,17.2c7.1,5,15.7,8.6,24.6,6.8
				c3.8-0.8,7.5-2.7,10.1-5.7c2.5-2.9,4.1-7.1,2.7-10.8c-1.4-3.8-5.7-6.4-8.9-8.6c-3.8-2.6-7.8-4.8-11.9-6.8
				c-8.2-4.1-16.8-7.6-24.6-12.5c-8.4-5.3-15.3-12.4-21.2-20.4c-10.6-14.1-22.9-34.9-10.8-51.7c4.8-6.6,12.8-11.1,21-8.8
				c6.5,1.8,11.1,7.1,15,12.3c4,5.3,7.5,11.1,12.4,15.6c2.3,2.1,5,3.9,8,5.1c4.6,1.8,9.6,1.9,14.4,1.3c3.6-0.4,7.7-1.3,8.9-5.2
				c1.2-3.9-1.1-8.1-2.8-11.4c-4.5-8.4-10-16.4-16.6-23.2c-6.6-6.8-14.6-11.9-21.3-18.6c-6-6-10.5-13.8-9.5-22.5
				c0.5-4,2.3-7.8,5.6-10.3c3.3-2.5,7.4-3.4,11.4-3.1c9.3,0.7,16.3,7.1,21.3,14.6c2.4,3.7,4.5,7.6,6.5,11.6c0.3,0.6,1.2,0.1,0.9-0.5
				c-4.1-7.9-8.3-16.1-15.5-21.6c-5.9-4.6-14.6-6.7-21.7-3.7c-7.3,3-10.3,10.7-9.4,18.1c1,8.5,6.2,15.2,12.4,20.7
				c3.5,3.1,7.2,5.9,10.8,8.8c3.7,3,7.2,6.3,10.3,9.9c3.3,3.8,6.3,7.8,9.1,12c2.6,4,5.3,8.2,7,12.6c0.8,2.1,1.4,4.6,0.6,6.7
				c-0.9,2.3-3.3,3.3-5.6,3.8c-4.9,1-10.4,1-15.1-0.5c-6.9-2.1-11.7-7.7-15.8-13.3c-3.9-5.3-7.4-11.1-12.5-15.4
				c-5.1-4.4-11.8-6.6-18.4-4.6c-7.4,2.3-13,8.7-15.7,15.8c-3.1,8.4-1.4,17.7,2,25.7c3.8,8.9,9.5,17.1,15.6,24.6
				c6.1,7.4,13.2,13.7,21.6,18.4c8.1,4.6,16.7,8,24.9,12.4c4.2,2.2,8.2,4.7,12,7.6c1.8,1.4,3.7,2.9,4.7,5.1c1,2.3,0.6,5-0.4,7.2
				c-4,8.3-14.9,10.1-23,7.9c-9.2-2.5-16.8-9.2-23.6-15.5c-12.4-11.5-23.4-25-38.2-33.6c-3.5-2-7.2-3.7-11-5
				c-0.4-0.1-0.7,0.3-0.6,0.6c4.3,15.1,12,29.1,22.2,41c10.4,12,23.3,21.6,37.8,28.2c7.6,3.4,15.5,6.4,22.4,11
				c6.1,4.1,16.4,14,8.6,21.3c-3,2.8-7.4,4.1-11.3,5c-4.4,1-8.9,1.5-13.4,1.3c-9.1-0.2-18.2-2.6-26.6-6.3
				c-16.9-7.5-30.6-20.5-43.4-33.5c-1.6-1.6-3.3-3.3-4.9-5c-0.3-0.4-1,0-0.8,0.5c5.8,18.6,20,33.1,34.6,45.3
				c7.8,6.5,16,12.9,25.5,16.8c10,4.2,20.9,5,31.7,4.4c10.6-0.7,21.2-2.5,31.7-4.4c10.3-1.9,20.5-4.3,30.6-7.1
				c19.9-5.7,39.4-13.4,57.2-24c8.5-5,16.8-10.5,24.1-17.1c6.8-6.1,12.8-13.4,16-22c0.8-2.1,1.4-4.4,1.8-6.6
				c0.1-0.5-0.4-0.8-0.8-0.5c-16.5,13.5-32.9,27-49.3,40.5c-7.6,6.2-15,13-23.4,18.2c-7.4,4.6-16,7.5-24.8,5.7
				c-3.9-0.8-7.6-2.5-10.5-5.3c-3-3-4.8-6.9-5.6-11c-1.6-8.9,2-17.6,7.5-24.5c11.2-14.1,28.2-22,43.7-30.3
				c7.7-4.1,15.6-8.3,21.9-14.3c6-5.7,10.5-13.6,10.1-22.1c-0.1-2-0.5-3.9-1.1-5.8c-0.1-0.2-0.3-0.4-0.6-0.4
				c-14.5,4.8-23.6,17.9-33,29.1c-5,5.8-10.3,11.5-16.8,15.6c-8.4,5.3-18.3,7.4-28,8.6c-2.4,0.3-4.9,0.5-7.3,0.7
				c-2.3,0.2-4.9,0.7-7.2,0.2c-5.5-1.2-3.9-8.1-3.1-12c2-9.3,5.6-18.1,10.8-26.1c5.1-7.9,11.7-14.5,18.8-20.5
				c6.9-5.8,14.1-11.3,19.9-18.2c5.9-7,10.7-15.9,9.8-25.3c-0.7-8-6-15.5-14-17.4c-4.5-1.1-9.3-0.4-13.7,0.7
				c-4.9,1.2-9.6,2.9-14.3,4.9c-4.6,1.9-9.1,4.2-13.5,6.7c-4.2,2.5-8.3,6-13.1,7.3c-4.1,1.1-9.4-0.3-10.2-5
				c-0.4-2.4-0.1-5.1,0.4-7.5c0.4-2.3,1.1-4.5,1.9-6.6c3.5-9.3,10.1-17,17.1-23.9c7.2-7,15.2-13.4,21.7-21.1
				c4.9-5.9,8.9-14.6,3.5-21.5c-2.4-3-6.1-4.2-9.8-3.5c-4.4,0.9-8.1,3.9-11.2,6.9c-3.7,3.6-7.1,7.4-10.2,11.5
				c-2.6,3.4-5.1,7.1-8.7,9.5c-3.7,2.4-8,2.5-11.8,0.3c-3.5-2-6.2-5.3-8.9-8.2c-2.9-3.2-6.1-6.2-9.8-8.5c-3.8-2.3-8.4-4.6-12.9-4.9
				c-3.4-0.3-7.6,2-6.7,5.9C181.7,137.8,182.7,137.5,182.5,136.9L182.5,136.9z"/>
		</g>
	</g>
	<g>
		<g>
			<path d="M196.3,145.1c7.1-1,10.5,6.9,14.6,11.1c3.6,3.9,8.9,5.6,14.1,5.6c5.4-0.1,10.5-2.2,14.7-5.6c2.2-1.8,4.2-3.8,5.9-6
				c1.7-2.2,2.9-4.6,4.7-6.8c1.7-2.1,4.9-4.9,7.6-2.6c2.1,1.8,1.3,5.1,0.3,7.3c-2.2,4.6-6.4,8.3-10.4,11.4c-8,6.3-17.4,11-23.8,19.1
				c-3.6,4.5-5.8,9.9-6.8,15.6c-0.5,2.9-0.7,5.9-0.7,8.8c0,2.7,0.1,5.5,1.1,8.1c2,5,7.5,5.5,12.3,4.9c4.8-0.6,9.3-2.5,13.6-4.8
				c9.1-4.8,18-12.1,28.7-12.6c3.3-0.1,6.6,0.7,8.6,3.5c1.7,2.5,2.1,5.8,1.9,8.8c-0.5,6.7-4.5,12.5-9,17.2
				c-4.4,4.7-9.4,8.8-13.6,13.6c-3.8,4.4-7.2,9.2-10.1,14.2c-5.8,10.2-9.5,21.5-10.9,33.1c-0.3,2.9-0.6,5.9-0.5,8.9
				c0.1,2.8,0.7,5.5,2.6,7.7c1.7,2,4,3.3,6.3,4.5c2.7,1.4,5.4,2.7,8.2,3.9c5.9,2.5,12.1,4,18.5,2.8c6.4-1.2,12.5-4.4,18.3-7.3
				c3-1.5,6-3.1,9-4.7c1.5-0.8,3-1.6,4.4-2.5c1.6-0.9,3.2-2.1,4.9-2.7c1.9-0.6,3.4,0.3,3.4,2.3c-0.1,1.5-0.9,3-1.7,4.3
				c-1.5,2.4-3.3,4.5-5.4,6.3c-9.5,8.2-22.2,10.2-33.8,13.9c-10.4,3.3-21.3,9-25.6,19.7c-1.9,4.8-1.9,10,0.1,14.7
				c2.1,4.7,5.9,8.7,10.5,11c5.2,2.6,11.3,3.1,17,2.1c2.8-0.5,5.4-1.7,8.1-2.4c1.2-0.3,2.5-0.5,3.6-0.2c0.5,0.1,1,0.3,1.4,0.7
				c0.9,0.9-0.1,1.1-0.9,1.4c-6.1,2.8-12.8,4.1-19.3,5.2c-7,1.1-14,2.1-21,3.1c-7.1,1-14.3,2.4-21.4,2.8c-7.3,0.4-14.3-1-21.4-2.6
				c-12.2-2.8-24.5-5.6-35.9-10.8c-5.3-2.4-10.4-5.4-15.1-8.9c-0.1,0.1-0.1,0.3-0.2,0.5c12.1,4.8,24.7,8.2,37.5,10.1
				c5.2,0.8,10.8,1.8,16,0.3c5-1.4,7.7-5.4,9.3-10.1c2.1-6.2,3.9-12.5,5.8-18.8c0.9-2.8,1.7-5.4-0.1-8.1c-1.3-1.9-2.9-3.5-4.5-5
				c-6.7-6.2-15-10.3-22.9-14.6c-8.9-4.9-17.9-10.4-22.9-19.6c-0.1,0.1-0.2,0.2-0.3,0.4c6.9,1.2,13.6,3.3,20,6.2
				c5.7,2.6,11.4,5.7,17.6,6.9c5.4,1.1,11.7,0.9,16.4-2.4c3.7-2.6,6.4-7.1,6.1-11.7c-0.3-5.2-4.4-8.5-8.6-10.9
				c-5.1-2.9-10.5-5.3-15.8-7.9c-10.5-5.3-21-11.4-28.1-21c-3.7-5-6.6-10.7-9-16.5c-2.1-4.9-3.8-10.4-3.3-15.9
				c0.6-6,4.7-10.6,10.6-11.8c6.3-1.3,12.4,1.1,17.6,4.4c5.1,3.2,9.8,7.4,15.6,9.2c4.5,1.4,9.6,0.6,12.7-3.2
				c2.6-3.2,3.5-7.5,3.2-11.5c-0.4-5-2.9-9.3-6.1-13c-3.8-4.4-8.4-8-12.4-12.1c-4.5-4.5-8.3-9.5-11.5-15c-3.2-5.5-6.4-12.2-4.6-18.7
				c1.5-5.2,6.5-9.6,12.1-7.5c2.4,0.9,4.4,2.9,4.6,5.6c0,0.3,0.5,0.3,0.5,0c-0.4-4.2-4.6-6.9-8.6-6.6c-4.8,0.3-8.2,4.7-9.2,9.1
				c-1.3,5.9,1.3,11.9,4,16.9c3,5.5,6.7,10.5,10.9,15.1c7.4,7.9,19.3,15,19.9,26.9c0.2,4.5-1.1,9.6-4.9,12.4
				c-5.3,3.8-11.8,1.3-16.8-1.8c-5.3-3.3-10-7.4-15.9-9.5c-5-1.9-10.9-2.1-15.7,0.7c-9.8,5.7-6.6,18.6-2.9,27
				c2.5,5.8,5.5,11.6,9.3,16.7c3.4,4.6,7.6,8.4,12.3,11.7c9.6,6.8,20.5,11,30.7,16.5c5.1,2.8,10,6.9,8.8,13.4
				c-1.1,5.9-6.1,10-11.7,11.2c-6.6,1.4-13.3-0.7-19.4-3.3c-6.1-2.6-12-5.7-18.4-7.7c-3.2-1-6.5-1.8-9.8-2.3c-0.2,0-0.4,0.2-0.3,0.4
				c8.4,15.6,27.3,20.5,40.8,30.2c1.8,1.3,3.5,2.7,5.1,4.2c1.7,1.6,3.7,3.5,4.8,5.5c0.9,1.7,0.7,3.4,0.2,5.2c-0.5,1.7-1,3.4-1.6,5.1
				c-1,3.1-1.9,6.2-2.9,9.3c-1.6,5.2-2.8,11.7-7.9,14.7c-4.6,2.8-10.6,2.1-15.7,1.5c-13.9-1.8-27.6-5.4-40.6-10.5
				c-0.3-0.1-0.4,0.3-0.2,0.5c13.8,10.6,30.9,15.1,47.6,19c4.7,1.1,9.3,2.2,14.1,2.9c4.8,0.7,9.7,0.7,14.5,0.3
				c4.9-0.5,9.8-1.3,14.6-2c5.1-0.8,10.2-1.5,15.3-2.3c10.2-1.5,20.7-2.8,30-7.4c0.1,0,0.1-0.2,0.1-0.3c-1.2-3.3-5.6-2.1-8.1-1.3
				c-5.1,1.8-10.4,2.8-15.9,1.9c-9.5-1.5-18.2-9.1-18.8-19.2c-0.5-9.7,6.9-18,14.8-22.5c9.5-5.4,20.6-7,30.8-10.6
				c8.2-3,16.6-7.6,21-15.5c0.8-1.5,1.6-3.3,1.1-5c-0.5-1.7-2.3-2.1-3.9-1.6c-1.1,0.4-2,1-3,1.6c-1.3,0.7-2.5,1.5-3.8,2.2
				c-2.5,1.4-5,2.8-7.5,4.1c-5.1,2.7-10.3,5.4-15.7,7.5c-5.5,2.1-11,3-16.8,1.7c-5.4-1.2-10.4-3.6-15.4-6.1c-2.2-1.1-4.4-2.3-6.2-4
				c-2.1-2-3-4.6-3.1-7.5c-0.3-5.1,0.4-10.4,1.4-15.4c0.9-4.8,2.2-9.6,3.9-14.2c3.6-9.6,8.8-18.5,15.4-26.3
				c6.7-7.8,16-13.9,20.7-23.3c2.1-4.2,3.3-9.1,2.2-13.7c-1-4.4-4.1-7.3-8.7-7.6c-8.5-0.7-16.7,4.4-23.7,8.5
				c-7.3,4.3-15.1,9.2-23.8,9c-2.6-0.1-5.3-0.5-7.1-2.5c-1.7-1.9-2.1-4.6-2.3-7c-0.4-5.2,0-10.5,1.4-15.5c1.3-4.9,3.8-9.4,7.2-13.2
				c2.9-3.2,6.3-5.9,9.8-8.4c6.9-5,14.4-9.3,19.9-15.9c2.3-2.7,4.7-6.1,4.3-9.8c-0.2-1.6-1.1-2.9-2.6-3.5c-1.6-0.6-3.2-0.1-4.5,0.8
				c-1.7,1.2-3,2.9-4.2,4.6c-1.4,2.1-2.7,4.2-4.4,6.1c-3.2,3.7-7.2,6.9-11.9,8.6c-4.4,1.6-9.4,1.8-13.9,0.3
				c-2.4-0.8-4.6-2.1-6.4-3.8c-1.9-1.8-3.3-4.1-5-6.1c-2.6-3.3-6.2-6.4-10.7-5.8C195.9,144.7,196,145.1,196.3,145.1L196.3,145.1z"/>
		</g>
	</g>
	<g>
		<g>
			<path d="M217.6,162.3c-4.1-4-7.4-8.7-9.7-13.9c-1.4-3.1-2.9-8.8-7-9.2c-4-0.4-4.9,4.2-4.4,7.2c0.8,4.9,4.2,9.3,7.1,13.1
				c3.3,4.3,6.8,8.5,9.4,13.4c2.7,5.1,4.5,10.6,5.5,16.2c0.5,2.8,0.7,5.7,0.7,8.5c0,2.8-0.1,5.8-0.8,8.5c-1.8,6.4-9.2,7.7-14.9,7.4
				c-8.9-0.4-21.3-4.5-27.9,4c-2.8,3.7-3,8.6-2.1,13c1,4.7,3.1,9.1,5.6,13.2c10.2,16.9,27.5,27.7,41.7,40.8
				c3.9,3.6,8.2,7.4,10.7,12.1c1.4,2.6,2.1,5.7,1.3,8.6c-0.7,2.4-2.4,4.5-4.4,5.9c-4.5,3.3-10.4,4.3-15.9,4.3
				c-6.3,0-12.5-1.3-18.6-3.1c-2.9-0.9-5.9-1.8-8.8-2.8c-0.2-0.1-0.3,0.1-0.3,0.3c1.4,7.4,5.8,13.9,11.8,18.3c3,2.2,6.4,3.9,10,4.8
				c4.4,1.1,9.2,0.8,13.3,3c6.3,3.6,7.1,12.6,3.8,18.4c-4.1,7.3-13.5,9.5-21.2,8.9c-5.4-0.4-10.4-2.5-15.8-2.7
				c-4.2-0.2-8.7,0.9-11.6,4.2c-0.1,0.1-0.1,0.3,0.1,0.4c14.6,8.6,31,13.9,47.8,15.8c16.9,1.9,34.1,0.3,50.3-5
				c8.9-2.9,17.9-6.7,24.3-13.7c0.1-0.2,0-0.4-0.2-0.4c-8.3-0.2-16.6-0.8-24.8-2c-4.1-0.6-8.1-1.3-12.2-2.1
				c-3.4-0.7-6.9-1.4-10.1-2.5c-2.9-1-5.8-2.3-7.8-4.6c-2.3-2.5-2.9-6-1.8-9.2c1.1-3.3,3.6-6,6.1-8.2c2.9-2.5,6.1-4.6,9.3-6.7
				c7.4-4.8,15.1-9,23.1-12.6c0.2-0.1,0.1-0.4-0.1-0.5c-10.7-3.7-21.2,3.7-31.7,4.5c-5.6,0.4-11.1-1.5-14.5-6.1
				c-3.5-4.8-4.4-11-3.4-16.7c1.3-6.8,4.8-12.8,8.6-18.4c4-6,8.2-12,13.2-17.3c4.5-4.8,9.6-8.8,14.8-12.9c5-3.9,9.9-8.1,13.6-13.3
				c3.1-4.4,5.4-10.8,1.5-15.5c-3.2-3.8-8.7-4.8-13.4-5.4c-3.2-0.4-6.6-0.8-9.7,0.1c-3.1,0.9-5.3,3.3-7.9,5.1
				c-4.3,3-9.9,3.9-14.9,2.6c-5.6-1.4-9.9-5.8-10.9-11.6c-1.1-6.4,1.6-12.9,4.9-18.2c3.5-5.8,8.1-11,12.4-16.2
				c4.2-5,8.4-10.1,12.1-15.5c1.9-2.8,3.7-5.7,5.3-8.6c1.2-2.3,2.3-4.7,2.5-7.3c0.2-2.1-0.3-4.3-2.1-5.6c-2.3-1.7-5.4-1-7.8-0.1
				c-6,2.2-11.1,6-15.3,10.8c-4.2,4.9-8.2,10.7-14.9,12.2c-3,0.7-6.1,0.3-8.6-1.5c-0.3-0.2-0.5,0.2-0.3,0.4
				c4.5,3.4,10.8,1.9,15.1-1.2c5.3-3.9,8.5-9.8,13.5-14c2.6-2.2,5.6-4.1,8.8-5.4c2.9-1.2,7-2.8,9.6-0.3c2.1,2,1.6,5.4,0.8,7.9
				c-1,3-2.8,5.9-4.4,8.6c-7.1,11.5-16.8,21-24.7,31.9c-6.1,8.5-12.5,23.1-2.4,31.3c3.6,3,8.6,4.1,13.2,3.5c2.4-0.3,4.7-1,6.8-2.1
				c2.7-1.5,4.7-3.9,7.5-5.3c3.3-1.7,7.2-1.3,10.7-0.9c2.8,0.3,5.6,0.8,8.2,1.8c2.6,0.9,5.1,2.5,6.4,5c1.7,3.1,1,6.7-0.4,9.8
				c-2.7,5.9-8,10.6-13,14.7c-5.1,4.2-10.5,8-15.1,12.6c-4.9,4.9-9.1,10.4-13,16c-3.9,5.5-7.8,11.3-10,17.7
				c-1.9,5.5-2.4,11.3-0.4,16.9c1.7,4.7,5,8.7,9.7,10.4c4.9,1.8,10.2,0.8,15.1-0.5c5.4-1.5,10.8-3.6,16.4-4c2.6-0.2,5.3,0,7.8,0.9
				c0-0.1,0-0.3-0.1-0.5c-7.6,3.4-15,7.4-22,11.9c-3.3,2.1-6.6,4.3-9.6,6.8c-2.6,2.2-5.1,4.7-6.6,7.8c-1.3,2.7-1.5,5.7-0.3,8.5
				c1.1,2.6,3.4,4.4,5.9,5.7c2.8,1.5,6,2.3,9.1,3c4.2,1,8.5,1.8,12.8,2.5c9.7,1.6,19.5,2.5,29.2,2.7c-0.1-0.1-0.1-0.3-0.2-0.4
				c-5.8,6.4-13.8,10.1-21.8,12.9c-8,2.8-16.2,4.6-24.6,5.6c-16.6,2-33.5,0.5-49.5-4.3c-9.1-2.7-17.8-6.5-25.9-11.3
				c0,0.1,0,0.3,0.1,0.4c3-3.5,7.8-4.4,12.2-4c5,0.4,9.7,2.2,14.7,2.6c7.4,0.6,15.9-1.3,20.7-7.4c3.9-4.9,4.4-12.8,0.6-17.9
				c-2.3-3.1-5.8-4.3-9.5-4.9c-4.3-0.7-8.5-1.2-12.5-3.1c-8.2-4-14.5-11.8-16.2-20.8c-0.1,0.1-0.2,0.2-0.3,0.3
				c11.3,3.7,23.4,7.7,35.4,5c4.3-1,8.8-3,11.4-6.6c2.9-4.1,2-9.1-0.4-13.1c-2.6-4.3-6.5-7.8-10.2-11.2c-3.7-3.4-7.5-6.6-11.3-9.8
				c-7.5-6.3-15.2-12.5-21.8-19.7c-3.3-3.6-6.4-7.6-8.9-11.9c-2.5-4.2-4.7-8.8-5.4-13.7c-0.8-5.2,0.3-10.8,4.9-13.8
				c4.2-2.8,9.8-2.9,14.7-2.4c5.6,0.6,11.3,1.9,16.9,0.6c2.3-0.5,4.6-1.6,6.3-3.3c1.7-1.7,2.4-3.9,2.7-6.3
				c1.4-10.7-0.9-21.9-5.9-31.4c-2.5-4.8-6-8.9-9.3-13.2c-1.6-2.1-3.2-4.3-4.6-6.6c-1.3-2.2-2.5-4.7-2.7-7.3
				c-0.2-2.1,0.3-4.9,2.6-5.6c2.4-0.8,4.3,1.3,5.5,3.2c1.3,2.1,2,4.5,3.1,6.7c1.2,2.5,2.7,4.9,4.3,7.1c1.5,2.1,3.2,4,5,5.8
				C217.5,162.9,217.8,162.5,217.6,162.3L217.6,162.3z"/>
		</g>
	</g>
	<g>
		<g>
			<path d="M228.1,167.8c-10.6-3.6-19.1-12.4-22.2-23.2c0-0.1-0.2-0.2-0.4-0.1c-2.5,1.7-2.6,4.8-2.1,7.5c0.4,1.9,1.1,3.8,1.7,5.7
				c0.7,2.2,1.5,4.3,2.3,6.5c3.1,8.9,6.2,17.7,8.3,26.9c1,4.6,1.8,9.3,2.2,13.9c0.2,2.3,0.2,4.7,0.2,7c-0.1,2.2-0.1,4.5-0.9,6.6
				c-2.4,6.7-10.4,5.5-16,5c-5.1-0.4-11.8-0.8-14.5,4.5c-3.8,7.4,3,14.4,7.8,19.3c11.9,12.1,23,25.4,30.4,40.8
				c1.8,3.9,3.4,7.8,4.7,11.9c1.2,3.7,2.2,7.7,1.4,11.6c-0.4,1.9-1.4,3.7-2.9,4.9c-1.7,1.4-4,2.1-6.1,2.6c-4.7,1.2-9.6,1.8-14.4,1.8
				c-2.4,0-4.8-0.2-7.2-0.5c-0.3,0-0.3,0.4-0.1,0.5c5.6,3.3,11.2,6.6,16.8,10c4.5,2.7,9.4,5.5,12.2,10.1c2.8,4.5,2.8,10.1,1.2,15
				c-1.7,5.2-5.1,9.4-9.3,12.8c-4.9,3.9-10.5,6.7-16.1,9.5c-0.1,0-0.2,0.2-0.1,0.3c2.2,2.9,5.6,4,9.1,4.4c4.6,0.5,9.4,0,14.1-0.2
				c11-0.4,21.9-0.7,32.9-1.3c5.7-0.3,11.4-1,16.9-3c0.1,0,0.2-0.2,0.1-0.4c-6.2-10.6-18.8-14.5-28.6-20.6
				c-5.3-3.3-13-8.9-10.6-16.1c2.3-7.1,10.8-9.1,16.9-11.6c1.6-0.6,3.1-1.4,4.6-2.3c1.2-0.8,2.5-1.7,3.2-3c1.3-2.5-1.4-4.1-3.4-4.9
				c-3.9-1.5-7.9-2.8-11.9-4.2s-8.1-2.5-11.9-4.3c-3.8-1.7-5.7-5-5.9-9.1c-0.2-3.6,0.6-7.2,2.1-10.5c2.8-6.5,7.8-11.8,12.6-16.9
				c6-6.2,12-12.3,18-18.5c5.9-6,11.9-11.9,17.6-18.1c4.4-4.7,9-10.5,8.9-17.3c-0.1-5.3-3.5-9.8-8.2-12.1c-4.7-2.4-10.2-2.5-14.9,0
				c-4.9,2.6-8.5,7.1-12.5,10.9c-4.4,4.1-9.9,7.3-16,5.2c-6.8-2.3-10.9-9.3-11.1-16.2c-0.2-8.1,3.7-15.5,8.1-21.9
				c2.3-3.3,4.7-6.4,7-9.6c2.1-2.9,4.3-5.9,5.4-9.4c1.8-5.4,0-12.8-6.5-13.7c-3.6-0.5-7.1,1.1-10.5,2.1c-3.8,1.1-7.7,1.7-11.7,1.6
				c-3.9-0.1-7.9-0.8-11.6-2.1c-0.3-0.1-0.4,0.4-0.1,0.5c7.1,2.5,14.8,2.9,22.1,1c3.7-1,7.5-2.9,11.4-2.5c3.8,0.4,6.3,3.4,7,6.9
				c0.7,3.8-0.8,7.5-2.7,10.7c-2,3.4-4.4,6.4-6.8,9.6c-4.5,6.1-9,12.4-10.9,19.9c-1.6,6.4-0.9,13.4,3.4,18.6
				c3.7,4.4,9.5,6.9,15.1,5.2c10.7-3.2,15.2-17.4,27.1-18c5.6-0.3,11.5,2.5,14.4,7.3c3.8,6.2,0.8,13.4-3.2,18.7
				c-2.3,3.1-5.1,5.8-7.8,8.6c-3,3.1-6,6.1-9,9.2c-6,6.2-12,12.4-18.1,18.5c-5,5.2-10.3,10.2-14.3,16.3c-3.5,5.3-6.1,11.9-4.9,18.3
				c0.6,3.2,2.4,5.7,5.4,7.2c3.4,1.7,7.2,2.7,10.8,4c4,1.4,8,2.8,12,4.2c1.6,0.5,3.9,1.1,4.7,2.7c1.1,2.1-1.7,3.9-3.2,4.9
				c-5.8,3.6-13,4.3-18.1,9.1c-2,1.9-3.6,4.4-3.8,7.2c-0.2,3.1,1.3,5.9,3.3,8.2c4,4.6,9.9,7.6,15.2,10.4c5.4,2.9,11,5.6,15.6,9.6
				c2.2,2,4.1,4.2,5.6,6.7c0-0.1,0.1-0.2,0.1-0.4c-9.5,3.4-20,3.1-30,3.5c-5.2,0.2-10.4,0.4-15.6,0.6c-4.8,0.2-9.7,0.5-14.5,0.5
				c-4.4,0-9.4-0.6-12.3-4.4c0,0.1-0.1,0.2-0.1,0.3c9.7-4.8,20.6-10.3,25-20.9c1.9-4.6,2.5-10,0.6-14.8c-2-4.9-6.3-8.1-10.6-10.8
				c-6.5-4-13.2-7.9-19.8-11.8c0,0.2-0.1,0.3-0.1,0.5c4.8,0.6,9.6,0.6,14.4,0c2.3-0.3,4.5-0.7,6.7-1.2c1.9-0.5,3.9-1,5.7-2
				c6.8-3.9,4.6-13,2.6-19c-5.2-15.9-15-30-26.1-42.4c-2.8-3.1-5.7-6.2-8.6-9.2c-3.1-3.1-6.6-6.4-8.1-10.6
				c-1.3-3.7-0.9-8.3,2.4-10.8c2.3-1.8,5.4-2,8.2-1.9c3,0.1,6,0.5,9,0.6c2.5,0.1,5.3-0.1,7.5-1.3c2.8-1.6,3.9-4.5,4.3-7.5
				c0.5-4.5,0.3-9.2-0.3-13.7c-1-9.2-3.6-18.2-6.4-27c-1.5-4.4-3-8.8-4.6-13.3c-0.8-2.2-1.6-4.5-2.3-6.7c-0.6-1.7-1.1-3.5-1.1-5.3
				c0-1.9,0.5-3.7,2.1-4.8c-0.1-0.1-0.2-0.1-0.4-0.1c3.2,10.9,11.8,19.9,22.6,23.6C228.3,168.4,228.4,167.9,228.1,167.8L228.1,167.8
				z"/>
		</g>
	</g>
	<g>
		<g>
			<path d="M206.8,160.2c2.8,3.9,7.2,6.4,12,6.9c4.8,0.6,9.6-1.1,13.1-4.3c2-1.8,3.5-3.9,4.5-6.4c-0.1,0-0.3,0.1-0.4,0.1
				c2.4,1.9,2.7,5.2,1.9,8c-1,3.3-3.4,5.6-6.3,7.4c-5.6,3.6-13.4,5.8-15.7,12.9c-0.9,2.9-0.2,5.7,1.6,8.1c1.7,2.3,3.9,4.1,5.7,6.3
				c0.9,1.1,1.7,2.4,2,3.8c0.5,1.9,0.1,3.8-0.1,5.7c-0.2,1.8-0.4,3.7,0.1,5.4c0.4,1.3,1.2,2.4,2.2,3.3c2.1,1.9,5,2.8,7.7,2.9
				c3.7,0.1,7.2-1.4,10.4-3c3.7-1.8,7.4-3.6,11.3-5c2-0.7,4-1.3,6-1.8c1.8-0.5,3.9-1,5.4,0.4c1,1,1.5,2.5,1.4,3.8
				c0,1.6-0.8,3.1-1.9,4.3c-1.2,1.4-2.7,2.4-4.1,3.4c-1.4,1-2.8,2-4.2,3c-5.4,4.2-10.4,9.1-14.3,14.8c-3.8,5.5-6.5,11.7-7.3,18.3
				c-0.5,3.8,0,7.6-0.1,11.5c-0.1,3.8-1,7.6-4.2,10c-2.5,1.9-5.9,2.1-8.1-0.3c-1.8-1.9-2.3-4.7-2.8-7.2c-0.6-2.6-1.1-5.3-2.5-7.5
				c-2-3-5.4-4.6-8.3-6.5c-6.2-4.2-11.9-9.2-16.8-14.9c-1.2-1.4-2.4-2.9-3.5-4.4c-1.1-1.5-2.2-3-3.1-4.6c-0.9-1.6-1.8-3.9,0-5.3
				c0.7-0.5,1.6-0.7,2.4-0.9c1-0.2,2.1-0.2,3.1-0.3c8.2-0.6,16.4,0.4,24.2,3c1.9,0.6,3.7,1.5,5.6,2c1.4,0.4,3,0.3,4.3-0.5
				c2.2-1.4,3-4.4,2.7-6.9c-0.4-3.4-2.9-6.3-4.8-9c-2.2-3.2-3.7-6.6-4.7-10.3c-2-7.1-2.4-14.5-4.1-21.6c-1.5-6.3-4.1-12.6-9.1-16.9
				c-2.6-2.2-5.7-3.4-8.5-5.3c-1.4-0.9-2.8-2-3.7-3.5c-0.7-1.1-0.9-2.4-0.9-3.7c0.1-2.3,1.3-4.9,3.9-4.9c0.3,0,0.3-0.5,0-0.5
				c-2.4,0-3.9,2-4.3,4.2c-0.5,2.6,0.4,5.1,2.3,6.9c2.5,2.4,5.8,3.7,8.7,5.5c2.9,1.9,5.2,4.4,6.9,7.4c3.6,6.1,4.9,13.1,5.9,20
				c1.1,7.5,2.3,15.3,6.4,21.8c1.9,3.1,4.8,6,5.4,9.7c0.4,2.7-0.6,6.4-3.6,7.2c-2,0.6-4.1-0.5-5.9-1.2c-1.9-0.7-3.9-1.4-5.9-1.9
				c-3.9-1.1-7.9-1.7-12-2c-4-0.3-8.2-0.3-12.1,0.4c-1.5,0.2-3.1,0.8-3.6,2.3c-0.6,1.5,0.1,3.3,0.9,4.6c1.8,3.2,4.2,6.1,6.6,8.9
				c2.5,2.9,5.1,5.6,8,8.2c2.8,2.5,5.7,4.8,8.8,6.8c3,2,6.7,3.7,8.6,7c1.4,2.4,1.8,5.3,2.4,8c0.5,2.4,1.2,5,3.1,6.7
				c2.2,1.9,5.1,1.9,7.5,0.5c3-1.8,4.5-4.9,5-8.2c0.5-4-0.2-8,0.1-12c0.2-3.5,1-6.9,2.2-10.2c2.4-6.6,6.6-12.5,11.5-17.6
				c2.5-2.6,5.2-5,8.1-7.2c1.4-1.1,2.8-2.1,4.2-3.1c1.4-1,2.9-2,4-3.3c1.9-2.1,2.7-5.1,1.3-7.7c-0.6-1.1-1.6-1.9-2.8-2.2
				c-1.9-0.4-4,0.4-5.8,0.9c-4,1.1-8,2.7-11.8,4.5c-3.6,1.8-7.2,3.8-11.1,4.6c-3.2,0.6-6.6,0.2-9.4-1.7c-1.3-0.9-2.3-2.1-2.9-3.5
				c-0.7-1.9-0.4-3.9-0.2-5.8c0.3-1.8,0.5-3.7,0.1-5.5c-0.3-1.3-1-2.6-1.8-3.7c-1.7-2.3-4-4.1-5.8-6.3c-0.9-1.1-1.7-2.4-2-3.9
				c-0.4-1.8-0.1-3.6,0.7-5.3c1.6-3.4,4.7-5.8,7.9-7.5c3.2-1.8,6.6-3.2,9.4-5.5c2.4-1.9,4.1-4.6,4.6-7.6c0.4-2.6-0.3-5.3-2.4-7
				c-0.1-0.1-0.4-0.1-0.4,0.1c-1.7,4.2-5.2,7.6-9.4,9.3c-4.3,1.7-9.2,1.4-13.4-0.7c-2.3-1.2-4.4-2.9-5.9-5
				C207,159.7,206.6,160,206.8,160.2L206.8,160.2z"/>
		</g>
	</g>
	<g>
		<g>
			<path d="M204.3,233.9c-0.1-3.4,2.5-6.2,5.4-7.5c3.6-1.6,7.7-1.5,11.6-1.6c4.3-0.1,8.5-0.1,12.8-0.3c1.5-0.1,2.9-0.4,3.8-1.7
				c0.9-1.2,1.3-2.8,2.9-3.2c1.3-0.4,2.7,0.1,3.7,0.9c1.3,0.9,1.9,2.3,2,3.9c0.1,3.8-2.9,7-5.5,9.5c-5.2,4.8-11.7,8.4-15.1,14.9
				c-1.6,2.9-2.2,6.2-1.6,9.4c0.7,3.3,2.5,6.2,4.7,8.6c0.6,0.6,1.2,1.3,1.9,1.9c0.1-0.1,0.2-0.3,0.3-0.4
				c-6.1-4.6-13.1-7.9-19.8-11.6c-6-3.4-11.9-7.3-16.3-12.7c-2.4-3-4.2-6.4-5.2-10.1c-0.1,0.1-0.1,0.2-0.2,0.3
				c10-2.3,20.2,1.1,30.2-0.9c2.7-0.5,5.2-1.5,7.5-2.9c-0.1-0.1-0.3-0.1-0.4-0.2c0.8,6.9-5,12.2-7.8,18c-1.4,2.8-2.3,6-1.5,9.1
				c0.6,2.6,2.4,4.6,4.3,6.3c2.2,2,4.7,4,6,6.8c0.1,0.3,0.6,0,0.4-0.3c-2.2-4.9-8.1-7-9.9-12c-1.2-3.2-0.3-6.7,1.1-9.7
				c1.4-2.9,3.4-5.5,5-8.3c1.8-3,3.2-6.4,2.8-9.9c0-0.2-0.2-0.3-0.4-0.2c-4.2,2.7-9.2,3.4-14.1,3.4c-5.1,0-10.2-0.6-15.3-0.6
				c-2.8,0-5.5,0.2-8.2,0.9c-0.1,0-0.2,0.2-0.2,0.3c1.7,6.6,6.1,12,11.2,16.2c5.8,4.7,12.6,8,19.1,11.5c3.9,2.1,7.7,4.3,11.2,7
				c0.2,0.2,0.5-0.2,0.3-0.4c-2.6-2.5-5-5.5-6.1-9c-1.1-3.6-0.5-7.2,1.2-10.4c3.7-6.8,10.8-10.4,16-15.6c2.4-2.4,4.9-5.6,4.6-9.3
				c-0.2-2.6-2.3-4.8-5-5c-1.2-0.1-2.4,0.4-3.1,1.4c-1.1,1.3-1.4,3.1-3.3,3.5c-1,0.2-2.1,0.2-3.1,0.2c-1.1,0-2.2,0.1-3.2,0.1
				c-2.2,0.1-4.4,0.1-6.6,0.2c-3.9,0.1-8.1-0.1-11.8,1.2c-2.9,1-5.7,3.2-6.7,6.2c-0.2,0.7-0.3,1.4-0.3,2.2
				C203.8,234.2,204.3,234.2,204.3,233.9L204.3,233.9z"/>
		</g>
	</g>
	<g>
		<g>
			<path d="M232.7,310c1.6,0,2.6,1.5,2.8,3c0.2,1.8-0.9,3.4-2.2,4.5c-1.5,1.3-3.3,2.3-5,3.4c-1.9,1.2-3.9,2.5-5.8,3.7
				c-2.2,1.4-4.4,2.8-6.6,4.2c-0.1,0.1-0.2,0.3-0.1,0.4c3.6,3.4,8.7,4.1,13.4,3.4c5.5-0.8,10.4-3.5,15.2-6.1c3-1.6,6-3.3,9.3-4.4
				c-0.1-0.1-0.2-0.2-0.3-0.2c-0.2,3.2-2.3,5.8-4.8,7.6c-2.6,1.9-5.8,3.1-8.6,4.6c-2.4,1.3-4.7,2.9-6.3,5.1
				c-1.4,1.9-2.4,4.2-2.8,6.5c-0.9,4.7-0.1,9.8,2.6,13.7c0.7,1,1.4,1.8,2.3,2.6c1,0.9,2.2,1.7,3.3,2.6c1,0.9,2,1.9,2.3,3.2
				c0.3,1.5-0.4,2.8-1.4,3.8c-1.2,1.1-2.8,1.9-4.3,2.5c-2,0.9-3.9,1.7-5.9,2.4c-3.9,1.5-8,2.9-12,4.1c-0.2,0.1-0.3,0.4,0,0.5
				c8.8,1.3,17.7,0.9,26.4-1c8.7-1.9,17-5.4,24.4-10.2c0.9-0.6,1.8-1.2,2.7-1.9c0.8-0.6,1.8-1.2,2.5-2c1.6-1.7-0.2-3.2-1.6-4.3
				c-3.5-2.6-7.4-4.6-11.4-6.3c-4.1-1.7-8.3-3.2-12.4-4.9c-4.1-1.7-8.3-3.5-11.5-6.6c-2.9-2.8-5.2-7.1-2.8-10.9c2-3,5.8-4.2,8.6-6.3
				c0.7-0.5,1.3-1.1,1.8-1.7c0.2-0.2-0.1-0.6-0.4-0.4c-2.3,2.7-5.9,3.8-8.6,6c-1.3,1.1-2.3,2.4-2.8,4c-0.5,1.7-0.2,3.5,0.5,5.1
				c1.7,3.8,5.2,6.4,8.7,8.3c3.8,2,7.9,3.5,11.9,5.1c4.1,1.6,8.2,3.1,12.1,5.2c1.9,1,3.8,2.1,5.5,3.4c0.8,0.6,2.3,1.5,2.3,2.7
				c0,1.1-1.6,2-2.4,2.6c-7.2,5.3-15.3,9.2-23.9,11.5c-8.5,2.3-17.5,3.1-26.3,2.3c-1.1-0.1-2.3-0.3-3.4-0.4c0,0.2,0,0.3,0,0.5
				c3.7-1.1,7.3-2.3,10.9-3.7c1.8-0.7,3.6-1.4,5.4-2.1c1.5-0.6,3-1.2,4.4-2c2.1-1.3,4.2-3.4,3.3-6.1c-0.9-2.5-3.6-3.9-5.5-5.5
				c-3.8-3.4-5.5-8.7-5.1-13.8c0.2-2.5,0.9-4.9,2.1-7.1c1.4-2.5,3.5-4.3,5.9-5.8c3.3-1.9,6.9-3,9.9-5.3c2.6-1.9,4.7-4.6,4.9-7.9
				c0-0.2-0.2-0.3-0.3-0.2c-10,3.5-18.9,12.2-30.3,10.5c-2.7-0.4-5.2-1.5-7.2-3.3c0,0.1,0,0.3-0.1,0.4c4.4-2.8,8.8-5.6,13.2-8.5
				c2.8-1.8,7.4-4.2,6.5-8.3c-0.3-1.6-1.5-3-3.2-3.1C232.4,309.5,232.4,310,232.7,310L232.7,310z"/>
		</g>
	</g>
	<g>
		<g>
			<path d="M190.9,152.2c-0.1-2.3,2.7-3.7,4.6-4.4c1.8-0.6,3.7-0.9,5.6-0.8c4.1,0.2,8.1,1.6,11.8,3.3c6.4,2.9,12.5,6.6,19.7,7.1
				c3,0.2,6.1-0.2,8.8-1.8c2.9-1.7,4.7-4.6,6.1-7.6c1.5-3.1,2.7-6.7,5.6-8.8c2.2-1.6,5.7-2.8,8.2-1.1c3.5,2.3,1.7,7.9,0.3,11
				c-1.5,3.4-4,6.2-6.6,8.8c-5.5,5.2-12.3,8.9-17.8,14c-5.4,5-8.7,11.4-9.2,18.9c-0.3,3.7,0.2,7.5,1.1,11.1c0.5,1.8,1.1,3.6,1.8,5.3
				c0.6,1.6,1.3,3.3,2.6,4.4c2.6,2.3,6.2,1.2,9,0c4-1.8,7.8-3.7,11.9-5.2c4-1.4,8.1-2.6,12.3-3.5c2.1-0.4,4.3-0.8,6.4-1.1
				c2.2-0.3,4.7-0.7,6.7,0.6c3,1.8,2.9,5.9,2.3,8.9c-0.8,3.6-2.5,7.1-4.2,10.3c-3.8,7.1-8.8,13.6-14,19.8
				c-9.9,12-20.9,24.1-25.2,39.5c-1,3.7-1.6,7.5-1.7,11.3c0,1.9,0,3.9,0.6,5.7c0.5,1.7,1.6,3.1,2.6,4.5c1.1,1.5,1.9,3.1,2.1,5
				c0.1,1.7-0.2,3.4-0.5,5c-0.5,2.8-1.2,5.9,0,8.5c2.5,5.8,10.1,4,15.1,4.3c3.4,0.3,6.5,1.7,7.6,5.2c1,3.2,0.3,6.8-1.3,9.7
				c-3.3,6.2-9.7,11.1-9.6,18.7c0.1,2.8,1.2,5.6,3.6,7.2c2.5,1.6,5.6,1.7,8.4,1.9c3,0.2,6.2,0.5,8.3,2.9c0-0.2,0-0.4,0-0.5
				c-4.7,6-12.9,6.6-20,5.9c-4.4-0.4-8.7-1.2-13-2.1c-4.9-1-9.7-2.1-14.4-3.3c-5.4-1.4-10.7-3-16-4.7c0,0.2,0.1,0.5,0.1,0.7
				c3.4-2.5,7.9-1.7,11.6-0.3c3.9,1.6,7.6,4,12,4.5c3,0.3,6.4-0.8,8.3-3.2c1.8-2.3,1.7-5.2-0.1-7.5c-2.1-2.7-5.4-4.2-8-6.4
				c-2.9-2.6-5-6.1-6.8-9.5c-1.8-3.4-3.5-6.8-5.8-9.9c-2.2-3-4.9-5.5-7.8-7.8c-7-5.3-15.3-8.7-23.5-11.9c0,0.3-0.1,0.5-0.1,0.7
				c7.4-0.2,14.8-0.4,22.2-0.5c3.8-0.1,7.6-0.2,11.3-0.3c2.3-0.1,5.3,0.2,7.1-1.5c2-1.8,1.3-5.2,0.9-7.5c-0.5-3-1.4-5.9-2.8-8.5
				c-2.8-5.4-7.2-9.4-12.1-12.8c-5.1-3.5-10.6-6.4-15.8-9.8c-5.1-3.4-10.1-7.1-14.8-11.1c-9.5-8.1-18.1-17.3-25.5-27.4
				c-3.7-5-8.1-10.8-8.3-17.3c-0.2-5.8,3.8-10.1,9.2-11.5c12.4-3.2,21.3,8,28.2,16.4c3.9,4.8,8.1,9.5,13.9,12
				c4.9,2.1,10.6,2.3,15.2-0.8c7.8-5.2,9.4-16.3,8.3-24.9c-1.6-11.8-7-22.7-14-32.2c-3.6-4.9-7.6-9.4-11.8-13.7
				c-4.3-4.4-9.5-8.7-10.8-15c-0.6-3-0.2-6.1,1.6-8.6c0.3-0.4-0.4-0.8-0.6-0.4c-3.4,4.5-2.1,10.7,0.8,15.1c3.2,4.9,8,8.8,12,13.1
				c8.2,8.9,15.5,19.1,19.5,30.7c3.3,9.6,4.9,21.5-0.9,30.6c-2.8,4.4-7.5,7.1-12.9,6.8c-6.7-0.4-12.2-4.8-16.5-9.5
				c-7.3-8.1-14.1-19.9-26.2-20.9c-4.4-0.4-9.1,0.9-12.3,3.9c-4,3.9-4,9.7-2.1,14.6c2.2,5.6,6.1,10.6,9.7,15.3
				c3.7,4.8,7.7,9.4,12,13.8c8.4,8.6,17.8,16.3,27.9,22.8c5.2,3.3,10.7,6.2,15.7,9.9c5.1,3.8,9.3,8.6,11.5,14.7
				c0.5,1.4,0.9,2.9,1.1,4.4c0.3,1.7,0.7,3.8,0.3,5.5c-0.8,3.5-5.8,2.9-8.4,3c-7.2,0.2-14.5,0.4-21.7,0.5c-3.6,0.1-7.2,0.2-10.9,0.3
				c-0.4,0-0.5,0.6-0.1,0.7c7,2.8,14.1,5.7,20.5,9.8c3.1,2,6,4.4,8.5,7.2c2.5,2.8,4.4,6,6.2,9.3c1.7,3.2,3.3,6.5,5.5,9.3
				c2.1,2.7,4.7,4.6,7.4,6.5c2.6,1.9,5.8,4.8,4.2,8.4c-1.4,3.1-5.3,4.5-8.5,4.1c-4.7-0.5-8.7-3.5-13.1-4.9
				c-3.5-1.1-7.6-1.5-10.8,0.8c-0.3,0.2-0.2,0.6,0.1,0.7c9.8,3.3,19.8,5.9,30,7.9c7.8,1.6,16.3,3.5,24.2,1.8
				c3.9-0.8,7.4-2.6,9.9-5.8c0.1-0.2,0.1-0.4,0-0.5c-4.2-4.9-11.7-1.7-16.7-4.9c-3.2-2-3.8-6-3.1-9.4c0.7-3.7,3.1-6.8,5.3-9.8
				c2.2-2.9,4.5-5.9,5.3-9.5c0.6-2.8,0.6-5.9-0.9-8.4c-3.4-5.5-10.8-3.4-16.1-4c-3.5-0.4-6.1-2.5-6.4-6.2c-0.2-3.2,1-6.4,1.1-9.6
				c0.1-1.5-0.1-3-0.7-4.3c-0.8-1.7-2.1-3.1-3.1-4.7c-2.1-3.5-1.6-8.4-1.1-12.2c2.1-16.6,13.4-30.1,23.8-42.5
				c5.1-6.2,10.3-12.4,14.5-19.3c2-3.3,3.8-6.7,5.2-10.3c1.1-2.8,2-5.9,1.5-8.9c-0.4-2.9-2.3-5.2-5.3-5.6c-1.9-0.3-3.9,0.1-5.7,0.3
				c-2.2,0.3-4.4,0.8-6.6,1.2c-4.2,0.9-8.4,2.2-12.5,3.7c-1.9,0.7-3.8,1.5-5.7,2.4c-2,0.9-3.9,2-5.9,2.8c-1.8,0.7-4,1.4-5.9,0.8
				c-2.2-0.8-3.1-3.1-3.9-5c-1.6-3.7-2.6-7.7-2.8-11.7c-0.6-8.1,2-15.7,7.7-21.5c5.4-5.5,12.2-9.1,17.9-14.2
				c2.7-2.4,5.1-5.1,6.9-8.2c1.7-2.9,3.1-6.6,2.6-10c-1-6.5-8.9-4.9-12.4-1.6c-2.4,2.3-3.5,5.8-5,8.7c-1.7,3.4-3.9,6.4-7.6,7.7
				c-6.8,2.4-14.6-0.9-20.6-3.9c-6.4-3.3-14-7.1-21.4-5.5c-2.6,0.6-6.8,2.3-6.7,5.6C190.2,152.6,191,152.6,190.9,152.2L190.9,152.2z
				"/>
		</g>
	</g>
	<g>
		<g>
			<path d="M191.8,146.9c-1.6-4.3,3.5-7.8,7.3-7.5c4.7,0.4,8.2,4.5,11,7.9c2.7,3.3,5.7,6.9,9.9,8.1c3.8,1,7.6-0.3,10.8-2.3
				c3.7-2.3,6.9-5.3,10.3-7.9c1.8-1.3,3.9-2.9,6.2-2.6c1.9,0.2,3.5,1.6,4.4,3.2c1,1.6,1.5,3.6,1.3,5.5c-0.2,2.3-1.5,4.4-2.8,6.2
				c-1.4,1.8-3.1,3.4-4.7,5c-1.8,1.7-3.6,3.4-5.2,5.2c-3.3,3.6-6.4,7.4-9.1,11.5c-2.7,4-5.3,8.3-7.2,12.8c-1.7,4-3,8.5-2.3,12.9
				c0.6,4.2,3.1,7.6,6.9,9.6c3.9,2.1,8.3,2.5,12.6,2c2.6-0.3,5.1-0.9,7.7-1.6c1.4-0.4,2.7-0.7,4.1-1.1c1.3-0.4,2.7-0.8,4.1-0.8
				c2.1,0,3.6,1.4,3.8,3.4c0.2,1.8-0.4,3.6-1.1,5.1c-0.9,1.9-2.3,3.5-3.7,5.1c-1.7,1.8-3.4,3.6-5.2,5.3
				c-6.9,6.5-14.9,12.4-20.1,20.5c-4.5,6.9-7.3,15.9-4.9,24c0.3,1,0.7,1.9,1.1,2.8c0.2,0.4,0.4,0.9,0.7,1.3c0.1,0.3,0.9,1.2,0.9,1.4
				c-0.1,0.3-1.2,0.7-1.5,0.8c-0.5,0.2-1,0.3-1.4,0.4c-1.1,0.2-2.3,0.1-3.4-0.1c-4.5-0.9-8.4-4-11.7-7c-4.1-3.8-8-7.9-12-11.8
				c-4.1-4-8.1-8-12.2-12c-3.8-3.8-7.8-7.5-11.5-11.4c-3.3-3.6-6.4-7.5-8.1-12.1c-0.8-2.1-1.3-4.3-1.2-6.6c0.1-2.3,0.6-5,2.2-6.8
				c2-2.2,4.9-1.7,7.3-0.5c2.1,1,4.1,2.4,5.9,3.7c7.7,5.5,14.3,12.5,19.3,20.4c1.2,2,2.4,4,3.4,6c1.1,2.2,2.2,4.5,3.5,6.6
				c2.3,3.7,5.7,7.1,10.2,7.5c3.8,0.4,7.1-1.9,8.8-5.2c2-3.8,1.7-8.1,0.5-12.1c-1.6-4.9-4.4-9.3-6.2-14.1c-0.9-2.5-1.5-5.2-1.4-7.9
				c0.1-2.5,1-4.8,2.1-7c1.8-3.7,4.2-7.7,2.9-11.9c-0.7-2.2-2.1-4-3.5-5.7c-1.6-1.9-3.2-3.9-4.7-5.9c-5.9-8-10.8-16.8-14.5-26.1
				c-1.8-4.4-3.3-9-4.5-13.6c0-0.2-0.3-0.1-0.2,0.1c2.5,9.6,6.3,18.9,11.1,27.6c2.4,4.4,5.2,8.5,8.2,12.5c1.4,1.9,3,3.8,4.5,5.6
				c1.6,1.9,3.2,4,3.6,6.5c0.8,4.6-2.4,8.7-4.1,12.8c-0.9,2.2-1.3,4.5-1.2,6.9c0.2,2.6,1,5.1,1.9,7.5c1.9,4.8,4.9,9.3,6.1,14.3
				c1,4.2,0.6,8.9-2.4,12.3c-1.3,1.6-3.1,2.6-5.2,2.9c-2.4,0.3-4.8-0.5-6.8-1.8c-4.3-2.8-6.3-7.8-8.5-12.2
				c-4.2-8.4-10.1-15.9-17.1-22.1c-1.7-1.5-3.5-2.9-5.4-4.3c-1.9-1.4-3.9-2.8-6-3.8c-1.9-0.9-4.2-1.7-6.2-0.8
				c-1.9,0.8-2.9,2.7-3.4,4.6c-2.7,9.2,4.3,17.8,10.2,24c3.9,4,7.9,7.8,11.9,11.7c4.1,4,8.2,8.1,12.3,12.1c2.1,2,4.1,4,6.2,6.1
				c1.8,1.8,3.6,3.7,5.6,5.4c3.2,2.7,7.1,5.4,11.4,5.8c1.9,0.1,3.8-0.3,5.5-1.3c0.1,0,0.1-0.1,0-0.2c-5.5-7.5-4.1-17.5-0.1-25.4
				c4.4-8.9,12.2-15.2,19.4-21.7c3.7-3.3,7.4-6.7,10.4-10.7c1.8-2.3,3.4-6.1,2.3-9c-0.6-1.4-1.9-2.3-3.5-2.3
				c-1.3-0.1-2.6,0.3-3.8,0.7c-1.3,0.4-2.6,0.7-3.9,1.1c-5.1,1.4-10.4,2.6-15.7,1.6c-4.4-0.8-8.6-3.1-10.7-7.2
				c-2.2-4.4-1.5-9.5,0-14c1.6-4.7,4.2-9.1,6.8-13.3c2.8-4.3,5.9-8.4,9.3-12.3c1.7-1.9,3.5-3.8,5.3-5.5c1.7-1.6,3.4-3.2,4.9-4.9
				c2.6-3,4.6-6.8,3.4-10.8c-0.9-3.1-3.5-6.1-7-5.5c-2.2,0.4-4.1,1.9-5.9,3.3c-1.7,1.3-3.4,2.7-5,4c-3.3,2.6-7.1,5.4-11.4,5.8
				c-4.9,0.4-8.7-2.8-11.7-6.3c-2.9-3.4-5.6-7.3-9.7-9.2c-1.8-0.8-3.7-1.1-5.6-0.6c-1.7,0.5-3.4,1.5-4.4,3c-1,1.4-1.3,3-0.7,4.6
				C191.6,147.1,191.9,147.1,191.8,146.9L191.8,146.9z"/>
		</g>
	</g>
	<g>
		<g>
			<path d="M212.4,324.4c6.8,0.2,11.6,6.4,12.8,12.7c1.5,7.8-2.6,15.5-6.9,21.7c-1.1,1.6-2.3,3.1-3.5,4.8c-0.9,1.3-1.8,2.8-1.4,4.4
				c0.7,2.9,4.4,3.3,6.8,3.6c8.4,1.2,16.9,0.5,25.1-1.2c9.8-2,19.4-5.2,28.8-8.5c0.1,0,0.1-0.2,0-0.2c-7-3.7-14-7.4-21-11.1
				c-6-3.2-13.3-6.1-17.3-11.9c-3.5-5-3.6-12.8,2.4-15.9c5.4-2.8,11.6-0.9,17.3-1.5c4.6-0.5,10.4-2.8,10.9-8.1
				c0-0.1-0.1-0.1-0.2-0.1c-8.4,3.8-16.7,7.6-25,11.4c-5.8,2.6-14.6,6.4-19.9,0.9c-0.1-0.1-0.2,0-0.2,0.1
				c-0.8,6.7,4.4,11.9,9.9,14.7c3.2,1.6,6.6,2.6,9.8,4c1.7,0.8,3.3,2.1,3.6,4c0.3,1.6-0.4,3.2-1.3,4.5c-3.4,5.2-10.8,7-12.7,13.3
				c-0.7,2.3,0.1,4.6,2.2,5.9c2.7,1.6,6.4,1.2,9.4,1.2c9.3,0,18.6-0.7,27.8-1.9c0.1,0,0.1-0.2,0-0.2c-16.8-6.3-36.1-15.5-39.9-35
				c-1.7-8.5,0.3-17.2,6.8-23.2c3-2.7,6.6-5.2,7.9-9.2c1.4-4.1,0-8.5-0.5-12.7c-0.5-4.3,0.3-8.6,4.1-11.2c3-2.1,6.7-2.9,10.2-3.9
				c3.3-0.9,6.7-2,9.4-4.3c1.8-1.5,3.1-3.4,4.3-5.3c1.5-2.4,3-4.7,4.5-7.1c6-9.6,11.7-19.3,17.3-29c1.4-2.5,2.8-5,4.2-7.5
				c1.2-2.2,2.5-4.3,3.4-6.7c1.4-4,0.6-8-2.3-11.1c-5.6-6-15.7-6.3-22-1.3c-6.9,5.4-8.3,14.7-8.8,22.9c-0.6,9.9-0.6,21.4-9.3,28.1
				c-3.6,2.8-8.2,4-12.6,2.4c-4.1-1.5-6.9-5-9.4-8.4c-2.3-3.3-4.3-6.9-6.9-10.1c-2.7-3.4-5.9-6.5-9.4-9.1c-6.9-5.4-14.9-9.3-23-12.6
				c-4.2-1.7-8.4-3.3-12.7-4.8c-3.5-1.2-8.5-3.5-11.7-0.5c-2.8,2.6-2.3,7.1-1.1,10.3c1.5,3.8,4.4,6.9,7.5,9.5c3.8,3.2,8,6,12.1,8.9
				c4.7,3.4,9.4,6.7,14.1,10.1c4.4,3.1,9.1,6.1,13.1,9.7c3.8,3.4,7,8.1,6.7,13.4c0,0.6-0.1,1.3-0.3,1.9c0,0.2-0.1,0.6-0.2,0.8
				c-0.3,0.5-0.1,0.4-0.5,0.1c-0.4-0.2-0.8-1.1-1-1.4c-0.4-0.5-0.7-1.1-1-1.7c-1.2-2.1-2.2-4.3-2.9-6.6c-1.5-4.7-1.9-9.8-1.1-14.7
				c0.7-4.3,2.4-9.1,6.2-11.5c4.9-3.1,10.5-0.3,14.9,2.3c4.9,2.9,9.8,5.8,14.6,8.7c0.1,0,0.2,0,0.2-0.1c-1-8.8-7.7-15.2-13.7-21.1
				c-3.4-3.4-6.8-6.8-9.4-10.8c-3-4.6-4.9-9.9-5.6-15.4c-1.4-11.1,2.6-21.6,9.1-30.6c3.2-4.4,6.8-8.4,10.6-12.3
				c3.6-3.7,7.6-7.1,10.6-11.4c2.8-4,4.4-8.8,2.9-13.6c-1.2-3.9-4.3-7.3-8.6-7.4c-0.1,0-0.1,0-0.1,0.1c-2.3,8.3-4.6,16.5-7,24.8
				c-1.7,6.1-3.5,13.2-8.9,17.1c-1.5,1.1-3.3,1.9-5.2,2.2c-2.2,0.3-4.2-0.5-5.9-1.9c-2.8-2.2-4.9-5.2-6.6-8.3
				c-3.3-5.9-5.2-12.6-9.1-18.2c-3.8-5.5-9.5-10.6-16.6-10.1c-0.1,0-0.1,0.1-0.1,0.2c8.2,15.9,19.3,30.2,32.5,42.3
				c0.1,0.1,0.1,0,0.2,0c7.9-10.6,15.9-21.3,23.8-31.9c1.9-2.6,3.9-5.2,5.8-7.8c1-1.3,1.9-2.6,2.9-3.9c0.9-1.2,1.8-2.6,2.9-3.6
				c4.3-4,9.7,1.6,9.5,6.3c-0.3,6-7.4,9.2-12.2,10.9c-0.1,0.1-0.1,0.3,0.1,0.2c5.2-1.8,13.3-5.6,12.4-12.4c-0.3-2.5-2-5.1-4.3-6.2
				c-2.8-1.3-5.1,0.2-6.9,2.4c-5.8,7.5-11.4,15.2-17,22.8c-2.9,3.9-5.8,7.8-8.7,11.7c-1.4,1.9-2.9,3.9-4.4,5.8
				c-0.7,0.9-1.4,1.8-2,2.7c-0.4,0.5-0.8,1-1.2,1.6c-0.1,0.2-0.3,0.4-0.4,0.6c-0.4,0.4-0.4,0.2-0.9,0c-0.8-0.4-1.5-1.4-2.1-2
				c-0.8-0.8-1.6-1.6-2.4-2.4c-1.5-1.5-2.9-3-4.4-4.6c-2.9-3.1-5.6-6.3-8.2-9.7c-5.2-6.8-9.9-14-13.9-21.5c-0.1-0.3-0.7-0.9-0.6-1.2
				c0.1-0.2,0.9-0.1,1.1-0.1c1,0,2.1,0.2,3.1,0.5c1.8,0.5,3.5,1.3,5,2.4c3.3,2.2,5.8,5.4,7.9,8.7c4,6.6,5.9,14.3,10.5,20.5
				c2,2.7,4.7,5.9,8.2,6.4c3.3,0.6,6.7-1.2,9-3.5c5.2-5.1,6.6-13,8.5-19.7c1.3-4.7,2.6-9.4,3.9-14c0.3-1.1,0.6-2.2,0.9-3.3
				c0.1-0.6,0.3-1.1,0.5-1.6c0.1-0.4,0.3-1.8,0.8-2c0.5-0.2,1.8,0.3,2.3,0.5c0.9,0.3,1.7,0.8,2.4,1.4c2.6,2.2,3.9,5.7,4,9
				c0.1,3.9-1.9,7.6-4.1,10.6c-2.5,3.3-5.5,6.1-8.4,8.9c-2.9,2.9-5.7,5.8-8.3,8.9c-5,5.9-9.3,12.5-11.6,20
				c-2.3,7.5-2.1,15.6,0.4,23.1c2.4,7,7,12.5,12.2,17.7c4.8,4.8,10.2,9.6,13,15.9c0.7,1.6,1.3,3.2,1.6,4.9c0,0.1,0.1,0.4,0.1,0.5
				c0,0.4,0,0.4-0.3,0.3c-0.4,0-1.1-0.6-1.5-0.9c-1.1-0.7-2.2-1.3-3.4-2c-4-2.4-8-5-12.2-7.1c-3.3-1.6-7.2-2.8-10.8-1.3
				c-2.9,1.2-4.9,3.9-6.1,6.8c-2.9,6.7-2.4,14.8-0.1,21.6c1.2,3.4,2.9,6.5,5.1,9.3c0.1,0.1,0.2,0,0.2-0.1c2.6-6.6-1.6-13.2-6.5-17.4
				c-2.9-2.5-6-4.6-9.1-6.8c-3.6-2.6-7.2-5.1-10.7-7.7c-3.5-2.5-7-5-10.5-7.5c-3.1-2.2-6.2-4.3-9-6.8c-2.5-2.2-4.9-4.7-6.4-7.8
				c-1.4-3-2.2-7-0.4-10c2.4-3.9,7.4-2.3,10.8-1.1c3.2,1.1,6.5,2.3,9.7,3.5c6.5,2.5,12.8,5.2,18.8,8.6c5.9,3.4,11.4,7.4,16,12.5
				c4.3,4.7,7,10.5,11.1,15.3c3.6,4.3,8.7,7.4,14.5,6c6-1.5,10.5-6.8,12.5-12.4c2.6-7.3,2.1-15.1,2.9-22.7
				c0.7-6.6,2.6-13.8,7.9-18.3c5.4-4.6,14-5.2,19.9-1.1c3,2.1,5.3,5.3,5.2,9.1c0,4.2-2.7,8-4.7,11.5c-4.2,7.4-8.4,14.8-12.8,22
				c-4.3,7.2-8.6,14.6-13.4,21.6c-2,2.9-4.3,5.2-7.5,6.6c-2.6,1.2-5.5,1.8-8.2,2.6c-4.6,1.3-9.7,3.2-11.3,8.2
				c-2.1,6.5,2.7,13.5-0.2,19.9c-1.4,3-4.1,5.1-6.5,7.3c-2.3,2-4.3,4.2-5.7,6.9c-5.6,10.7-1.9,24.3,5.6,33
				c4.5,5.2,10.2,9.2,16.2,12.4c3,1.6,6.2,3.1,9.4,4.4c1.6,0.7,3.3,1.4,5,2c0.4,0.1,0.8,0.3,1.1,0.4c0.3,0.1,0.6,0,0.1,0.1
				c-0.2,0.1-0.5,0-0.8,0.1c-1.1,0.1-2.2,0.3-3.3,0.4c-8.6,1-17.3,1.4-25.9,1.3c-3.4,0-8.4-0.5-8.7-4.9c-0.2-3.5,2.9-6.5,5.5-8.5
				c2.5-1.9,5.1-3.5,7.1-6.1c1.4-1.9,2.4-4.5,1.2-6.8c-1.5-2.8-5.2-3.5-7.9-4.5c-3.7-1.4-7.4-3-10.3-5.8c-2.7-2.5-4.7-6-4.7-9.7
				c0-0.1-0.1-1,0.1-1c0.1,0,0.6,0.6,0.8,0.7c0.5,0.4,1.1,0.8,1.7,1c1.1,0.5,2.4,0.8,3.6,0.9c6.7,0.5,13.2-3.3,19-6
				c4-1.8,8-3.6,12-5.4c2-0.9,4-1.8,6-2.7c0.4-0.2,0.9-0.5,1.3-0.6c0.4-0.1,0.3-0.3,0.4,0.2c0,0.1-0.1,0.4-0.1,0.5
				c-0.2,0.7-0.5,1.4-0.9,2c-3.4,5.3-11,4.9-16.5,4.8c-5.4-0.1-12.2,0.2-14.7,5.9c-2.6,5.9,0.9,12.2,5.5,15.9
				c2.7,2.2,5.8,3.9,8.9,5.5c3.8,2,7.6,4,11.4,6c3.9,2,7.7,4.1,11.6,6.1c0.4,0.2,2.4,1.1,2.4,1.4c0,0.3-2.8,1-3.1,1.1
				c-2,0.7-4,1.4-6,2c-7.9,2.6-16,4.9-24.3,6.1c-4.3,0.6-8.6,1-12.9,0.9c-2,0-4-0.2-6-0.4c-1.9-0.2-3.9-0.4-5.6-1.2
				c-4.9-2.4-0.2-7.4,1.8-10.1c2.2-3.1,4.3-6.3,5.8-9.7c2.5-5.6,3.3-11.9,0.6-17.6c-2.1-4.7-6.4-8.5-11.7-8.6
				C212.2,324.1,212.2,324.4,212.4,324.4L212.4,324.4z"/>
		</g>
	</g>
	<g>
		<g>
			<path d="M228,147.8c2.6-5.7,6.1-10.9,10.5-15.4c4.4-4.4,9.8-9,16.1-10c6-1,13,2.1,13.7,8.8c0.4,3.4-0.9,6.8-2.4,9.8
				c-1.4,2.9-3.1,5.6-4.9,8.4c-3.5,5.5-7.5,10.8-11.8,15.7c-4,4.6-8.4,8.8-12.9,12.9C228.6,185,220,193,218.4,204
				c-0.8,5.3,0.3,10.8,2.8,15.4c2.4,4.5,6.6,9.3,12,9.9c5.5,0.6,10.2-3.3,14.2-6.4c5.3-4.1,10.8-7.8,16.7-11
				c5.8-3.2,11.8-5.9,18-8.2c2.8-1,6.3-2.6,9.4-1.9c3.6,0.9,4.5,5.1,5.2,8.2c1.5,6.5,1.1,13.2-2.9,18.7c-3.2,4.3-7.8,7.4-12.3,10.1
				c-4.7,2.8-9.6,5.4-14,8.7c-4.5,3.3-8.6,7-12.4,11c-7.5,8-13.5,17.4-17.6,27.5c-2.1,5.2-3.7,10.6-4.8,16
				c-0.9,4.9-1.7,10.6,0.9,15.2c5.4,9.7,20,6.1,28.4,3.8c11.4-3.1,22.2-8.5,31.5-15.7c2.3-1.8,4.6-3.8,6.7-5.8
				c0.3-0.3,1.2-1.4,1.6-1.2c0.7,0.3,0.2,2.5,0.1,3c-0.5,1.6-1.7,3-2.8,4.3c-4.1,4.5-8.8,8.5-13.9,11.7c-5.1,3.2-10.6,5.7-16.4,7.5
				c-5,1.5-10.2,2.2-15.2,3.6c-4.1,1.2-8.4,3-10.9,6.6c-3.4,4.8-2.3,10.8-0.3,15.9c1.9,5.1,4.9,9.9,9.5,13c4.6,3.1,10.2,4,15.6,3.8
				c2.8-0.1,5.5-0.4,8.3-0.9c1.4-0.3,2.9-0.5,4.3-0.9c0.7-0.2,1.4-0.3,2.1-0.5c0.3-0.1,0.6-0.2,0.8-0.2c0.7-0.1,0.3-0.1,0,0.2
				c-1,1.2-2.7,2.2-4,3.1c-1.4,1-2.8,1.9-4.3,2.7c-2.9,1.6-5.9,2.9-9,3.8c-6.8,2.1-13.9,2.7-20.9,3.3c-7.1,0.5-14.2,1.1-21.4,1.6
				c-6.3,0.5-12.8,1.5-19.1,0.9c-2.8-0.3-5.6-0.9-8.1-2.4c-2.3-1.5-3.9-3.7-5.2-6c-2-3.5-3.7-7.7-7.9-9c-0.1,0-0.2,0.2-0.1,0.2
				c10,3.2,20,6.4,30.1,9.6c4.6,1.5,9.4,2.8,14.3,2.6c4.2-0.2,8.3-1.4,12-3.2c4.7-2.2,8.9-5.2,13.2-8.2c0.1-0.1,0.1-0.2,0-0.2
				c-7.8-2-15.6-4-23.4-6c-1.8-0.5-3.9-0.9-4.9-2.6c-0.9-1.5-0.9-3.4-0.8-5.1c0.3-3.9,0.8-7.8,1.2-11.6c0.4-3.9,0.8-7.8,1.2-11.7
				c0.2-2,0.3-4,0.6-5.9c0.5-2.7,2.6-3.2,5-2.8c7.2,1.2,14.4,3.5,21.2,6.2c3.3,1.3,6.9,3.2,10.6,2.7c2.7-0.4,5.3-2.1,5.8-4.9
				c0,0,0-0.1-0.1-0.1c-8.6-4.6-18.5-3.6-27.9-2.6c-5,0.6-10,1.2-15.1,1.1c-4.9-0.1-9.9-0.7-14.6-1.9c-19.3-4.7-36-16.7-51.6-28.5
				c-0.4-0.3-1-0.9-1.5-1.1c-0.7-0.3,0.7,0.5,0.9,0.6c1.3,0.7,2.5,1.4,3.8,2c2.4,1.2,4.8,2.4,7.2,3.6c4.7,2.3,9.4,4.4,14.2,6.3
				c9.9,4,20.1,7.6,30.5,9.9c4.6,1,9.4,1.5,13.9,0c3.9-1.3,7-4.1,8.9-7.7c4-7.6,1.4-17-4.8-22.6c-6.6-6-15.8-7.4-24-10
				c-9.5-3-17.4-8.6-24.3-15.6c-7-7.1-13.6-15-18.8-23.4c-5.4-8.7-9.4-19-7.1-29.4c0.2-0.9,0.4-1,1.3-0.9c0.6,0.1,1.3,0.1,1.9,0.2
				c1.2,0.2,2.5,0.4,3.7,0.7c2.5,0.6,4.9,1.4,7.3,2.5c4.4,1.9,8.5,4.5,12.3,7.3c8.2,6.2,15,13.9,22.1,21.3
				c3.6,3.8,7.4,7.5,11.4,10.9c3.6,3,7.5,5.9,12.1,7.1c3.9,1,7.9,0.5,11.2-1.9c2.8-2,4.6-5.1,6-8.2c1.6-3.4,2.6-7.1,3.6-10.7
				c1.4-4.8,3.1-9.5,5.2-14c2.1-4.4,4.5-8.7,7.3-12.7c2.8-4.1,5.9-8.3,9.6-11.6c3.8-3.3,10.1-5.8,13,0c2.1,4.3,2,9.8,0.8,14.3
				c-2.5,9.5-9.5,17.4-16.9,23.4c-7,5.7-14.7,10.5-21.3,16.7c-3.1,2.9-5.9,6.1-8.1,9.7c-2.2,3.5-3.4,7.5-5.6,11
				c-2.6,4.3-6.7,7-11.8,5.7c-5.1-1.3-9.3-5.2-13.1-8.7c-7.9-7.4-14.6-16-21.6-24.3c-3.7-4.4-7.4-8.8-11.2-13.3
				c-3.4-4.1-7.5-8.1-10.1-12.8c-1.2-2.2-2.2-4.8-1.8-7.4c0.4-2.4,1.9-4.4,4.1-5.4c4.1-1.9,9-0.9,12.9,0.9
				c7.9,3.6,13.1,11.4,15.9,19.4c1.5,4.4,2,9,2.7,13.6c0.7,4.6,1.8,9.2,4.7,12.8c2.4,3,5.9,5.2,9.8,5c4.3-0.2,8.3-3,11.3-5.9
				c5.9-5.7,9.4-14,8.9-22.3c-0.2-4.1-1.7-8.6-0.4-12.6c0.9-2.8,3.1-4.3,5.8-5c2.6-0.8,5.4-1.3,8.1-1.6c2.8-0.4,5.6-0.6,8.4-0.5
				c2.6,0,5.6,0,8.1,0.9c5.3,1.9,5.9,8.4,3.7,12.9c-2.2,4.5-6.4,8.1-10.1,11.4c-3.9,3.4-8,6.6-12,9.9c-7.5,6.2-14.9,12.9-19.4,21.7
				c-2,4-3.4,8.3-3.8,12.7c-0.3,3.6-0.2,7.9,3.7,9.6c3.6,1.5,7.9,0.4,11.3-1c4.2-1.7,7.9-4.3,11.3-7.2c7.5-6.4,13.8-14.3,19.5-22.3
				c5.9-8.3,11.1-17.2,15.9-26.1c2.4-4.5,4.8-8.9,7.1-13.4c2.3-4.5,4.8-9,5.9-13.9c1-4.2,0.8-8.7-1.7-12.4c-2.1-3.1-5.5-5.3-9-6.4
				c-9.1-2.9-18.4,0.9-26.7,4.5c-0.1,0-0.1,0.1,0,0.2c7.1,6,17.2,5.1,25.8,6c4.7,0.5,9.6,1.6,13.2,4.8c4.5,4,5.8,10.4,4.8,16.2
				c-1.1,6.3-4.7,11.9-8.3,17c-3.7,5.3-7.6,10.4-11.7,15.4c-8,9.8-16.7,19-26,27.5c-4.6,4.3-9.4,8.4-14.4,12.3
				c-2.6,2.1-5.3,4.2-8.1,6.1c-2.7,1.9-5.7,3.5-8.9,3.9c-3.6,0.4-6.7-1.1-9.7-2.8c-2.6-1.5-5.1-3.1-7.6-4.7
				c-5.2-3.4-10.1-7.1-14.9-11c-9.2-7.6-17.5-16.2-24.9-25.6c-3.8-4.8-7.3-9.9-10.5-15.1c-3.4-5.5-6.4-11.5-7.4-18
				c-0.8-5.6,0.2-11.3,3.5-16c3.7-5.3,9.4-7.5,15.7-6.7c6.7,0.9,13.6,3.3,19.6,6.3c5.7,2.9,10.7,6.9,16.1,10.4
				c4.6,2.9,9.5,5.2,15,5.3c4.6,0.1,9.4-1.4,12.3-5.1c2.9-3.8,3.3-8.8,2.2-13.3c-1.2-5.2-4.4-9.5-8.3-13.1
				c-4.3-3.9-9.3-7.1-13.9-10.6c-4.6-3.5-9-7.5-12.9-11.8c-7.9-8.5-14.3-18.6-18-29.6c-0.9-2.7-1.6-5.5-2.2-8.4
				c-0.1-0.7-0.4-1.3,0.1-1.8c0.5-0.4,1.3-0.7,1.9-0.9c1.4-0.5,2.9-0.8,4.3-0.9c5.7-0.2,11.2,2.7,15.4,6.3
				c8.4,7.1,12.7,18.3,22.6,23.7c2.1,1.1,4.4,1.8,6.7,0.9c1.7-0.7,3-2.1,4-3.6c2.8-4.4,3.2-9.9,4.2-14.9c1.4-6.3,3.3-12.7,7.5-17.8
				c3.5-4.3,8.7-7.7,14.5-7.7c5.3,0,10.9,3,12.9,8.1c2.4,6.6-2,13.2-5.8,18.1c-8,10.1-16.9,19.5-26.5,28.1
				c-4.8,4.3-9.8,8.4-14.9,12.3c-0.1,0.1-0.1,0.2,0,0.2c4.7,2.3,9.9-0.2,13.1-3.8c1.9-2.1,3.2-4.6,4.5-7.1c1.6-3.1,3.2-6.1,4.9-9.2
				c3.4-6.4,6.8-12.7,10-19.1c1.9-3.6,4-9.4-0.5-12.1c-3.3-2-7.8-0.4-10.6,1.8c-4.1,3.2-6,8.8-7.5,13.6c-1.8,5.5-3.5,11.3-7.5,15.6
				c-1.8,2-4,3.5-6.6,4.3c-3.2,0.9-6.5,0.3-9.5-0.9c-3.3-1.3-6.3-3.4-9.2-5.5c-3.2-2.3-6.4-4.7-9.7-7c-6.6-4.8-13.2-9.5-19.8-14.3
				c-0.1-0.1-0.2,0-0.2,0.1c4.1,16.8,12.8,32.3,24.8,44.6c3.4,3.5,7.1,6.8,11,9.7c0.1,0.1,0.3-0.1,0.1-0.2
				c-11.9-9.1-21.7-20.9-28.4-34.3c-1.7-3.4-3.2-6.9-4.4-10.4c-0.6-1.8-1.2-3.5-1.7-5.3c-0.2-0.8-0.5-1.6-0.7-2.5
				c-0.1-0.2-0.4-1.2-0.2-1.2c0.3,0,1.1,0.8,1.4,1c7.5,5.4,14.9,10.8,22.4,16.2c3.5,2.6,7,5.3,10.8,7.5c3.1,1.8,6.5,3.3,10.1,3.2
				c6.7-0.1,11.4-5.4,14.1-11.1c3.3-6.8,4-15.1,8.9-21c2-2.4,5-4.1,8.1-4.3c3.7-0.3,6.9,2.1,6.7,6.1c-0.2,4.3-3.2,8.4-5.1,12.2
				c-2.1,4.1-4.3,8.1-6.4,12.2c-2.1,4-4.2,8.1-6.4,12c-1.9,3.5-4.3,7.1-7.9,8.9c-1.9,0.9-4.1,1.4-6.2,1.1c-0.4-0.1-0.8-0.2-1.2-0.3
				c-0.8-0.3-0.9-0.3-0.3-0.8c0.7-0.6,1.4-1.1,2.1-1.6c3.3-2.5,6.4-5.1,9.5-7.9c6.3-5.5,12.3-11.3,17.9-17.4c2.8-3,5.5-6.1,8.1-9.3
				c2.5-3.1,5.1-6.2,7.1-9.7c1.7-3.1,2.9-6.6,2.4-10.1c-0.4-2.8-1.9-5.4-4.1-7.2c-4.6-3.8-11-4.4-16.4-1.9
				c-6.2,2.8-10.4,8.7-12.8,14.9c-1.5,4-2.4,8.1-3.2,12.3c-0.6,3.4-1.1,6.8-2.6,9.9c-1.3,2.8-3.5,5.6-6.8,5.7c-4,0.2-8-3.3-10.7-5.9
				c-5.1-4.9-8.8-11.2-13.7-16.4c-4.3-4.7-10.4-8.6-16.9-9c-2.9-0.2-5.8,0.5-8.3,2.1c-0.1,0-0.1,0.1-0.1,0.1
				c3.6,20.7,16.8,38.7,33.2,51.3c8.4,6.5,19.5,12.3,22.4,23.4c1.3,4.9,0.7,10.6-3,14.4c-3.8,3.9-9.6,4.6-14.8,3.7
				c-5.5-1-10.3-4.1-14.8-7.2c-4.9-3.4-9.7-6.8-15.3-9.3c-5.3-2.4-11.2-4.3-17-5.1c-4.9-0.6-9.6,0.4-13.3,3.8c-7.6,7-7.5,18-4,27
				c2.1,5.3,5.1,10.2,8.2,14.9c3,4.5,6.1,8.8,9.5,13c7.1,8.7,15,16.6,23.6,23.8c4.2,3.4,8.5,6.6,12.9,9.6c2.4,1.6,4.8,3.1,7.2,4.6
				c2.4,1.4,4.8,3,7.5,3.6c5.3,1.3,10.3-1.6,14.5-4.7c4.6-3.4,9-6.9,13.4-10.6c9-7.6,17.5-15.9,25.5-24.7c7.8-8.6,15-17.7,21.5-27.3
				c5.5-8.1,10.8-19.8,4.2-28.9c-5-7-14.4-7.3-22.2-7.8c-4.4-0.3-8.9-0.6-13.1-2.1c-1-0.4-2-0.8-3-1.3c-0.4-0.2-0.9-0.5-1.3-0.8
				c-0.2-0.1-0.5-0.3-0.7-0.5c-0.4-0.3-0.8-0.4-0.6-0.8c0-0.1,0.9-0.4,0.9-0.4c0.5-0.2,0.9-0.4,1.4-0.6c0.8-0.3,1.6-0.6,2.4-0.9
				c1.5-0.6,3-1.1,4.5-1.6c5.6-1.8,11.6-2.5,17.3-0.6c5,1.7,9.4,5.5,10.4,10.9c1.2,6.3-1.8,12.6-4.6,18.1
				c-2.7,5.3-5.5,10.6-8.3,15.8c-5.6,10.4-11.6,20.6-18.6,30c-3.6,4.9-7.5,9.5-11.7,13.9c-3.9,4.1-8.2,8-13.2,10.7
				c-4.2,2.4-10.6,5.1-15.4,2.5c-3-1.6-3.1-5.1-3-8.2c0.1-2.9,0.7-5.7,1.6-8.4c3.8-11.1,12.6-19.4,21.5-26.6
				c4.8-3.9,9.7-7.6,14.2-11.8c3.7-3.5,8.1-7.5,9.1-12.8c0.7-3.9-0.8-8.4-4.8-10c-2.7-1-5.8-1-8.6-1c-3,0-6,0.2-8.9,0.6
				c-2.9,0.4-6.1,0.9-8.8,2.1c-1.9,0.8-3.4,2.1-4.2,4c-1.8,4.3,0,9.3,0.2,13.8c0.4,10.6-5.7,21.7-15.4,26.3c-2.9,1.4-6,1.7-9,0.5
				c-2.5-1.1-4.6-3-6.1-5.3c-3.4-5-3.7-11.4-4.6-17.2c-1.4-9.2-5.5-18.6-13-24.5c-3.4-2.7-7.5-4.6-11.9-4.9c-4-0.3-8.6,1-10.1,5.1
				c-1.7,4.6,1.5,9.6,4.2,13.1c4,5.1,8.3,9.9,12.4,14.8c4.4,5.2,8.7,10.3,13.1,15.5c3.9,4.6,7.8,9.2,12,13.5
				c5.9,5.9,17.6,17.3,25.8,8.5c3.1-3.3,4.4-7.9,6.5-11.8c2.4-4.6,5.8-8.6,9.6-12.1c7.8-7.2,17.2-12.5,24.9-19.8
				c7.4-7,14.3-16.6,13.9-27.2c-0.1-4-1.2-9.9-5.8-10.9c-4.5-1.1-8.9,2.9-11.6,6c-7.5,8.3-13.3,18-17.2,28.4
				c-1.7,4.6-2.9,9.5-4.5,14.1c-1.4,4.2-3.4,8.7-6.9,11.6c-10.3,8.6-23.1-3.7-30.3-10.7c-8.5-8.3-16.1-17.7-25.4-25.1
				c-8.1-6.4-17.5-11.3-27.9-12c-0.1,0-0.1,0-0.1,0.1c-3.7,14.8,4.8,28.9,13.5,40.1c8.6,11,18.5,22.4,31.6,27.9
				c12.4,5.2,30.1,5.6,34.8,20.9c2.1,7-0.3,15.1-6.7,19.2c-7.1,4.5-16,1.9-23.4-0.1c-17.7-5-34.8-12.1-50.8-21
				c-0.1-0.1-0.3,0.1-0.1,0.2c20.6,15.6,44,32.8,71.2,32c6.9-0.2,13.6-1.4,20.5-1.8c3.4-0.2,6.9-0.2,10.4,0.3
				c1.6,0.2,3.2,0.6,4.7,1.1c1.1,0.3,4.5,1.1,4.3,2.5c-0.2,1.7-2.2,3-3.6,3.5c-1.7,0.7-3.6,0.6-5.3,0.2c-3.5-0.8-6.9-2.5-10.3-3.7
				c-3.5-1.3-7-2.4-10.6-3.3c-1.8-0.5-3.6-0.9-5.4-1.3c-1.4-0.3-2.8-0.7-4.2-0.5c-2.6,0.3-2.9,2.7-3.2,4.9
				c-0.4,3.9-0.8,7.8-1.2,11.7s-0.8,7.8-1.2,11.7c-0.3,2.8-1.1,6.1,0.1,8.8c1.2,2.8,4.4,3.2,7,3.8c3.8,1,7.6,1.9,11.4,2.9
				c1.7,0.4,3.5,0.9,5.2,1.3c1,0.3,2.1,0.5,3.1,0.8c0.3,0.1,0.7,0.1,1,0.3c0.9,0.3,0.6,0.4-0.1,0.8c-2.8,2-5.6,3.9-8.6,5.6
				c-6.4,3.6-13.4,5.8-20.8,4.6c-3.7-0.6-7.2-1.8-10.8-2.9c-3.8-1.2-7.5-2.4-11.2-3.6s-7.5-2.4-11.2-3.6c-0.9-0.3-1.7-0.5-2.6-0.8
				c-0.5-0.1-2-1-2.6-0.8c-0.7,0.2,0.6,0.5,0.6,0.5c0.2,0.1,0.5,0.3,0.7,0.4c0.7,0.4,1.3,0.9,1.8,1.5c3.4,3.7,4.5,9.1,8.7,12.2
				c4.5,3.2,10.6,3.2,15.9,2.9c7.7-0.5,15.3-1.1,23-1.7c14.1-1.1,29-1.2,41.6-8.6c2.8-1.6,5.4-3.6,7.8-5.8c0.1-0.1,0-0.2-0.1-0.2
				c-9,2.2-19.2,4.5-28.1,0.8c-4.6-1.9-8.1-5.4-10.6-9.7c-2.5-4.4-4.7-9.9-4.2-15c0.8-9.2,10.7-12,18.3-13.6
				c4.2-0.9,8.4-1.8,12.5-3.2c4.3-1.5,8.5-3.5,12.5-5.8c4.4-2.6,8.4-5.7,12.1-9.3c2.6-2.5,8.1-7.1,5.7-11.2c0-0.1-0.1-0.1-0.2,0
				c-11.3,11.3-25.7,19.5-41.2,23.4c-6.8,1.7-15.5,3.7-22.1,0.3c-7.6-4-6.6-13.5-5.2-20.6c3-14.6,10-28.3,19.7-39.6
				c4.9-5.6,10.5-10.7,16.6-14.9c5.7-3.9,12.1-6.9,17.7-11c5.3-3.9,9.6-9,10.5-15.7c0.5-4.2-0.2-8.4-1.4-12.4c-0.9-3-2.3-5.8-5.9-6
				c-3.7-0.2-7.6,1.7-11,3c-3.8,1.5-7.5,3.1-11.1,5c-7.4,3.7-14.4,8.2-21,13.2c-3.2,2.5-6.7,5.4-10.9,6.2c-4.5,0.9-8.4-1.4-11.4-4.6
				c-5.3-5.7-7.7-14.1-6.2-21.8c1.5-7.4,6.2-13.4,11.4-18.7c5.4-5.5,11.4-10.4,16.6-16c5.6-6,10.6-12.6,15-19.6
				c3.5-5.7,9.2-14,5.6-20.9c-3.1-5.9-11-6.6-16.6-4.3c-6.9,2.8-12.8,8.6-17.2,14.5c-2.3,3.1-4.3,6.5-5.9,10
				C227.8,147.8,228,147.9,228,147.8L228,147.8z"/>
		</g>
	</g>
	<g>
		<g>
			<path d="M263.2,203.3c5-9,14.4-15.4,24.6-16.4c10.6-1.1,22.5,3.2,28.8,12.1c3.4,4.8,4.2,10.5,2.9,16.1c-1.3,5.7-4.4,10.6-8.2,15
				c-3.9,4.5-8.5,8.5-12.8,12.6c-4.8,4.5-9.6,9-14.4,13.5c-9.5,9-19.1,18-28.6,27c-1.2,1.1-2.4,2.2-3.6,3.3
				c-0.1,0.1,0.1,0.3,0.2,0.2c9.9-9.3,19.8-18.6,29.6-27.9c4.9-4.6,9.9-9.3,14.8-14c4.6-4.3,9.3-8.5,13.6-13.1
				c3.9-4.2,7.3-8.9,9-14.4c1.7-5.3,1.7-11.1-0.9-16.1c-2.5-4.8-6.9-8.5-11.6-11c-4.7-2.5-10.1-3.8-15.5-3.8
				c-10.3,0-20.3,5.2-26.3,13.6c-0.7,1-1.4,2.1-2,3.2C262.9,203.3,263.1,203.4,263.2,203.3L263.2,203.3z"/>
		</g>
	</g>
	<g>
		<g>
			<path d="M215.9,239.8c-5.6-9.6-12.8-18.2-21.2-25.4c-4.1-3.5-8.5-6.9-13.3-9.6c-3.7-2.1-9.1-4.2-13.1-1.9c-1.9,1.1-3.1,2.9-3.5,5
				c-0.4,2.2,0.3,4.5,1.1,6.6c0.9,2.3,2.3,4.4,3.8,6.3c1.8,2.3,3.7,4.6,5.5,6.9c7.5,9,15.7,17.4,24.3,25.2
				c8.6,7.8,17.8,15,27.5,21.5c1.2,0.8,2.4,1.6,3.7,2.4c0-0.1,0-0.2,0.1-0.2c-13.6,0.9-25.7-7.4-36-15.3
				c-10.4-8-21.2-16.9-26.1-29.4c-2.3-6-3.3-12.6-2-19c0.6-3.1,1.8-6.4,3.8-8.8c1.1-1.3,2.5-2.3,4.2-2.8c1.7-0.5,3.4-0.5,5.1-0.5
				c6.5,0,13,1.4,18.9,4.2c5.6,2.6,10.5,6.3,14.6,10.9c7.3,8.1,12.2,18.1,19,26.6c3.2,4.1,7,7.8,11.4,10.5c1.9,1.1,5.1,3.3,6.9,1.1
				c0.7-0.9,1-2,1.1-3.1c0.2-1.4,0.2-2.7,0.3-4.1c1.1-11.1,4-22.5,10.5-31.6c3.2-4.5,7.3-8.5,12.2-11.1c2.1-1.1,4.6-1.8,7-1.8
				c2.2-0.1,4.6,0.4,6.2,2.1c2.3,2.4,1.6,5.9,0.1,8.5c-1.6,2.9-3.8,5.6-6,8.1c-4.4,5-9.4,9.3-14.6,13.4c-5.7,4.5-11.6,8.7-17.4,13
				c-6.2,4.6-12.4,9.2-18.6,13.8c-3,2.2-6,4.4-8.9,6.6c0.1,0,0.1,0.1,0.2,0.1c-1-10.7-6-20.6-13.1-28.5
				c-7.7-8.6-17.7-14.6-28.3-18.9c-6.2-2.5-12.7-4.4-19.2-5.9c-0.1,0-0.2,0.1-0.1,0.2c5.6,7.7,11.7,14.9,18.4,21.7
				c6.7,6.7,13.9,13,21.6,18.6c3.9,2.8,7.8,5.5,11.9,8c2,1.2,4,2.5,6.1,3.6c1.7,0.9,3.7,1.7,5.6,1.4c4.7-0.7,3.8-6.9,3.1-10.2
				c-1-5-3.2-9.6-5.1-14.4c-1.7-4.4-3-9-2.8-13.7c0.1-2.3,0.5-4.6,1.5-6.6c1.1-2.2,2.7-4,4.6-5.6c1.9-1.6,4.1-2.9,6.2-4.1
				c2.3-1.3,4.6-2.6,6.9-3.8c4.7-2.4,9.6-4.4,14.5-6.1c2.1-0.7,4.3-1.5,6.6-1.7c2.1-0.2,4.4,0,5.9,1.5c3.5,3.3,0.7,8.8-1.3,12.1
				c-4.6,7.4-10.1,14.1-15.6,20.7c-5.5,6.5-11.1,13-16,20c-4.7,6.7-8.9,14-11.2,22c-0.6,2-1.1,3.9-1.4,5.9c0,0.2,0.2,0.2,0.2,0.1
				c1.5-8.3,5.1-16.1,9.6-23.2c4.6-7.3,10.1-13.9,15.6-20.5c5.6-6.6,11.2-13.2,16.1-20.3c1.2-1.7,2.4-3.5,3.4-5.3
				c1.1-1.8,2-3.8,2.4-5.9c0.3-1.8,0.1-3.7-1-5.2c-1.1-1.5-2.8-2.1-4.6-2.3c-2-0.1-4.1,0.3-6,0.9c-2.5,0.8-4.9,1.6-7.3,2.6
				c-4.8,1.9-9.5,4-14,6.5c-2.2,1.2-4.4,2.5-6.4,3.8c-2,1.3-3.9,2.8-5.4,4.6c-2.8,3.4-3.7,7.8-3.4,12.1c0.6,10,7.1,18.5,8.3,28.4
				c0.3,2.2,0.4,5.1-1.6,6.6c-1.9,1.4-4.5,0.5-6.4-0.3c-2.1-1-4.1-2.3-6-3.5c-2-1.3-4.1-2.5-6-3.9c-8.1-5.4-15.7-11.4-22.8-18
				c-7-6.5-13.5-13.5-19.4-21c-1.5-1.9-2.9-3.8-4.4-5.8c-0.1,0.1-0.1,0.1-0.1,0.2c11.4,2.7,22.6,6.5,32.6,12.7
				c9.3,5.7,17.4,13.6,22.6,23.4c2.8,5.3,4.6,11.1,5.2,17.1c0,0.1,0.1,0.2,0.2,0.1c12.6-9.4,25.2-18.7,37.8-28.1
				c5.4-4,10.8-8.1,15.8-12.7c2.5-2.3,4.8-4.7,7-7.3c1.1-1.3,2.1-2.6,3.1-4c1-1.4,2-2.8,2.6-4.4c1-2.4,1.2-5.3-0.6-7.4
				c-1.3-1.5-3.4-2.2-5.4-2.3c-5.2-0.4-9.8,2.2-13.6,5.4c-8.7,7.1-13.5,17.9-15.9,28.7c-0.6,2.8-1.1,5.6-1.4,8.5
				c-0.2,1.4-0.3,2.8-0.4,4.2c-0.1,1.4-0.1,2.9-0.7,4.2c-1.6,3.4-5.9,0.4-8-0.9c-2.3-1.5-4.4-3.3-6.4-5.2
				c-7.9-7.9-12.9-18.2-19.6-27c-3.5-4.6-7.5-8.7-12.3-11.9c-5.4-3.6-11.6-6-18.1-7c-3.2-0.5-6.5-0.7-9.7-0.4
				c-1.6,0.2-3.1,0.5-4.5,1.3c-1.3,0.8-2.3,1.9-3.1,3.1c-3.4,5.3-4.2,12-3.3,18.1c1.8,13.4,11,23.9,21,32.3
				c5.1,4.3,10.5,8.5,16.1,12.2c5.6,3.7,11.7,6.9,18.3,8.4c3.1,0.7,6.2,1,9.4,0.8c0.1,0,0.2-0.2,0.1-0.2
				c-9.6-6.2-18.7-13.1-27.3-20.5c-8.6-7.4-16.6-15.4-24.1-23.9c-1.9-2.1-3.7-4.2-5.4-6.4c-1.8-2.2-3.6-4.3-5.2-6.6
				c-2.5-3.6-5.4-9.1-3-13.4c2.7-4.8,8.8-3.8,13-1.9c2.3,1,4.5,2.4,6.6,3.9c2.3,1.5,4.4,3.1,6.6,4.8c8.4,6.8,15.8,14.9,21.6,24
				c0.7,1.1,1.4,2.3,2.1,3.4C215.7,240.1,216,239.9,215.9,239.8L215.9,239.8z"/>
		</g>
	</g>
	<g>
		<g>
			<path d="M218.3,163.9c0.4-5-0.5-10.1-2.6-14.7c-2-4.4-5.2-9-9.3-11.7c-1.7-1.1-3.9-1.6-5.5-0.1c-1.3,1.2-1.7,3.2-1.7,4.9
				c-0.1,2.8,0.5,5.7,1,8.4c0.5,3.1,1.3,6.1,2.2,9.1c3.4,11.3,9.9,22,10.2,34.1c0.1,5.2-0.9,10.5-3.7,14.9c-0.7,1.1-1.5,2.1-2.4,3
				c-1.5,1.4-3.1,1.8-5,1.2c-2.5-0.7-4.9-2.1-7.1-3.4c-4.3-2.5-8.5-5.5-13.2-7.2c-4.1-1.6-9.9-2.5-13.6,0.6c-3.6,3-3.3,8.3-1.5,12.2
				c1.2,2.6,2.9,4.8,4.6,7c2,2.6,4,5.1,6,7.7c8.2,10.6,16.3,21.1,24.5,31.6c2,2.6,4,5.2,6.1,7.8c1.6,2,3.2,2.9,5.7,2.7
				c1.6-0.1,3.2-0.4,4.4,1c0.9,1,1.5,2.5,2.1,3.7c1.2,2.6,2.1,5.3,2.8,8.1c1.4,5.7,1.6,11.7,0.7,17.5c-0.4,2.8-1,5.7-2.2,8.2
				c-0.6,1.3-1.6,2.5-3,2.9c-1.6,0.4-3.4-0.1-4.9-0.8c-2.9-1.3-5.6-3-8.4-4.5c-2.8-1.6-5.7-3.1-8.5-4.7c-5.7-3.2-11.5-6.3-17.2-9.5
				c-2.9-1.6-5.8-3.2-8.7-4.8c-0.4-0.2-0.9,0.1-0.7,0.6c5.8,17.9,19.5,31.7,34.3,42.6c6.2,4.6,18.4,10.6,15.6,20.3
				c-1.3,4.5-5.4,7.8-9.6,9.1c-5.5,1.8-11.6,0.9-17.1,0c-12.7-2.1-25.5-3.5-38.4-3.8c-0.4,0-0.6,0.4-0.4,0.8
				c7.7,12.4,19.8,21.4,33.2,26.9c15.6,6.5,32.6,8.1,49.3,7.5c9.4-0.4,18.7-1.5,27.9-2.8c9.1-1.3,18.3-2.7,27.4-4.5
				c8.9-1.7,17.7-4,26.1-7.4c8.1-3.3,15.8-7.6,23.2-12.1c7.1-4.4,14.3-8.8,21.1-13.7c6.2-4.4,12.1-9.3,16.5-15.5
				c1.1-1.5,2.1-3.1,2.9-4.8c0.2-0.4-0.2-1-0.7-0.7c-16.1,9.5-33.9,16-52.3,19.2c-8.9,1.6-18,2.4-27.1,2.3
				c-7.9-0.1-15.9-1.2-23.3-3.9c-3.6-1.3-7.2-3.1-10.3-5.4s-6.3-5.2-8.1-8.7c-1-1.9-1.7-4.3-1.1-6.4c0.7-2.3,2.7-3.5,4.7-4.3
				c4.5-1.7,9.3-2.5,14-3.2c9.4-1.3,18.8-1.6,28.1-3.5c8.2-1.7,16.2-4.4,23.8-7.9c7.6-3.5,14.8-7.9,21.4-13c3.3-2.6,6.5-5.3,9.5-8.3
				c1.5-1.5,3-3,4.4-4.6c1-1.2,1.8-2.7,1.2-4.3c-1.1-2.6-4.8-2.3-7-1.7c-4.1,1.1-8.1,2.5-12.1,4c-7.9,3-15.6,6.6-23.2,10.3
				c-15.2,7.3-30.5,15.2-47.1,19c-8.2,1.9-16.9,2.8-25.3,1.9c-4.6-0.5-9.4-1.8-13-4.8c-3.3-2.7-5.6-6.6-5.5-10.9
				c0.3-9.5,10.1-14.5,17.8-17.4c3.9-1.4,7.8-2.8,11.7-4.5c3.7-1.6,7.3-3.5,10.7-5.6c13.5-8.1,25.1-19.4,33.6-32.8
				c2.1-3.3,4-6.8,5.7-10.4c1.5-3.2,3.6-7.2,1.7-10.7c-1.4-2.6-4.4-3.6-7.1-3.8c-3.5-0.3-6.9,0.8-10,2.3c-7.3,3.5-13,9.5-18.5,15.3
				c-6,6.5-12,13.1-19.6,17.7c-7.7,4.6-17.4,7-26,3.7c-7.3-2.8-12.9-10.3-12.2-18.2c0.4-4.5,3.5-7.8,4.9-11.9
				c1.1-3.4,0.8-7.1-0.5-10.4c-3-7.5-10-11.8-17.7-13.1c-4.2-0.7-8.6-0.7-12.8-0.2c-1.7,0.2-3.5,0.6-5,1.6c-1.5,1.1-2.4,2.9-2.9,4.7
				c-2.5,7.8-1.4,16.5,1.8,23.9c3.3,7.7,8.9,14.1,15.6,19.1c3.4,2.6,7.2,4.9,11,6.8c1.8,0.9,3.7,1.8,5.6,2.6
				c1.7,0.7,3.6,1.2,5.4,0.4c3.2-1.5,4.4-5.9,5.4-9c1.4-4.5,2.3-9.2,2.7-13.9c0.7-9.9-1.7-19.5-2.3-29.3c-0.3-4.9-0.1-9.8,1.2-14.5
				c1.2-4.4,3.3-8.5,5.8-12.3c2.5-3.9,5.4-7.5,8.2-11.1c2.8-3.5,5.6-7,8.9-9.9c6.8-5.8,16.1-7.3,22.6-13.5c2.5-2.4,4.6-5.6,4.9-9.1
				c0.2-3.1-1.1-6.6-4.4-7.5c-3.8-1-7.9,1.7-11.1,3.3c-3.8,2-7.4,4.1-10.9,6.5c-6.9,4.6-13.3,10-19,16.1c-5.5,5.8-10.4,12.2-14.6,19
				c-0.3,0.6,0.5,1.1,0.9,0.5c8.7-14.2,20.5-26.4,34.4-35.6c3.4-2.3,7-4.3,10.6-6.2c3.5-1.8,9.6-5.3,12.3-0.6c2,3.6,0.3,8.1-2.1,11
				c-2.6,3.2-6.2,5.4-9.8,7.1c-4,2-8.2,3.6-11.9,6.2c-3.5,2.4-6.4,5.6-9.1,8.9c-5.4,6.6-11.1,13.5-14.6,21.4
				c-3.8,8.5-3.6,17.4-2.5,26.5c0.6,4.8,1.4,9.5,1.7,14.4c0.3,4.9,0.1,9.8-0.8,14.7c-0.8,4.4-1.9,9.2-4.1,13.1
				c-1.1,2.1-2.9,3.6-5.3,3.1c-2.1-0.4-4.3-1.6-6.2-2.6c-7.6-3.7-14.7-8.5-20.2-14.9c-5.7-6.5-9.6-14.8-10.1-23.5
				c-0.3-4.1,0.1-8.8,1.9-12.6c2.1-4.4,7.8-4.3,12-4.3c8.5-0.1,17.6,2.5,22.3,10c2.1,3.3,3.2,7.3,2.4,11.1c-0.8,4.1-3.9,7.3-5,11.4
				c-1.8,6.6,1.4,13.8,6.5,18.1c6.2,5.2,14.9,6,22.5,4.1c17-4.2,26.3-20,38.7-30.9c5.4-4.7,13.1-10.1,20.7-8.5
				c1.5,0.3,3.1,1,4.1,2.1c1.5,1.7,1.5,4.1,0.9,6.2c-1.2,3.9-3.4,7.7-5.4,11.3c-7.9,13.7-19.1,25.5-32.3,34.1
				c-6.7,4.4-14,7.9-21.5,10.5c-7.5,2.7-15.8,5.5-20.1,12.8c-1.9,3.1-2.6,6.8-1.8,10.3c0.9,3.5,3.2,6.5,6,8.6c6.6,5.1,16,5.4,24,4.9
				c16.2-0.9,31.5-6.9,46.1-13.6c15.3-7,30.1-15.1,46.2-20.4c1.8-0.6,3.7-1.3,5.6-1.6c1.5-0.3,3.8-0.5,4.9,0.9
				c1.5,2-1.5,4.5-2.7,5.8c-1.4,1.5-2.9,2.9-4.4,4.4c-6.1,5.8-13,10.8-20.3,14.9c-7.3,4.1-15,7.5-23,9.8c-8.6,2.6-17.5,3.7-26.4,4.6
				c-4.6,0.4-9.2,0.9-13.8,1.7c-4.2,0.7-8.8,1.5-12.6,3.5c-3.2,1.7-4.5,4.8-3.7,8.2c0.8,3.7,3.4,6.7,6.1,9.2
				c10.9,10.3,27.1,12.7,41.5,12.5c17.9-0.3,35.9-3.9,52.6-10.3c8.1-3.1,16-6.9,23.5-11.3c-0.2-0.2-0.5-0.5-0.7-0.7
				c-7.3,14-22,22.2-34.8,30.4c-7.3,4.6-14.7,9.1-22.5,12.8c-8,3.8-16.5,6.5-25.2,8.6c-8.7,2-17.5,3.4-26.2,4.7
				c-9.3,1.4-18.5,2.7-27.9,3.5c-17,1.3-34.4,0.8-50.7-4.7c-13.8-4.6-26.8-12.6-35.7-24.3c-1.1-1.4-2.1-2.9-3.1-4.5
				c-0.1,0.3-0.3,0.5-0.4,0.8c12.2,0.3,24.4,1.5,36.4,3.5c9.4,1.6,21.2,3.2,27.7-5.5c2.4-3.3,3.1-7.5,1.5-11.2
				c-1.7-4-5.3-6.9-8.7-9.3c-8.1-5.9-16.1-11.7-23.1-18.9c-7.7-8-14.1-17.3-17.5-27.9c-0.2,0.2-0.5,0.4-0.7,0.6
				c11.5,6.3,23,12.7,34.4,19c2.8,1.5,5.5,3.2,8.4,4.5c1.9,0.9,4.1,1.5,6.2,0.7c2.2-0.9,3.2-3.1,3.9-5.1c0.9-2.6,1.4-5.3,1.8-8
				c0.7-5.4,0.4-10.9-0.8-16.1c-0.6-2.7-1.5-5.3-2.6-7.8c-0.9-2-1.8-4.8-3.8-5.9c-2.4-1.4-5.3,0.7-7.6-1.3c-1-0.9-1.8-2-2.6-3.1
				c-1.1-1.4-2.1-2.8-3.2-4.2c-4-5.1-7.9-10.3-11.9-15.4c-4-5.2-8.1-10.4-12.1-15.6c-2-2.6-4-5.1-6-7.7c-1.9-2.5-4-4.9-5.6-7.7
				c-1.4-2.4-2.4-5.1-2-7.9c0.4-2.8,2-5.2,4.7-6.1c5.1-1.7,10.8,0.8,15.2,3.2c4.4,2.4,8.5,5.4,13.1,7.4c2.1,0.9,4.6,1.8,6.8,0.6
				c1.9-1,3.4-3.1,4.4-5c5.4-9,3.8-20.3,0.5-29.7c-1.9-5.7-4.4-11.3-6.4-17c-2-6-3.5-12.3-3.9-18.6c-0.1-2,0-5.2,2.3-5.9
				c2.7-0.8,5.6,2.6,7.3,4.4c3.6,4,6,8.9,7,14.1c0.5,2.6,0.6,5.2,0.4,7.8C217.2,164.5,218.2,164.5,218.3,163.9L218.3,163.9z"/>
		</g>
	</g>
	<g>
		<g>
			<path d="M234.4,240.1c-2.1-2.2-0.3-5.2,1.4-7.1c2-2.2,4.7-3.7,7.3-5.2c5.7-3.3,11.8-6,18-8.1c6.1-2.1,12.4-3.6,18.8-4.6
				c3.3-0.5,6.6-0.8,9.9-1c3-0.1,6.3-0.4,9.3,0.1c2.8,0.5,5.5,1.9,6.4,4.8c0.8,2.5,0.2,5.3-0.8,7.6c-2.2,5.4-7,9.8-11.4,13.4
				c-4.8,3.9-10.1,7.3-15.2,10.8c-5.5,3.7-10.8,7.6-15.9,11.6c-11.7,9.2-22.6,19.3-32.6,30.3c0.4,0.1,0.8,0.2,1.3,0.3
				c-3.5-13.2-17-20-27.4-27.1c-11.9-8.1-23.2-17.7-31.5-29.6c-4.2-6-7.7-12.7-9.7-19.7c-2.1-7.3-2.1-15.7,3.6-21.3
				c2.4-2.3,5.5-3.7,8.8-3.6c3.1,0.1,5.9,1.5,8.3,3.4c5.1,4.1,8.4,10.1,11.8,15.6c8.1,12.9,18.2,24.6,30,34.3
				c1.4,1.2,2.9,2.3,4.3,3.4c0.3,0.2,0.9,0.1,1-0.3c4.4-8.6,12.9-13.8,21.4-17.7c5-2.3,10.1-4.2,15.3-6c5.5-2,11.1-3.9,16.7-5.4
				c3.8-1.1,10.8-2.1,11.7,3.4c0.8,4.6-3.8,8.9-7.2,11.2c-8.4,5.7-17.8,9.8-26.9,14.1c-9,4.3-18,8.9-25.6,15.6
				c-4,3.6-7.7,7.6-11.8,11c-2.1,1.7-4.6,3.8-7.5,4c-1.9,0.1-3.6-0.8-4.9-2.1c-2.8-2.9-3.9-7.2-5.4-10.9c-1.5-3.7-3.6-7.1-6.1-10.3
				c-5.1-6.6-11.3-12.2-16.7-18.4c-5.3-5.9-10.4-13.1-11-21.4c-0.2-2.5,0.3-5.2,2.4-6.7c1.7-1.2,4.1-1.4,6.1-0.9
				c5,1.1,7.9,6,10.5,10c3.3,5.2,6.6,10.4,9.9,15.5c1.7,2.7,3.4,5.3,5.1,8c1.5,2.4,3,4.9,4.6,7.3c1.2,1.7,2.9,3.6,5,4.1
				c1.9,0.5,3.6-0.3,4.8-1.8c1.4-1.8,2.2-4.2,3.4-6.2c1.3-2.1,2.7-4.1,4.4-6c6.6-7.7,15.5-13.2,24.9-17.1c5.4-2.2,10.9-4,16.5-5.5
				c2.7-0.7,5.4-1.4,8.1-2.1c1.4-0.3,2.7-0.7,4.1-1c1.3-0.3,2.6-0.7,3.9-0.6c5.9,0.3,1.4,9.3,0,12c-2.1,4-5,7.6-8.2,10.8
				c-6.5,6.8-14,12.4-20.5,19.2c-7.1,7.6-12.8,16.4-16.8,26c-1.4,3.4-4,10.1-8.9,7.7c-1.9-0.9-3.1-3-4.1-4.8
				c-1.2-2.2-2.3-4.5-3.6-6.6c-6-9.6-14.1-17.7-21.5-26.1c-8.2-9.2-16.4-18.4-24.5-27.5c-4-4.5-7.9-8.9-11.9-13.4
				c-0.2,0.4-0.4,0.9-0.5,1.3c23.5-2.4,47.3,8.3,62.1,26.5c4.2,5.2,7.7,11,10.1,17.2c0.2,0.5,1.1,0.8,1.4,0.2
				c8.3-17.8,22.7-32.4,40.2-41.2c2.2-1.1,4.5-2.1,6.8-3c1.9-0.7,4.5-1.5,6.4-0.3c2.4,1.5,1.4,5.1,0.8,7.3c-0.6,2.3-1.7,4.5-3,6.5
				c-2.7,4.2-6.3,7.7-10,11c-4,3.6-8.1,7.1-11.9,10.9c-9.3,8.9-17.8,18.6-25.6,28.9c-0.6,0.8,0.7,1.5,1.3,0.8
				c7.5-9.9,15.7-19.2,24.6-27.8c4.1-4,8.5-7.8,12.8-11.6c3.8-3.4,7.5-7,10.2-11.3c1.3-2.1,2.4-4.3,3.1-6.7c0.6-2.2,1.3-4.9,0.3-7.1
				c-2-4.6-8.1-2.5-11.4-1.1c-9.3,3.9-17.9,9.5-25.4,16.3c-8.5,7.8-15.5,17.2-20.4,27.7c0.5,0.1,0.9,0.1,1.4,0.2
				c-4.4-11.2-11.9-20.9-21.2-28.4c-9.4-7.5-20.5-12.9-32.3-15.3c-6.7-1.3-13.5-1.7-20.3-1c-0.6,0.1-1,0.8-0.5,1.3
				c8.7,9.8,17.4,19.6,26.2,29.4c4.3,4.8,8.6,9.7,12.9,14.5c4,4.5,8.1,8.9,11.9,13.6c3.7,4.5,7,9.2,9.6,14.4
				c1.7,3.4,4.3,8.1,8.9,7.5c4.4-0.6,6.2-5.7,7.7-9.2c2.2-5.2,4.9-10.2,8-14.8c3.1-4.6,6.7-8.9,10.7-12.8c3.5-3.4,7.2-6.6,10.9-9.9
				c7-6.3,14.1-13.1,17.5-22.1c0.8-2,1.6-4.3,1.3-6.5c-0.3-2.1-1.9-3.6-4-3.8c-2.5-0.2-5,0.7-7.4,1.3c-3,0.7-6,1.5-9,2.3
				c-11,3-21.9,6.8-31.3,13.3c-4.2,2.9-8.1,6.3-11.4,10.2c-1.6,1.9-3.1,3.9-4.3,6c-0.6,1.1-1.2,2.1-1.8,3.3s-1.1,2.4-2,3.3
				c-2.3,2.1-5-0.3-6.5-2.2c-2-2.5-3.5-5.4-5.3-8.1c-3.5-5.5-6.9-10.9-10.4-16.4c-1.7-2.7-3.4-5.4-5.2-8.2c-1.3-2.1-2.8-4.1-4.5-5.9
				c-3.1-3-7.7-4.7-11.9-3c-4.6,1.9-4.9,7.1-4.1,11.4c0.8,4,2.5,7.8,4.6,11.3c4.6,7.3,11,13.2,16.8,19.4c3,3.2,6,6.6,8.4,10.3
				c2.4,3.6,3.9,7.5,5.5,11.5c1.4,3.4,3.3,7.4,7,8.8c4.8,1.8,9.4-2.1,12.8-5.1c4.3-3.7,8-7.9,12.4-11.5c4.2-3.4,8.7-6.2,13.4-8.8
				c9.5-5.1,19.6-9.1,29.1-14.4c4.3-2.4,9.1-4.9,12.3-8.8c2.5-3,4.8-7.6,2.2-11.3c-2.8-3.8-8-3.2-11.9-2.1c-6,1.6-11.9,3.7-17.7,5.8
				c-9.8,3.5-20.1,7.1-28.3,13.7c-3.6,2.9-6.7,6.4-8.8,10.5c0.3-0.1,0.7-0.2,1-0.3c-12.7-9.7-23.7-21.6-32.4-35
				c-3.7-5.7-6.9-11.9-11.9-16.7c-4.4-4.2-10.4-6.6-16.3-4.2c-6.3,2.7-9.7,9.5-9.9,16.1c-0.3,7.7,2.9,15.5,6.5,22.2
				c6.9,12.9,17.6,23.4,29.1,32.3c5.8,4.4,12,8.3,18,12.4c5.6,3.9,11.3,8.4,14.5,14.5c0.8,1.5,1.4,3.1,1.9,4.8
				c0.1,0.5,0.9,0.8,1.3,0.3c9.7-10.6,20.3-20.5,31.5-29.4c5.6-4.4,11.3-8.6,17.2-12.6c5.4-3.7,11-7.2,16-11.4
				c4.5-3.9,9.3-8.6,11.2-14.3c1.7-5,0.6-10.7-4.8-12.7c-2.9-1.1-6.2-0.9-9.2-0.8c-3.5,0.1-7,0.4-10.5,0.8
				c-6.9,0.9-13.7,2.4-20.3,4.6c-7.3,2.4-14.3,5.6-20.9,9.5c-2.9,1.7-5.7,3.5-7.5,6.4c-1.4,2.3-1.9,5.1,0.1,7.2
				C234,241.9,235.1,240.8,234.4,240.1L234.4,240.1z"/>
		</g>
	</g>
	<g>
		<g>
			<path d="M241.4,323.2c-20,2.7-40.8-3.9-55.9-17.2c-4.2-3.7-8-8-11.2-12.6c-0.2,0.4-0.4,0.8-0.6,1.1c7.1-0.8,12.1,5.3,15.5,10.7
				c3.2,5.1,6.4,9.9,10.8,14c8.1,7.5,18.5,12.4,29.4,13.9c6.1,0.9,12.4,0.7,18.4-0.7c-0.2-0.4-0.5-0.8-0.7-1.3
				c-6.1,7.6-10.8,16-14.4,25c-1.7,4.3-3.5,8.8-7.1,11.7c-3.4,2.7-7.8,3.7-12,3.8c-4.6,0.1-9.3-0.6-13.8-1.6
				c-4.9-1-9.6-2.5-14.3-4.2c-4.7-1.8-9.3-3.9-13.7-6.4c-4.1-2.3-8.5-4.7-11.5-8.4c-4.7-5.7-4.9-16.1-12.9-18.6
				c-0.6-0.2-1,0.4-0.9,0.9c1.6,7.1,6.6,12.7,12,17.3c6.3,5.4,13.2,10.3,20,15c6.7,4.6,13.8,9.8,21.8,11.7
				c6.9,1.7,13.5-0.3,19.7-3.4c6.8-3.4,13.6-8.1,21.4-8.5c-0.2-0.4-0.4-0.9-0.5-1.3c-6,7.1-16.7,7.6-25.2,8.5
				c-5.5,0.6-11,1-16.6,1.2c-4.8,0.2-9.8,0.5-14.6,0c-4.3-0.5-8.9-1.9-11-5.9c-0.1,0.3-0.2,0.7-0.3,1c5.7-3.2,12.3-1.1,17.8,1.3
				c5.9,2.5,11.5,5.5,17.5,7.8c12.2,4.6,25.2,7.8,38.3,8.6c6.6,0.4,13.2-0.2,19.5-2.5c6-2.2,11.4-5.5,17.1-8.3
				c11.8-5.8,24.2-9.8,36.9-12.9c11.3-2.8,23.6-5.8,31.2-15.3c0.6-0.7-0.3-1.7-1.1-1.1c-12.8,11.6-29,19.3-46.1,22.1
				c-17,2.8-34.6,0.4-50.3-6.5c-8.9-3.9-17.1-9.2-24.3-15.7c-0.2,0.4-0.4,0.9-0.5,1.3c6.7-0.4,11.8,4.6,16.5,8.6
				c5.3,4.5,11.2,7.8,18.2,9c3.9,0.6,7.8,0.6,11.6-0.1c0.8-0.1,0.7-1.3,0-1.5c-14.2-4-30.3-8.8-37.6-22.8c-1.8-3.5-2.9-7.4-2.8-11.4
				c-0.3,0.2-0.6,0.5-0.9,0.7c6.8,2.2,14,2.9,21.1,2.1c7-0.9,13.7-3.3,20.1-6.1c12.6-5.7,24.6-12.6,35.9-20.5
				c6.3-4.4,12.4-9.1,18.2-14.1c0.6-0.5,0-1.4-0.7-1.3c-14.1,3.6-23,16.1-32.1,26.5c-5,5.7-10.5,10.9-17.2,14.7
				c-6.9,3.9-14.6,6.4-22.5,7.2c-8.9,1-17.9-0.1-26.2-3.2c0,0.5,0,1,0,1.5c7-1.8,14.4-1.3,21.5-2.2c6.3-0.8,12.4-2.7,18.1-5.5
				c5.5-2.7,10.3-6.4,14.7-10.6c4.1-3.9,7.9-8,12.1-11.6c4.7-4,10.1-7.4,16.4-8.3c-0.2-0.3-0.5-0.6-0.7-1c-0.9,5.1-5.5,8.3-9.8,10.5
				c-5.2,2.6-10.8,4.5-16.4,6c-11.3,3-23.1,3.8-34.7,2.5c-6.7-0.8-13.3-2.3-19.7-4.4c-0.9-0.3-1.3,1.1-0.4,1.5
				c23,7.9,49.5,6.7,71.4-4c4.9-2.4,10-6,11-11.7c0.1-0.4-0.2-1-0.7-1c-11.2,1.5-19.1,10-26.7,17.5c-4.3,4.2-8.7,8.2-14,11.3
				c-5.8,3.4-12.2,5.8-18.8,6.9c-7.9,1.3-16,0.5-23.8,2.5c-0.8,0.2-0.6,1.2,0,1.5c14.7,5.5,31.5,4.6,45.7-2c7-3.3,13-7.9,18.3-13.5
				c5.1-5.4,9.6-11.2,14.7-16.5c5.6-5.9,12-11,20-13.1c-0.2-0.4-0.5-0.8-0.7-1.3c-10.2,8.8-21.2,16.6-32.9,23.5
				c-5.7,3.4-11.6,6.5-17.6,9.4c-6.4,3-12.9,5.8-19.9,7.1c-7.8,1.5-15.9,0.9-23.5-1.6c-0.5-0.1-0.9,0.3-0.9,0.7
				c-0.1,7.2,3.2,13.9,8,19.2c5.4,5.8,12.4,9.5,19.8,12.2c4.5,1.7,9.1,3,13.8,4.3c0-0.5,0-1,0-1.5c-7.1,1.3-14.7,0.1-21.1-3.4
				c-5.7-3.1-9.9-8.2-15.4-11.5c-2.9-1.8-6-2.9-9.4-2.7c-0.6,0-1,0.8-0.5,1.3c13,11.8,29.4,19.6,46.7,22.5
				c17.3,2.9,35.2,0.5,51.2-6.4c9.1-4,17.6-9.4,24.9-16c-0.4-0.4-0.7-0.7-1.1-1.1c-6.9,8.5-17.8,11.7-28,14.3
				c-5.8,1.5-11.6,2.8-17.4,4.7c-6.2,2-12.4,4.3-18.3,7c-5.9,2.7-11.5,6-17.4,8.6c-6.3,2.9-12.8,4.2-19.8,4
				c-6.8-0.1-13.5-1.2-20.1-2.6c-6.4-1.4-12.7-3.2-18.9-5.4c-3.5-1.3-7-2.7-10.4-4.3c-3.1-1.4-6.1-3-9.2-4.3
				c-5.9-2.5-12.6-4.3-18.6-1c-0.4,0.2-0.4,0.7-0.3,1c4.2,8.1,15.9,7,23.5,6.8c5.9-0.2,11.9-0.6,17.8-1.1c5.1-0.5,10.4-1,15.4-2.1
				c4.9-1.1,9.8-3.1,13.1-7.1c0.4-0.5,0.2-1.3-0.5-1.3c-6.5,0.3-12.3,3.5-17.9,6.5c-5.8,3.1-11.9,6.4-18.7,6.1
				c-8.1-0.4-15.3-5.5-21.9-9.8c-7-4.6-13.9-9.6-20.5-14.8c-6.2-5-12.6-10.8-14.4-18.9c-0.3,0.3-0.6,0.6-0.9,0.9
				c3.5,1.1,5.4,4.4,6.8,7.5c1.5,3.4,2.7,7,4.9,10c2.8,3.6,6.8,6.1,10.7,8.4c4.4,2.5,8.9,4.7,13.6,6.6c4.8,1.9,9.6,3.5,14.6,4.6
				c4.5,1,9,1.9,13.6,2c4.1,0.1,8.4-0.4,12.1-2.2c4-1.9,6.7-5.3,8.6-9.3c2.4-4.9,4-10.1,6.6-14.9c2.7-5.2,5.9-10.1,9.6-14.6
				c0.5-0.6,0-1.4-0.7-1.3c-11.1,2.4-22.8,0.9-33.1-3.9c-5.1-2.4-9.8-5.5-13.9-9.4c-2-1.9-3.8-3.9-5.4-6c-1.9-2.6-3.5-5.4-5.2-8
				c-3.6-5.5-9-11.3-16.2-10.5c-0.5,0.1-1,0.6-0.6,1.1c11.5,17,30.6,28.1,50.9,30.6c5.8,0.7,11.7,0.7,17.5-0.1
				C242.4,324.6,242.4,323.1,241.4,323.2L241.4,323.2z"/>
		</g>
	</g>
	<g>
		<g>
			<path d="M245,207.6c8.7-4.7,17.4-9.3,26.1-14c4-2.1,8.2-4.4,12.8-4.2c4.4,0.1,8.6,2.6,12.2,5.1c3.3,2.3,6.4,5.3,7.3,9.4
				c1,4.3-0.5,8.8-2.8,12.4c-2.4,3.7-5.6,6.6-8.9,9.5c-3.6,3.2-7.2,6.3-10.9,9.4c-8.4,7.1-17,13.9-25.8,20.6c-0.8,0.6,0,1.9,0.8,1.3
				c8.2-6.2,16.3-12.7,24.2-19.3c3.9-3.3,7.9-6.6,11.7-10c3.5-3,6.9-6.1,9.6-9.8c2.5-3.5,4.2-7.9,3.9-12.3
				c-0.3-4.1-2.4-7.5-5.4-10.2c-3.2-2.8-7.1-5.2-11.1-6.6c-4.5-1.5-8.9-0.9-13.1,1c-5.2,2.2-10.2,5.2-15.2,7.9
				c-5.4,2.9-10.7,5.8-16.1,8.6C243.4,206.8,244.2,208.1,245,207.6L245,207.6z"/>
		</g>
	</g>
	<g>
		<g>
			<path d="M268.1,187c5.3-6.8,13-13,22-13.4c8.4-0.3,15.8,5.1,19.5,12.5c4.4,8.7,2.9,19.2-1.2,27.7c-4.2,8.7-11.1,15.8-18.2,22.2
				c-8.5,7.6-17.6,14.4-27.3,20.3c-0.8,0.5-0.1,1.8,0.8,1.3c9.2-5.6,17.9-12,25.9-19.1c7.6-6.7,15.1-14.1,19.7-23.2
				c4.4-8.6,6.2-19.2,2.3-28.4c-3.2-7.6-10.1-13.8-18.4-14.8c-10.5-1.2-20,5.8-26.1,13.7C266.4,186.7,267.5,187.8,268.1,187
				L268.1,187z"/>
		</g>
	</g>
	<g>
		<g>
			<path d="M215.6,153.9C215.6,153.9,215.6,153.9,215.6,153.9C215.6,153.9,215.6,154,215.6,153.9C215.6,154,215.6,153.9,215.6,153.9
				c0.1,0,0.1,0.1,0.1,0.2C215.7,154.1,215.7,154,215.6,153.9c0.1,0.1,0.1,0.2,0.1,0.3c0,0,0-0.1,0-0.1c0,0.1,0,0.1,0,0.2
				c0,0,0-0.1,0-0.1c0,0.1-0.1,0.1-0.1,0.2c0,0,0-0.1,0.1-0.1c0,0.1-0.1,0.1-0.1,0.1c0-0.1,0.1-0.1,0.1-0.1c-0.1,0-0.1,0.1-0.1,0.1
				c0.1-0.1,0.2-0.1,0.3-0.1c-0.1,0-0.1,0.1-0.2,0.1c0.1,0,0.2-0.1,0.3-0.1c-0.1,0-0.1,0-0.2,0c0.1,0,0.1,0,0.2,0
				c-0.1,0-0.1,0-0.2,0c0.1,0,0.1,0,0.1,0c-0.1,0-0.1-0.1-0.2-0.1c0,0,0.1,0,0.1,0.1c-0.1,0-0.1-0.1-0.1-0.1c0,0,0,0,0.1,0.1
				c0-0.1-0.1-0.1-0.1-0.1c0,0,0,0.1,0.1,0.1C215.6,154.1,215.6,154,215.6,153.9c0,0.1,0,0.1,0,0.1
				C215.6,154,215.6,153.9,215.6,153.9C215.6,153.9,215.6,153.9,215.6,153.9c0,0.2,0.1,0.4,0.2,0.6c0.1,0.1,0.3,0.2,0.5,0.2
				s0.4-0.1,0.5-0.2s0.2-0.3,0.2-0.5c0-0.4-0.2-0.8-0.6-1c-0.1-0.1-0.2-0.1-0.3-0.1c0,0-0.1,0-0.1,0c-0.1,0-0.3,0-0.4,0
				c-0.1,0-0.3,0-0.4,0.1s-0.3,0.1-0.4,0.2c-0.1,0.1-0.2,0.2-0.3,0.3c-0.1,0.2-0.2,0.3-0.3,0.5c0,0.1-0.1,0.2-0.1,0.3
				c0,0.1,0,0.2,0,0.3c0,0,0,0,0,0.1c0,0.1,0.1,0.2,0.1,0.2c0.1,0.1,0.1,0.2,0.2,0.3c0.1,0.1,0.4,0.2,0.5,0.2s0.4-0.1,0.5-0.2
				s0.2-0.3,0.2-0.5C215.8,154.2,215.7,154.1,215.6,153.9L215.6,153.9z"/>
		</g>
	</g>
	<g>
		<g>
			<path d="M218.6,166c1.1-5.2,4.3-9.5,7.8-13.4c3.8-4.3,7.8-8.5,11.7-12.8c4.1-4.5,8.2-9,12.3-13.5c3.4-3.8,6.8-7.7,11-10.7
				c2-1.4,4.1-2.5,6.4-3.2c2.9-0.8,5.9-0.7,8.9-0.5c1.3,0.1,2.9,0,4,0.7c1.3,0.7,1.6,2.4,1.8,3.8c0.3,2.6,0.3,5.2-0.1,7.8
				c-1.6,10.6-8.3,19.6-16.1,26.7c-4.5,4.1-9.4,7.7-14.3,11.3c-5.4,3.9-10.8,7.9-16.2,11.8c-0.8,0.6,0,1.9,0.8,1.3
				c5.3-3.9,10.6-7.7,15.8-11.6c4.5-3.3,9.1-6.6,13.3-10.3c8.4-7.3,15.8-16.4,17.9-27.5c0.5-2.6,0.7-5.3,0.5-7.9
				c-0.1-2.1-0.3-4.8-2.1-6.2c-0.9-0.7-2.1-0.9-3.2-1c-1.6-0.2-3.2-0.3-4.8-0.3c-2.8-0.1-5.6,0.2-8.3,1.3c-4.8,1.8-8.6,5.3-12,9
				c-4.3,4.5-8.4,9.2-12.6,13.8c-4.9,5.4-9.9,10.7-14.8,16.1c-4,4.4-7.9,9.2-9.1,15.1C216.9,166.6,218.4,166.9,218.6,166L218.6,166z
				"/>
		</g>
	</g>
</g>
</svg>
