<svg id="Layer_1" data-name="Layer 1" xmlns="http://www.w3.org/2000/svg" width="758.2" height="760" viewBox="0 0 758.2 760">
  <defs>
    <style>
      .cls-1 {
        fill: #c69696;
      }
    </style>
  </defs>
  <g>
    <path class="cls-1" d="M611.34,1H219.05A106.1,106.1,0,0,0,113,107.1v618A33.91,33.91,0,0,0,146.86,759H611.34a33.91,33.91,0,0,0,33.91-33.91V34.91A33.91,33.91,0,0,0,611.34,1ZM598.91,680.44A33.91,33.91,0,0,1,565,714.35H193.2a33.91,33.91,0,0,1-33.91-33.91V134a6.23,6.23,0,0,1,6.16-6.23l54.14-.66a18.83,18.83,0,0,0,18.6-18.82V51.89a6.23,6.23,0,0,1,6.23-6.23H565a33.91,33.91,0,0,1,33.91,33.91Z"/>
    <rect class="cls-1" x="220.11" y="156.83" width="318.58" height="27.96" rx="13.98"/>
    <rect class="cls-1" x="220.11" y="209.1" width="318.58" height="27.96" rx="13.98"/>
    <rect class="cls-1" x="220.11" y="261.36" width="318.58" height="27.96" rx="13.98"/>
    <rect class="cls-1" x="220.11" y="313.63" width="318.58" height="27.96" rx="13.98"/>
    <rect class="cls-1" x="220.11" y="441.79" width="318.58" height="27.96" rx="13.98"/>
    <rect class="cls-1" x="220.11" y="494.06" width="318.58" height="27.96" rx="13.98"/>
    <rect class="cls-1" x="220.11" y="546.32" width="318.58" height="27.96" rx="13.98"/>
  </g>
</svg>
